%TF.GenerationSoftware,KiCad,Pcbnew,7.0.6*%
%TF.CreationDate,2024-02-08T14:45:44-05:00*%
%TF.ProjectId,20Key_macropad,32304b65-795f-46d6-9163-726f7061642e,rev?*%
%TF.SameCoordinates,Original*%
%TF.FileFunction,Soldermask,Bot*%
%TF.FilePolarity,Negative*%
%FSLAX46Y46*%
G04 Gerber Fmt 4.6, Leading zero omitted, Abs format (unit mm)*
G04 Created by KiCad (PCBNEW 7.0.6) date 2024-02-08 14:45:44*
%MOMM*%
%LPD*%
G01*
G04 APERTURE LIST*
G04 Aperture macros list*
%AMRoundRect*
0 Rectangle with rounded corners*
0 $1 Rounding radius*
0 $2 $3 $4 $5 $6 $7 $8 $9 X,Y pos of 4 corners*
0 Add a 4 corners polygon primitive as box body*
4,1,4,$2,$3,$4,$5,$6,$7,$8,$9,$2,$3,0*
0 Add four circle primitives for the rounded corners*
1,1,$1+$1,$2,$3*
1,1,$1+$1,$4,$5*
1,1,$1+$1,$6,$7*
1,1,$1+$1,$8,$9*
0 Add four rect primitives between the rounded corners*
20,1,$1+$1,$2,$3,$4,$5,0*
20,1,$1+$1,$4,$5,$6,$7,0*
20,1,$1+$1,$6,$7,$8,$9,0*
20,1,$1+$1,$8,$9,$2,$3,0*%
G04 Aperture macros list end*
%ADD10C,1.700000*%
%ADD11C,4.000000*%
%ADD12C,2.200000*%
%ADD13RoundRect,0.225000X-0.375000X0.225000X-0.375000X-0.225000X0.375000X-0.225000X0.375000X0.225000X0*%
%ADD14RoundRect,0.225000X-0.225000X-0.375000X0.225000X-0.375000X0.225000X0.375000X-0.225000X0.375000X0*%
%ADD15RoundRect,0.225000X0.225000X0.375000X-0.225000X0.375000X-0.225000X-0.375000X0.225000X-0.375000X0*%
%ADD16C,1.400000*%
%ADD17O,1.400000X1.400000*%
%ADD18C,2.000000*%
%ADD19C,0.854000*%
%ADD20O,1.904000X1.104000*%
%ADD21O,2.604000X1.104000*%
%ADD22R,1.600000X1.600000*%
%ADD23O,1.600000X1.600000*%
%ADD24C,1.600000*%
%ADD25C,3.200000*%
%ADD26C,3.050000*%
%ADD27R,1.700000X1.700000*%
%ADD28O,1.700000X1.700000*%
%ADD29RoundRect,0.102000X0.889000X-0.889000X0.889000X0.889000X-0.889000X0.889000X-0.889000X-0.889000X0*%
%ADD30C,1.982000*%
%ADD31C,1.500000*%
G04 APERTURE END LIST*
D10*
%TO.C,SW5*%
X115480000Y-88580000D03*
D11*
X110400000Y-88580000D03*
D10*
X105320000Y-88580000D03*
D12*
X107860000Y-93660000D03*
X114210000Y-91120000D03*
%TD*%
D10*
%TO.C,SW8*%
X172630000Y-88580000D03*
D11*
X167550000Y-88580000D03*
D10*
X162470000Y-88580000D03*
D12*
X165010000Y-93660000D03*
X171360000Y-91120000D03*
%TD*%
D10*
%TO.C,SW2*%
X134530000Y-69530000D03*
D11*
X129450000Y-69530000D03*
D10*
X124370000Y-69530000D03*
D12*
X126910000Y-74610000D03*
X133260000Y-72070000D03*
%TD*%
D10*
%TO.C,SW1*%
X115480000Y-69530000D03*
D11*
X110400000Y-69530000D03*
D10*
X105320000Y-69530000D03*
D12*
X107860000Y-74610000D03*
X114210000Y-72070000D03*
%TD*%
D10*
%TO.C,SW17*%
X105320000Y-145730000D03*
D11*
X110400000Y-145730000D03*
D10*
X115480000Y-145730000D03*
D12*
X112940000Y-140650000D03*
X106590000Y-143190000D03*
%TD*%
D10*
%TO.C,SW16*%
X172630000Y-126680000D03*
D11*
X167550000Y-126680000D03*
D10*
X162470000Y-126680000D03*
D12*
X165010000Y-131760000D03*
X171360000Y-129220000D03*
%TD*%
D10*
%TO.C,SW10*%
X134530000Y-107630000D03*
D11*
X129450000Y-107630000D03*
D10*
X124370000Y-107630000D03*
D12*
X126910000Y-112710000D03*
X133260000Y-110170000D03*
%TD*%
D10*
%TO.C,SW14*%
X134530000Y-126680000D03*
D11*
X129450000Y-126680000D03*
D10*
X124370000Y-126680000D03*
D12*
X126910000Y-131760000D03*
X133260000Y-129220000D03*
%TD*%
D10*
%TO.C,SW15*%
X153580000Y-126680000D03*
D11*
X148500000Y-126680000D03*
D10*
X143420000Y-126680000D03*
D12*
X145960000Y-131760000D03*
X152310000Y-129220000D03*
%TD*%
D10*
%TO.C,SW11*%
X153580000Y-107630000D03*
D11*
X148500000Y-107630000D03*
D10*
X143420000Y-107630000D03*
D12*
X145960000Y-112710000D03*
X152310000Y-110170000D03*
%TD*%
D10*
%TO.C,SW18*%
X134530000Y-145730000D03*
D11*
X129450000Y-145730000D03*
D10*
X124370000Y-145730000D03*
D12*
X126910000Y-150810000D03*
X133260000Y-148270000D03*
%TD*%
D10*
%TO.C,SW12*%
X172630000Y-107630000D03*
D11*
X167550000Y-107630000D03*
D10*
X162470000Y-107630000D03*
D12*
X165010000Y-112710000D03*
X171360000Y-110170000D03*
%TD*%
D10*
%TO.C,SW3*%
X153580000Y-69530000D03*
D11*
X148500000Y-69530000D03*
D10*
X143420000Y-69530000D03*
D12*
X145960000Y-74610000D03*
X152310000Y-72070000D03*
%TD*%
D10*
%TO.C,SW7*%
X153580000Y-88580000D03*
D11*
X148500000Y-88580000D03*
D10*
X143420000Y-88580000D03*
D12*
X145960000Y-93660000D03*
X152310000Y-91120000D03*
%TD*%
D10*
%TO.C,SW6*%
X134530000Y-88580000D03*
D11*
X129450000Y-88580000D03*
D10*
X124370000Y-88580000D03*
D12*
X126910000Y-93660000D03*
X133260000Y-91120000D03*
%TD*%
D10*
%TO.C,SW20*%
X172630000Y-145730000D03*
D11*
X167550000Y-145730000D03*
D10*
X162470000Y-145730000D03*
D12*
X165010000Y-150810000D03*
X171360000Y-148270000D03*
%TD*%
D10*
%TO.C,SW13*%
X115480000Y-126680000D03*
D11*
X110400000Y-126680000D03*
D10*
X105320000Y-126680000D03*
D12*
X107860000Y-131760000D03*
X114210000Y-129220000D03*
%TD*%
D10*
%TO.C,SW9*%
X115480000Y-107630000D03*
D11*
X110400000Y-107630000D03*
D10*
X105320000Y-107630000D03*
D12*
X107860000Y-112710000D03*
X114210000Y-110170000D03*
%TD*%
D10*
%TO.C,SW19*%
X153580000Y-145730000D03*
D11*
X148500000Y-145730000D03*
D10*
X143420000Y-145730000D03*
D12*
X145960000Y-150810000D03*
X152310000Y-148270000D03*
%TD*%
D10*
%TO.C,SW4*%
X172630000Y-69530000D03*
D11*
X167550000Y-69530000D03*
D10*
X162470000Y-69530000D03*
D12*
X165010000Y-74610000D03*
X171360000Y-72070000D03*
%TD*%
D13*
%TO.C,D19*%
X152310000Y-140270000D03*
X152310000Y-143570000D03*
%TD*%
D14*
%TO.C,D20*%
X170345000Y-142555000D03*
X173645000Y-142555000D03*
%TD*%
D13*
%TO.C,D11*%
X152310000Y-102170000D03*
X152310000Y-105470000D03*
%TD*%
%TO.C,D9*%
X114210000Y-102170000D03*
X114210000Y-105470000D03*
%TD*%
%TO.C,D14*%
X133260000Y-121220000D03*
X133260000Y-124520000D03*
%TD*%
%TO.C,D16*%
X171360000Y-121220000D03*
X171360000Y-124520000D03*
%TD*%
%TO.C,D3*%
X152310000Y-64070000D03*
X152310000Y-67370000D03*
%TD*%
%TO.C,D7*%
X152310000Y-83120000D03*
X152310000Y-86420000D03*
%TD*%
%TO.C,D8*%
X171360000Y-83120000D03*
X171360000Y-86420000D03*
%TD*%
%TO.C,D15*%
X152310000Y-121220000D03*
X152310000Y-124520000D03*
%TD*%
D15*
%TO.C,D17*%
X119035000Y-140650000D03*
X115735000Y-140650000D03*
%TD*%
D13*
%TO.C,D13*%
X114210000Y-121220000D03*
X114210000Y-124520000D03*
%TD*%
%TO.C,D4*%
X171360000Y-64070000D03*
X171360000Y-67370000D03*
%TD*%
%TO.C,D5*%
X114210000Y-83120000D03*
X114210000Y-86420000D03*
%TD*%
%TO.C,D1*%
X114210000Y-64070000D03*
X114210000Y-67370000D03*
%TD*%
%TO.C,D18*%
X133260000Y-140270000D03*
X133260000Y-143570000D03*
%TD*%
%TO.C,D12*%
X171360000Y-102170000D03*
X171360000Y-105470000D03*
%TD*%
%TO.C,D2*%
X133260000Y-64070000D03*
X133260000Y-67370000D03*
%TD*%
%TO.C,D6*%
X133260000Y-83120000D03*
X133260000Y-86420000D03*
%TD*%
%TO.C,D10*%
X133260000Y-102170000D03*
X133260000Y-105470000D03*
%TD*%
D16*
%TO.C,R6*%
X125640000Y-51750000D03*
D17*
X120560000Y-51750000D03*
%TD*%
D16*
%TO.C,R3*%
X125640000Y-42300000D03*
D17*
X120560000Y-42300000D03*
%TD*%
D18*
%TO.C,BOOT1*%
X129871052Y-36283872D03*
X136371052Y-36283872D03*
X129871052Y-40783872D03*
X136371052Y-40783872D03*
%TD*%
D19*
%TO.C,J1*%
X107140000Y-44965000D03*
X107140000Y-45815000D03*
X107140000Y-46665000D03*
X107140000Y-47515000D03*
X107140000Y-48365000D03*
X107140000Y-49215000D03*
X107140000Y-50065000D03*
X107140000Y-50915000D03*
X105790000Y-50915000D03*
X105790000Y-50065000D03*
X105790000Y-49215000D03*
X105790000Y-48365000D03*
X105790000Y-47515000D03*
X105790000Y-46665000D03*
X105790000Y-45815000D03*
X105790000Y-44965000D03*
D20*
X102780000Y-43615000D03*
X102780000Y-52265000D03*
D21*
X106160000Y-43615000D03*
X106160000Y-52265000D03*
%TD*%
D22*
%TO.C,D21*%
X116750000Y-35240000D03*
D23*
X109130000Y-35240000D03*
%TD*%
D24*
%TO.C,C5*%
X159950000Y-54925000D03*
X162450000Y-54925000D03*
%TD*%
D16*
%TO.C,R5*%
X125640000Y-48600000D03*
D17*
X120560000Y-48600000D03*
%TD*%
D22*
%TO.C,C4*%
X112940000Y-48575000D03*
D24*
X112940000Y-51075000D03*
%TD*%
D25*
%TO.C,REF\u002A\u002A*%
X138975000Y-151445000D03*
%TD*%
D26*
%TO.C,SW8*%
X174550000Y-86205000D03*
D11*
X159310000Y-86205000D03*
D10*
X167550000Y-93025000D03*
D11*
X167550000Y-98105000D03*
D10*
X167550000Y-103185000D03*
D26*
X174550000Y-110005000D03*
D11*
X159310000Y-110005000D03*
D12*
X172630000Y-100645000D03*
X170090000Y-94295000D03*
%TD*%
D24*
%TO.C,C3*%
X159910000Y-42225000D03*
X157410000Y-42225000D03*
%TD*%
D16*
%TO.C,R2*%
X125640000Y-39150000D03*
D17*
X120560000Y-39150000D03*
%TD*%
D18*
%TO.C,RESET1*%
X129871052Y-44833872D03*
X136371052Y-44833872D03*
X129871052Y-49333872D03*
X136371052Y-49333872D03*
%TD*%
D22*
%TO.C,D22*%
X116750000Y-38415000D03*
D23*
X109130000Y-38415000D03*
%TD*%
D18*
%TO.C,F1*%
X115440000Y-44130000D03*
X110440000Y-44130000D03*
%TD*%
D27*
%TO.C,J3*%
X156755000Y-61021000D03*
D28*
X154215000Y-61021000D03*
X151675000Y-61021000D03*
X149135000Y-61021000D03*
X146595000Y-61021000D03*
X144055000Y-61021000D03*
X141515000Y-61021000D03*
X138975000Y-61021000D03*
X136435000Y-61021000D03*
X133895000Y-61021000D03*
X131355000Y-61021000D03*
X128815000Y-61021000D03*
X126275000Y-61021000D03*
X123735000Y-61021000D03*
X121195000Y-61021000D03*
%TD*%
D22*
%TO.C,U1*%
X175160000Y-44765000D03*
D23*
X172620000Y-44765000D03*
X170080000Y-44765000D03*
X167540000Y-44765000D03*
X165000000Y-44765000D03*
X162460000Y-44765000D03*
X159920000Y-44765000D03*
X157380000Y-44765000D03*
X154840000Y-44765000D03*
X152300000Y-44765000D03*
X149760000Y-44765000D03*
X147220000Y-44765000D03*
X144680000Y-44765000D03*
X142140000Y-44765000D03*
X142140000Y-52385000D03*
X144680000Y-52385000D03*
X147220000Y-52385000D03*
X149760000Y-52385000D03*
X152300000Y-52385000D03*
X154840000Y-52385000D03*
X157380000Y-52385000D03*
X159920000Y-52385000D03*
X162460000Y-52385000D03*
X165000000Y-52385000D03*
X167540000Y-52385000D03*
X170080000Y-52385000D03*
X172620000Y-52385000D03*
X175160000Y-52385000D03*
%TD*%
D24*
%TO.C,C2*%
X139610000Y-39645000D03*
X139610000Y-34645000D03*
%TD*%
D25*
%TO.C,REF\u002A\u002A*%
X173265000Y-79055000D03*
%TD*%
D27*
%TO.C,J2*%
X121195000Y-56830000D03*
D28*
X123735000Y-56830000D03*
X126275000Y-56830000D03*
X128815000Y-56830000D03*
X131355000Y-56830000D03*
X133895000Y-56830000D03*
X136435000Y-56830000D03*
X138975000Y-56830000D03*
X141515000Y-56830000D03*
X144055000Y-56830000D03*
X146595000Y-56830000D03*
X149135000Y-56830000D03*
X151675000Y-56830000D03*
X154215000Y-56830000D03*
X156755000Y-56830000D03*
%TD*%
D25*
%TO.C,REF\u002A\u002A*%
X173300000Y-36730000D03*
%TD*%
D29*
%TO.C,X1*%
X160565000Y-38415000D03*
D30*
X160565000Y-35875000D03*
X163105000Y-38415000D03*
X163105000Y-35875000D03*
X165645000Y-38415000D03*
X165645000Y-35875000D03*
%TD*%
D26*
%TO.C,SW18*%
X131825000Y-152730000D03*
D11*
X131825000Y-137490000D03*
D10*
X125005000Y-145730000D03*
D11*
X119925000Y-145730000D03*
D10*
X114845000Y-145730000D03*
D26*
X108025000Y-152730000D03*
D11*
X108025000Y-137490000D03*
D12*
X117385000Y-150810000D03*
X123735000Y-148270000D03*
%TD*%
D25*
%TO.C,REF\u002A\u002A*%
X104550000Y-36730000D03*
%TD*%
D16*
%TO.C,R4*%
X125640000Y-45400000D03*
D17*
X120560000Y-45400000D03*
%TD*%
D24*
%TO.C,C1*%
X154850000Y-39645000D03*
X154850000Y-34645000D03*
%TD*%
D31*
%TO.C,Y1*%
X144780000Y-37780000D03*
X149660000Y-37780000D03*
%TD*%
D25*
%TO.C,REF\u002A\u002A*%
X104685000Y-79055000D03*
%TD*%
D26*
%TO.C,SW16*%
X174550000Y-124305000D03*
D11*
X159310000Y-124305000D03*
D10*
X167550000Y-131125000D03*
D11*
X167550000Y-136205000D03*
D10*
X167550000Y-141285000D03*
D26*
X174550000Y-148105000D03*
D11*
X159310000Y-148105000D03*
D12*
X172630000Y-138745000D03*
X170090000Y-132395000D03*
%TD*%
D16*
%TO.C,R1*%
X120560000Y-36000000D03*
D17*
X125640000Y-36000000D03*
%TD*%
M02*
