%TF.GenerationSoftware,KiCad,Pcbnew,7.0.6*%
%TF.CreationDate,2024-02-08T14:45:44-05:00*%
%TF.ProjectId,20Key_macropad,32304b65-795f-46d6-9163-726f7061642e,rev?*%
%TF.SameCoordinates,Original*%
%TF.FileFunction,Profile,NP*%
%FSLAX46Y46*%
G04 Gerber Fmt 4.6, Leading zero omitted, Abs format (unit mm)*
G04 Created by KiCad (PCBNEW 7.0.6) date 2024-02-08 14:45:44*
%MOMM*%
%LPD*%
G01*
G04 APERTURE LIST*
%TA.AperFunction,Profile*%
%ADD10C,0.100000*%
%TD*%
%TA.AperFunction,Profile*%
%ADD11C,0.025400*%
%TD*%
G04 APERTURE END LIST*
D10*
X174200000Y-59230000D02*
G75*
G03*
X174200000Y-59230000I-400000J0D01*
G01*
X103200000Y-59230000D02*
G75*
G03*
X103200000Y-59230000I-400000J0D01*
G01*
X176700000Y-59230000D02*
G75*
G03*
X176700000Y-59230000I-400000J0D01*
G01*
X101875000Y-33005000D02*
X176075000Y-33005000D01*
X176075000Y-155415000D02*
G75*
G03*
X177075000Y-154415000I0J1000000D01*
G01*
X101950000Y-59230000D02*
G75*
G03*
X101950000Y-59230000I-400000J0D01*
G01*
X104919000Y-58730000D02*
X172975000Y-58730000D01*
X172975000Y-59730000D01*
X104919000Y-59730000D01*
X104919000Y-58730000D01*
X177075000Y-34005000D02*
G75*
G03*
X176075000Y-33005000I-1000000J0D01*
G01*
X100875000Y-154415000D02*
X100875000Y-34005000D01*
X104450000Y-59230000D02*
G75*
G03*
X104450000Y-59230000I-400000J0D01*
G01*
X177075000Y-34005000D02*
X177075000Y-154415000D01*
X101875000Y-33005000D02*
G75*
G03*
X100875000Y-34005000I0J-1000000D01*
G01*
X175450000Y-59230000D02*
G75*
G03*
X175450000Y-59230000I-400000J0D01*
G01*
X176075000Y-155415000D02*
X101875000Y-155415000D01*
X100875000Y-154415000D02*
G75*
G03*
X101875000Y-155415000I1000000J0D01*
G01*
D11*
%TO.C,LED3*%
X159625200Y-80452000D02*
X159625200Y-77658000D01*
X159625200Y-80452000D02*
X156424800Y-80452000D01*
X159625200Y-77658000D02*
X156424800Y-77658000D01*
X156424800Y-77658000D02*
X156424800Y-80452000D01*
%TO.C,LED1*%
X121525200Y-80452000D02*
X121525200Y-77658000D01*
X121525200Y-80452000D02*
X118324800Y-80452000D01*
X121525200Y-77658000D02*
X118324800Y-77658000D01*
X118324800Y-77658000D02*
X118324800Y-80452000D01*
%TO.C,LED7*%
X121525200Y-118552000D02*
X121525200Y-115758000D01*
X121525200Y-118552000D02*
X118324800Y-118552000D01*
X121525200Y-115758000D02*
X118324800Y-115758000D01*
X118324800Y-115758000D02*
X118324800Y-118552000D01*
%TO.C,LED11*%
X140575200Y-137602000D02*
X140575200Y-134808000D01*
X140575200Y-137602000D02*
X137374800Y-137602000D01*
X140575200Y-134808000D02*
X137374800Y-134808000D01*
X137374800Y-134808000D02*
X137374800Y-137602000D01*
%TO.C,LED9*%
X159625200Y-118552000D02*
X159625200Y-115758000D01*
X159625200Y-118552000D02*
X156424800Y-118552000D01*
X159625200Y-115758000D02*
X156424800Y-115758000D01*
X156424800Y-115758000D02*
X156424800Y-118552000D01*
%TO.C,LED12*%
X156628000Y-137805200D02*
X159422000Y-137805200D01*
X156628000Y-137805200D02*
X156628000Y-134604800D01*
X159422000Y-137805200D02*
X159422000Y-134604800D01*
X159422000Y-134604800D02*
X156628000Y-134604800D01*
%TO.C,LED10*%
X121525200Y-137602000D02*
X121525200Y-134808000D01*
X121525200Y-137602000D02*
X118324800Y-137602000D01*
X121525200Y-134808000D02*
X118324800Y-134808000D01*
X118324800Y-134808000D02*
X118324800Y-137602000D01*
%TO.C,LED2*%
X140575200Y-80452000D02*
X140575200Y-77658000D01*
X140575200Y-80452000D02*
X137374800Y-80452000D01*
X140575200Y-77658000D02*
X137374800Y-77658000D01*
X137374800Y-77658000D02*
X137374800Y-80452000D01*
%TO.C,LED4*%
X121525200Y-99502000D02*
X121525200Y-96708000D01*
X121525200Y-99502000D02*
X118324800Y-99502000D01*
X121525200Y-96708000D02*
X118324800Y-96708000D01*
X118324800Y-96708000D02*
X118324800Y-99502000D01*
%TO.C,LED8*%
X140575200Y-118552000D02*
X140575200Y-115758000D01*
X140575200Y-118552000D02*
X137374800Y-118552000D01*
X140575200Y-115758000D02*
X137374800Y-115758000D01*
X137374800Y-115758000D02*
X137374800Y-118552000D01*
%TO.C,LED5*%
X140575200Y-99502000D02*
X140575200Y-96708000D01*
X140575200Y-99502000D02*
X137374800Y-99502000D01*
X140575200Y-96708000D02*
X137374800Y-96708000D01*
X137374800Y-96708000D02*
X137374800Y-99502000D01*
%TO.C,LED6*%
X156628000Y-99705200D02*
X159422000Y-99705200D01*
X156628000Y-99705200D02*
X156628000Y-96504800D01*
X159422000Y-99705200D02*
X159422000Y-96504800D01*
X159422000Y-96504800D02*
X156628000Y-96504800D01*
%TD*%
M02*
