%TF.GenerationSoftware,KiCad,Pcbnew,7.0.6*%
%TF.CreationDate,2024-02-22T13:24:55-05:00*%
%TF.ProjectId,20Key_macropad,32304b65-795f-46d6-9163-726f7061642e,rev?*%
%TF.SameCoordinates,Original*%
%TF.FileFunction,Drillmap*%
%TF.FilePolarity,Positive*%
%FSLAX45Y45*%
G04 Gerber Fmt 4.5, Leading zero omitted, Abs format (unit mm)*
G04 Created by KiCad (PCBNEW 7.0.6) date 2024-02-22 13:24:55*
%MOMM*%
%LPD*%
G01*
G04 APERTURE LIST*
%ADD10C,0.100000*%
%ADD11C,0.200000*%
%ADD12C,0.170000*%
%ADD13C,0.305000*%
%ADD14C,0.320000*%
%ADD15C,0.400000*%
G04 APERTURE END LIST*
D10*
X17420000Y-5923000D02*
G75*
G03*
X17420000Y-5923000I-40000J0D01*
G01*
X10320000Y-5923000D02*
G75*
G03*
X10320000Y-5923000I-40000J0D01*
G01*
X17670000Y-5923000D02*
G75*
G03*
X17670000Y-5923000I-40000J0D01*
G01*
X10187500Y-3300500D02*
X17607500Y-3300500D01*
X17607500Y-15541500D02*
G75*
G03*
X17707500Y-15441500I0J100000D01*
G01*
X10195000Y-5923000D02*
G75*
G03*
X10195000Y-5923000I-40000J0D01*
G01*
X10491900Y-5873000D02*
X17297500Y-5873000D01*
X17297500Y-5973000D01*
X10491900Y-5973000D01*
X10491900Y-5873000D01*
X17707500Y-3400500D02*
G75*
G03*
X17607500Y-3300500I-100000J0D01*
G01*
X10087500Y-15441500D02*
X10087500Y-3400500D01*
X10445000Y-5923000D02*
G75*
G03*
X10445000Y-5923000I-40000J0D01*
G01*
X17707500Y-3400500D02*
X17707500Y-15441500D01*
X10187500Y-3300500D02*
G75*
G03*
X10087500Y-3400500I0J-100000D01*
G01*
X17545000Y-5923000D02*
G75*
G03*
X17545000Y-5923000I-40000J0D01*
G01*
X17607500Y-15541500D02*
X10187500Y-15541500D01*
X10087500Y-15441500D02*
G75*
G03*
X10187500Y-15541500I100000J0D01*
G01*
D11*
D12*
X10447000Y-6868000D02*
X10617000Y-7038000D01*
X10617000Y-6868000D02*
X10447000Y-7038000D01*
X10447000Y-8773000D02*
X10617000Y-8943000D01*
X10617000Y-8773000D02*
X10447000Y-8943000D01*
X10447000Y-10678000D02*
X10617000Y-10848000D01*
X10617000Y-10678000D02*
X10447000Y-10848000D01*
X10447000Y-12583000D02*
X10617000Y-12753000D01*
X10617000Y-12583000D02*
X10447000Y-12753000D01*
X10447000Y-14488000D02*
X10617000Y-14658000D01*
X10617000Y-14488000D02*
X10447000Y-14658000D01*
X11399500Y-14488000D02*
X11569500Y-14658000D01*
X11569500Y-14488000D02*
X11399500Y-14658000D01*
X11463000Y-6868000D02*
X11633000Y-7038000D01*
X11633000Y-6868000D02*
X11463000Y-7038000D01*
X11463000Y-8773000D02*
X11633000Y-8943000D01*
X11633000Y-8773000D02*
X11463000Y-8943000D01*
X11463000Y-10678000D02*
X11633000Y-10848000D01*
X11633000Y-10678000D02*
X11463000Y-10848000D01*
X11463000Y-12583000D02*
X11633000Y-12753000D01*
X11633000Y-12583000D02*
X11463000Y-12753000D01*
X11463000Y-14488000D02*
X11633000Y-14658000D01*
X11633000Y-14488000D02*
X11463000Y-14658000D01*
X12352000Y-6868000D02*
X12522000Y-7038000D01*
X12522000Y-6868000D02*
X12352000Y-7038000D01*
X12352000Y-8773000D02*
X12522000Y-8943000D01*
X12522000Y-8773000D02*
X12352000Y-8943000D01*
X12352000Y-10678000D02*
X12522000Y-10848000D01*
X12522000Y-10678000D02*
X12352000Y-10848000D01*
X12352000Y-12583000D02*
X12522000Y-12753000D01*
X12522000Y-12583000D02*
X12352000Y-12753000D01*
X12352000Y-14488000D02*
X12522000Y-14658000D01*
X12522000Y-14488000D02*
X12352000Y-14658000D01*
X12415500Y-14488000D02*
X12585500Y-14658000D01*
X12585500Y-14488000D02*
X12415500Y-14658000D01*
X13368000Y-6868000D02*
X13538000Y-7038000D01*
X13538000Y-6868000D02*
X13368000Y-7038000D01*
X13368000Y-8773000D02*
X13538000Y-8943000D01*
X13538000Y-8773000D02*
X13368000Y-8943000D01*
X13368000Y-10678000D02*
X13538000Y-10848000D01*
X13538000Y-10678000D02*
X13368000Y-10848000D01*
X13368000Y-12583000D02*
X13538000Y-12753000D01*
X13538000Y-12583000D02*
X13368000Y-12753000D01*
X13368000Y-14488000D02*
X13538000Y-14658000D01*
X13538000Y-14488000D02*
X13368000Y-14658000D01*
X14257000Y-6868000D02*
X14427000Y-7038000D01*
X14427000Y-6868000D02*
X14257000Y-7038000D01*
X14257000Y-8773000D02*
X14427000Y-8943000D01*
X14427000Y-8773000D02*
X14257000Y-8943000D01*
X14257000Y-10678000D02*
X14427000Y-10848000D01*
X14427000Y-10678000D02*
X14257000Y-10848000D01*
X14257000Y-12583000D02*
X14427000Y-12753000D01*
X14427000Y-12583000D02*
X14257000Y-12753000D01*
X14257000Y-14488000D02*
X14427000Y-14658000D01*
X14427000Y-14488000D02*
X14257000Y-14658000D01*
X15273000Y-6868000D02*
X15443000Y-7038000D01*
X15443000Y-6868000D02*
X15273000Y-7038000D01*
X15273000Y-8773000D02*
X15443000Y-8943000D01*
X15443000Y-8773000D02*
X15273000Y-8943000D01*
X15273000Y-10678000D02*
X15443000Y-10848000D01*
X15443000Y-10678000D02*
X15273000Y-10848000D01*
X15273000Y-12583000D02*
X15443000Y-12753000D01*
X15443000Y-12583000D02*
X15273000Y-12753000D01*
X15273000Y-14488000D02*
X15443000Y-14658000D01*
X15443000Y-14488000D02*
X15273000Y-14658000D01*
X16162000Y-6868000D02*
X16332000Y-7038000D01*
X16332000Y-6868000D02*
X16162000Y-7038000D01*
X16162000Y-8773000D02*
X16332000Y-8943000D01*
X16332000Y-8773000D02*
X16162000Y-8943000D01*
X16162000Y-10678000D02*
X16332000Y-10848000D01*
X16332000Y-10678000D02*
X16162000Y-10848000D01*
X16162000Y-12583000D02*
X16332000Y-12753000D01*
X16332000Y-12583000D02*
X16162000Y-12753000D01*
X16162000Y-14488000D02*
X16332000Y-14658000D01*
X16332000Y-14488000D02*
X16162000Y-14658000D01*
X16670000Y-9217500D02*
X16840000Y-9387500D01*
X16840000Y-9217500D02*
X16670000Y-9387500D01*
X16670000Y-10233500D02*
X16840000Y-10403500D01*
X16840000Y-10233500D02*
X16670000Y-10403500D01*
X16670000Y-13027500D02*
X16840000Y-13197500D01*
X16840000Y-13027500D02*
X16670000Y-13197500D01*
X16670000Y-14043500D02*
X16840000Y-14213500D01*
X16840000Y-14043500D02*
X16670000Y-14213500D01*
X17178000Y-6868000D02*
X17348000Y-7038000D01*
X17348000Y-6868000D02*
X17178000Y-7038000D01*
X17178000Y-8773000D02*
X17348000Y-8943000D01*
X17348000Y-8773000D02*
X17178000Y-8943000D01*
X17178000Y-10678000D02*
X17348000Y-10848000D01*
X17348000Y-10678000D02*
X17178000Y-10848000D01*
X17178000Y-12583000D02*
X17348000Y-12753000D01*
X17348000Y-12583000D02*
X17178000Y-12753000D01*
X17178000Y-14488000D02*
X17348000Y-14658000D01*
X17348000Y-14488000D02*
X17178000Y-14658000D01*
D13*
X10955000Y-15273000D02*
G75*
G03*
X10955000Y-15273000I-152500J0D01*
G01*
X13335000Y-15273000D02*
G75*
G03*
X13335000Y-15273000I-152500J0D01*
G01*
X17607500Y-8620500D02*
G75*
G03*
X17607500Y-8620500I-152500J0D01*
G01*
X17607500Y-11000500D02*
G75*
G03*
X17607500Y-11000500I-152500J0D01*
G01*
X17607500Y-12430500D02*
G75*
G03*
X17607500Y-12430500I-152500J0D01*
G01*
X17607500Y-14810500D02*
G75*
G03*
X17607500Y-14810500I-152500J0D01*
G01*
D14*
X10455000Y-3513000D02*
X10455000Y-3833000D01*
X10295000Y-3673000D02*
X10615000Y-3673000D01*
X10468500Y-7745500D02*
X10468500Y-8065500D01*
X10308500Y-7905500D02*
X10628500Y-7905500D01*
X13897500Y-14984500D02*
X13897500Y-15304500D01*
X13737500Y-15144500D02*
X14057500Y-15144500D01*
X17326500Y-7745500D02*
X17326500Y-8065500D01*
X17166500Y-7905500D02*
X17486500Y-7905500D01*
X17330000Y-3513000D02*
X17330000Y-3833000D01*
X17170000Y-3673000D02*
X17490000Y-3673000D01*
D15*
X10943923Y-13890423D02*
X10943923Y-13607577D01*
X10661077Y-13607577D01*
X10661077Y-13890423D01*
X10943923Y-13890423D01*
X11181423Y-7094423D02*
X11181423Y-6811577D01*
X10898577Y-6811577D01*
X10898577Y-7094423D01*
X11181423Y-7094423D01*
X11181423Y-8999423D02*
X11181423Y-8716577D01*
X10898577Y-8716577D01*
X10898577Y-8999423D01*
X11181423Y-8999423D01*
X11181423Y-10904423D02*
X11181423Y-10621577D01*
X10898577Y-10621577D01*
X10898577Y-10904423D01*
X11181423Y-10904423D01*
X11181423Y-12809423D02*
X11181423Y-12526577D01*
X10898577Y-12526577D01*
X10898577Y-12809423D01*
X11181423Y-12809423D01*
X11181423Y-14714423D02*
X11181423Y-14431577D01*
X10898577Y-14431577D01*
X10898577Y-14714423D01*
X11181423Y-14714423D01*
X12133923Y-14714423D02*
X12133923Y-14431577D01*
X11851077Y-14431577D01*
X11851077Y-14714423D01*
X12133923Y-14714423D01*
X13086423Y-7094423D02*
X13086423Y-6811577D01*
X12803577Y-6811577D01*
X12803577Y-7094423D01*
X13086423Y-7094423D01*
X13086423Y-8999423D02*
X13086423Y-8716577D01*
X12803577Y-8716577D01*
X12803577Y-8999423D01*
X13086423Y-8999423D01*
X13086423Y-10904423D02*
X13086423Y-10621577D01*
X12803577Y-10621577D01*
X12803577Y-10904423D01*
X13086423Y-10904423D01*
X13086423Y-12809423D02*
X13086423Y-12526577D01*
X12803577Y-12526577D01*
X12803577Y-12809423D01*
X13086423Y-12809423D01*
X13086423Y-14714423D02*
X13086423Y-14431577D01*
X12803577Y-14431577D01*
X12803577Y-14714423D01*
X13086423Y-14714423D01*
X13323923Y-13890423D02*
X13323923Y-13607577D01*
X13041077Y-13607577D01*
X13041077Y-13890423D01*
X13323923Y-13890423D01*
X14991423Y-7094423D02*
X14991423Y-6811577D01*
X14708577Y-6811577D01*
X14708577Y-7094423D01*
X14991423Y-7094423D01*
X14991423Y-8999423D02*
X14991423Y-8716577D01*
X14708577Y-8716577D01*
X14708577Y-8999423D01*
X14991423Y-8999423D01*
X14991423Y-10904423D02*
X14991423Y-10621577D01*
X14708577Y-10621577D01*
X14708577Y-10904423D01*
X14991423Y-10904423D01*
X14991423Y-12809423D02*
X14991423Y-12526577D01*
X14708577Y-12526577D01*
X14708577Y-12809423D01*
X14991423Y-12809423D01*
X14991423Y-14714423D02*
X14991423Y-14431577D01*
X14708577Y-14431577D01*
X14708577Y-14714423D01*
X14991423Y-14714423D01*
X16072423Y-8761923D02*
X16072423Y-8479077D01*
X15789577Y-8479077D01*
X15789577Y-8761923D01*
X16072423Y-8761923D01*
X16072423Y-11141923D02*
X16072423Y-10859077D01*
X15789577Y-10859077D01*
X15789577Y-11141923D01*
X16072423Y-11141923D01*
X16072423Y-12571923D02*
X16072423Y-12289077D01*
X15789577Y-12289077D01*
X15789577Y-12571923D01*
X16072423Y-12571923D01*
X16072423Y-14951923D02*
X16072423Y-14669077D01*
X15789577Y-14669077D01*
X15789577Y-14951923D01*
X16072423Y-14951923D01*
X16896423Y-7094423D02*
X16896423Y-6811577D01*
X16613577Y-6811577D01*
X16613577Y-7094423D01*
X16896423Y-7094423D01*
X16896423Y-8999423D02*
X16896423Y-8716577D01*
X16613577Y-8716577D01*
X16613577Y-8999423D01*
X16896423Y-8999423D01*
X16896423Y-9951923D02*
X16896423Y-9669077D01*
X16613577Y-9669077D01*
X16613577Y-9951923D01*
X16896423Y-9951923D01*
X16896423Y-10904423D02*
X16896423Y-10621577D01*
X16613577Y-10621577D01*
X16613577Y-10904423D01*
X16896423Y-10904423D01*
X16896423Y-12809423D02*
X16896423Y-12526577D01*
X16613577Y-12526577D01*
X16613577Y-12809423D01*
X16896423Y-12809423D01*
X16896423Y-13761923D02*
X16896423Y-13479077D01*
X16613577Y-13479077D01*
X16613577Y-13761923D01*
X16896423Y-13761923D01*
X16896423Y-14714423D02*
X16896423Y-14431577D01*
X16613577Y-14431577D01*
X16613577Y-14714423D01*
X16896423Y-14714423D01*
D11*
X10343277Y-15857984D02*
X10343277Y-15657984D01*
X10343277Y-15657984D02*
X10390896Y-15657984D01*
X10390896Y-15657984D02*
X10419467Y-15667508D01*
X10419467Y-15667508D02*
X10438515Y-15686555D01*
X10438515Y-15686555D02*
X10448039Y-15705603D01*
X10448039Y-15705603D02*
X10457563Y-15743698D01*
X10457563Y-15743698D02*
X10457563Y-15772269D01*
X10457563Y-15772269D02*
X10448039Y-15810365D01*
X10448039Y-15810365D02*
X10438515Y-15829412D01*
X10438515Y-15829412D02*
X10419467Y-15848460D01*
X10419467Y-15848460D02*
X10390896Y-15857984D01*
X10390896Y-15857984D02*
X10343277Y-15857984D01*
X10543277Y-15857984D02*
X10543277Y-15724650D01*
X10543277Y-15762746D02*
X10552801Y-15743698D01*
X10552801Y-15743698D02*
X10562324Y-15734174D01*
X10562324Y-15734174D02*
X10581372Y-15724650D01*
X10581372Y-15724650D02*
X10600420Y-15724650D01*
X10667086Y-15857984D02*
X10667086Y-15724650D01*
X10667086Y-15657984D02*
X10657563Y-15667508D01*
X10657563Y-15667508D02*
X10667086Y-15677031D01*
X10667086Y-15677031D02*
X10676610Y-15667508D01*
X10676610Y-15667508D02*
X10667086Y-15657984D01*
X10667086Y-15657984D02*
X10667086Y-15677031D01*
X10790896Y-15857984D02*
X10771848Y-15848460D01*
X10771848Y-15848460D02*
X10762324Y-15829412D01*
X10762324Y-15829412D02*
X10762324Y-15657984D01*
X10895658Y-15857984D02*
X10876610Y-15848460D01*
X10876610Y-15848460D02*
X10867086Y-15829412D01*
X10867086Y-15829412D02*
X10867086Y-15657984D01*
X11124229Y-15857984D02*
X11124229Y-15657984D01*
X11124229Y-15657984D02*
X11190896Y-15800841D01*
X11190896Y-15800841D02*
X11257562Y-15657984D01*
X11257562Y-15657984D02*
X11257562Y-15857984D01*
X11438515Y-15857984D02*
X11438515Y-15753222D01*
X11438515Y-15753222D02*
X11428991Y-15734174D01*
X11428991Y-15734174D02*
X11409943Y-15724650D01*
X11409943Y-15724650D02*
X11371848Y-15724650D01*
X11371848Y-15724650D02*
X11352801Y-15734174D01*
X11438515Y-15848460D02*
X11419467Y-15857984D01*
X11419467Y-15857984D02*
X11371848Y-15857984D01*
X11371848Y-15857984D02*
X11352801Y-15848460D01*
X11352801Y-15848460D02*
X11343277Y-15829412D01*
X11343277Y-15829412D02*
X11343277Y-15810365D01*
X11343277Y-15810365D02*
X11352801Y-15791317D01*
X11352801Y-15791317D02*
X11371848Y-15781793D01*
X11371848Y-15781793D02*
X11419467Y-15781793D01*
X11419467Y-15781793D02*
X11438515Y-15772269D01*
X11533753Y-15724650D02*
X11533753Y-15924650D01*
X11533753Y-15734174D02*
X11552801Y-15724650D01*
X11552801Y-15724650D02*
X11590896Y-15724650D01*
X11590896Y-15724650D02*
X11609943Y-15734174D01*
X11609943Y-15734174D02*
X11619467Y-15743698D01*
X11619467Y-15743698D02*
X11628991Y-15762746D01*
X11628991Y-15762746D02*
X11628991Y-15819888D01*
X11628991Y-15819888D02*
X11619467Y-15838936D01*
X11619467Y-15838936D02*
X11609943Y-15848460D01*
X11609943Y-15848460D02*
X11590896Y-15857984D01*
X11590896Y-15857984D02*
X11552801Y-15857984D01*
X11552801Y-15857984D02*
X11533753Y-15848460D01*
X11714705Y-15838936D02*
X11724229Y-15848460D01*
X11724229Y-15848460D02*
X11714705Y-15857984D01*
X11714705Y-15857984D02*
X11705182Y-15848460D01*
X11705182Y-15848460D02*
X11714705Y-15838936D01*
X11714705Y-15838936D02*
X11714705Y-15857984D01*
X11714705Y-15734174D02*
X11724229Y-15743698D01*
X11724229Y-15743698D02*
X11714705Y-15753222D01*
X11714705Y-15753222D02*
X11705182Y-15743698D01*
X11705182Y-15743698D02*
X11714705Y-15734174D01*
X11714705Y-15734174D02*
X11714705Y-15753222D01*
D12*
X9912500Y-16101500D02*
X10082500Y-16271500D01*
X10082500Y-16101500D02*
X9912500Y-16271500D01*
D11*
X10448039Y-16277984D02*
X10333753Y-16277984D01*
X10390896Y-16277984D02*
X10390896Y-16077984D01*
X10390896Y-16077984D02*
X10371848Y-16106555D01*
X10371848Y-16106555D02*
X10352801Y-16125603D01*
X10352801Y-16125603D02*
X10333753Y-16135127D01*
X10533753Y-16258936D02*
X10543277Y-16268460D01*
X10543277Y-16268460D02*
X10533753Y-16277984D01*
X10533753Y-16277984D02*
X10524229Y-16268460D01*
X10524229Y-16268460D02*
X10533753Y-16258936D01*
X10533753Y-16258936D02*
X10533753Y-16277984D01*
X10609944Y-16077984D02*
X10743277Y-16077984D01*
X10743277Y-16077984D02*
X10657563Y-16277984D01*
X10857563Y-16077984D02*
X10876610Y-16077984D01*
X10876610Y-16077984D02*
X10895658Y-16087508D01*
X10895658Y-16087508D02*
X10905182Y-16097031D01*
X10905182Y-16097031D02*
X10914705Y-16116079D01*
X10914705Y-16116079D02*
X10924229Y-16154174D01*
X10924229Y-16154174D02*
X10924229Y-16201793D01*
X10924229Y-16201793D02*
X10914705Y-16239888D01*
X10914705Y-16239888D02*
X10905182Y-16258936D01*
X10905182Y-16258936D02*
X10895658Y-16268460D01*
X10895658Y-16268460D02*
X10876610Y-16277984D01*
X10876610Y-16277984D02*
X10857563Y-16277984D01*
X10857563Y-16277984D02*
X10838515Y-16268460D01*
X10838515Y-16268460D02*
X10828991Y-16258936D01*
X10828991Y-16258936D02*
X10819467Y-16239888D01*
X10819467Y-16239888D02*
X10809944Y-16201793D01*
X10809944Y-16201793D02*
X10809944Y-16154174D01*
X10809944Y-16154174D02*
X10819467Y-16116079D01*
X10819467Y-16116079D02*
X10828991Y-16097031D01*
X10828991Y-16097031D02*
X10838515Y-16087508D01*
X10838515Y-16087508D02*
X10857563Y-16077984D01*
X11048039Y-16077984D02*
X11067086Y-16077984D01*
X11067086Y-16077984D02*
X11086134Y-16087508D01*
X11086134Y-16087508D02*
X11095658Y-16097031D01*
X11095658Y-16097031D02*
X11105182Y-16116079D01*
X11105182Y-16116079D02*
X11114705Y-16154174D01*
X11114705Y-16154174D02*
X11114705Y-16201793D01*
X11114705Y-16201793D02*
X11105182Y-16239888D01*
X11105182Y-16239888D02*
X11095658Y-16258936D01*
X11095658Y-16258936D02*
X11086134Y-16268460D01*
X11086134Y-16268460D02*
X11067086Y-16277984D01*
X11067086Y-16277984D02*
X11048039Y-16277984D01*
X11048039Y-16277984D02*
X11028991Y-16268460D01*
X11028991Y-16268460D02*
X11019467Y-16258936D01*
X11019467Y-16258936D02*
X11009944Y-16239888D01*
X11009944Y-16239888D02*
X11000420Y-16201793D01*
X11000420Y-16201793D02*
X11000420Y-16154174D01*
X11000420Y-16154174D02*
X11009944Y-16116079D01*
X11009944Y-16116079D02*
X11019467Y-16097031D01*
X11019467Y-16097031D02*
X11028991Y-16087508D01*
X11028991Y-16087508D02*
X11048039Y-16077984D01*
X11200420Y-16277984D02*
X11200420Y-16144650D01*
X11200420Y-16163698D02*
X11209943Y-16154174D01*
X11209943Y-16154174D02*
X11228991Y-16144650D01*
X11228991Y-16144650D02*
X11257563Y-16144650D01*
X11257563Y-16144650D02*
X11276610Y-16154174D01*
X11276610Y-16154174D02*
X11286134Y-16173222D01*
X11286134Y-16173222D02*
X11286134Y-16277984D01*
X11286134Y-16173222D02*
X11295658Y-16154174D01*
X11295658Y-16154174D02*
X11314705Y-16144650D01*
X11314705Y-16144650D02*
X11343277Y-16144650D01*
X11343277Y-16144650D02*
X11362324Y-16154174D01*
X11362324Y-16154174D02*
X11371848Y-16173222D01*
X11371848Y-16173222D02*
X11371848Y-16277984D01*
X11467086Y-16277984D02*
X11467086Y-16144650D01*
X11467086Y-16163698D02*
X11476610Y-16154174D01*
X11476610Y-16154174D02*
X11495658Y-16144650D01*
X11495658Y-16144650D02*
X11524229Y-16144650D01*
X11524229Y-16144650D02*
X11543277Y-16154174D01*
X11543277Y-16154174D02*
X11552801Y-16173222D01*
X11552801Y-16173222D02*
X11552801Y-16277984D01*
X11552801Y-16173222D02*
X11562324Y-16154174D01*
X11562324Y-16154174D02*
X11581372Y-16144650D01*
X11581372Y-16144650D02*
X11609943Y-16144650D01*
X11609943Y-16144650D02*
X11628991Y-16154174D01*
X11628991Y-16154174D02*
X11638515Y-16173222D01*
X11638515Y-16173222D02*
X11638515Y-16277984D01*
X12028991Y-16068460D02*
X11857563Y-16325603D01*
X12286134Y-16077984D02*
X12305182Y-16077984D01*
X12305182Y-16077984D02*
X12324229Y-16087508D01*
X12324229Y-16087508D02*
X12333753Y-16097031D01*
X12333753Y-16097031D02*
X12343277Y-16116079D01*
X12343277Y-16116079D02*
X12352801Y-16154174D01*
X12352801Y-16154174D02*
X12352801Y-16201793D01*
X12352801Y-16201793D02*
X12343277Y-16239888D01*
X12343277Y-16239888D02*
X12333753Y-16258936D01*
X12333753Y-16258936D02*
X12324229Y-16268460D01*
X12324229Y-16268460D02*
X12305182Y-16277984D01*
X12305182Y-16277984D02*
X12286134Y-16277984D01*
X12286134Y-16277984D02*
X12267086Y-16268460D01*
X12267086Y-16268460D02*
X12257563Y-16258936D01*
X12257563Y-16258936D02*
X12248039Y-16239888D01*
X12248039Y-16239888D02*
X12238515Y-16201793D01*
X12238515Y-16201793D02*
X12238515Y-16154174D01*
X12238515Y-16154174D02*
X12248039Y-16116079D01*
X12248039Y-16116079D02*
X12257563Y-16097031D01*
X12257563Y-16097031D02*
X12267086Y-16087508D01*
X12267086Y-16087508D02*
X12286134Y-16077984D01*
X12438515Y-16258936D02*
X12448039Y-16268460D01*
X12448039Y-16268460D02*
X12438515Y-16277984D01*
X12438515Y-16277984D02*
X12428991Y-16268460D01*
X12428991Y-16268460D02*
X12438515Y-16258936D01*
X12438515Y-16258936D02*
X12438515Y-16277984D01*
X12571848Y-16077984D02*
X12590896Y-16077984D01*
X12590896Y-16077984D02*
X12609944Y-16087508D01*
X12609944Y-16087508D02*
X12619467Y-16097031D01*
X12619467Y-16097031D02*
X12628991Y-16116079D01*
X12628991Y-16116079D02*
X12638515Y-16154174D01*
X12638515Y-16154174D02*
X12638515Y-16201793D01*
X12638515Y-16201793D02*
X12628991Y-16239888D01*
X12628991Y-16239888D02*
X12619467Y-16258936D01*
X12619467Y-16258936D02*
X12609944Y-16268460D01*
X12609944Y-16268460D02*
X12590896Y-16277984D01*
X12590896Y-16277984D02*
X12571848Y-16277984D01*
X12571848Y-16277984D02*
X12552801Y-16268460D01*
X12552801Y-16268460D02*
X12543277Y-16258936D01*
X12543277Y-16258936D02*
X12533753Y-16239888D01*
X12533753Y-16239888D02*
X12524229Y-16201793D01*
X12524229Y-16201793D02*
X12524229Y-16154174D01*
X12524229Y-16154174D02*
X12533753Y-16116079D01*
X12533753Y-16116079D02*
X12543277Y-16097031D01*
X12543277Y-16097031D02*
X12552801Y-16087508D01*
X12552801Y-16087508D02*
X12571848Y-16077984D01*
X12809944Y-16077984D02*
X12771848Y-16077984D01*
X12771848Y-16077984D02*
X12752801Y-16087508D01*
X12752801Y-16087508D02*
X12743277Y-16097031D01*
X12743277Y-16097031D02*
X12724229Y-16125603D01*
X12724229Y-16125603D02*
X12714706Y-16163698D01*
X12714706Y-16163698D02*
X12714706Y-16239888D01*
X12714706Y-16239888D02*
X12724229Y-16258936D01*
X12724229Y-16258936D02*
X12733753Y-16268460D01*
X12733753Y-16268460D02*
X12752801Y-16277984D01*
X12752801Y-16277984D02*
X12790896Y-16277984D01*
X12790896Y-16277984D02*
X12809944Y-16268460D01*
X12809944Y-16268460D02*
X12819467Y-16258936D01*
X12819467Y-16258936D02*
X12828991Y-16239888D01*
X12828991Y-16239888D02*
X12828991Y-16192269D01*
X12828991Y-16192269D02*
X12819467Y-16173222D01*
X12819467Y-16173222D02*
X12809944Y-16163698D01*
X12809944Y-16163698D02*
X12790896Y-16154174D01*
X12790896Y-16154174D02*
X12752801Y-16154174D01*
X12752801Y-16154174D02*
X12733753Y-16163698D01*
X12733753Y-16163698D02*
X12724229Y-16173222D01*
X12724229Y-16173222D02*
X12714706Y-16192269D01*
X13000420Y-16077984D02*
X12962325Y-16077984D01*
X12962325Y-16077984D02*
X12943277Y-16087508D01*
X12943277Y-16087508D02*
X12933753Y-16097031D01*
X12933753Y-16097031D02*
X12914706Y-16125603D01*
X12914706Y-16125603D02*
X12905182Y-16163698D01*
X12905182Y-16163698D02*
X12905182Y-16239888D01*
X12905182Y-16239888D02*
X12914706Y-16258936D01*
X12914706Y-16258936D02*
X12924229Y-16268460D01*
X12924229Y-16268460D02*
X12943277Y-16277984D01*
X12943277Y-16277984D02*
X12981372Y-16277984D01*
X12981372Y-16277984D02*
X13000420Y-16268460D01*
X13000420Y-16268460D02*
X13009944Y-16258936D01*
X13009944Y-16258936D02*
X13019467Y-16239888D01*
X13019467Y-16239888D02*
X13019467Y-16192269D01*
X13019467Y-16192269D02*
X13009944Y-16173222D01*
X13009944Y-16173222D02*
X13000420Y-16163698D01*
X13000420Y-16163698D02*
X12981372Y-16154174D01*
X12981372Y-16154174D02*
X12943277Y-16154174D01*
X12943277Y-16154174D02*
X12924229Y-16163698D01*
X12924229Y-16163698D02*
X12914706Y-16173222D01*
X12914706Y-16173222D02*
X12905182Y-16192269D01*
X13114706Y-16277984D02*
X13152801Y-16277984D01*
X13152801Y-16277984D02*
X13171848Y-16268460D01*
X13171848Y-16268460D02*
X13181372Y-16258936D01*
X13181372Y-16258936D02*
X13200420Y-16230365D01*
X13200420Y-16230365D02*
X13209944Y-16192269D01*
X13209944Y-16192269D02*
X13209944Y-16116079D01*
X13209944Y-16116079D02*
X13200420Y-16097031D01*
X13200420Y-16097031D02*
X13190896Y-16087508D01*
X13190896Y-16087508D02*
X13171848Y-16077984D01*
X13171848Y-16077984D02*
X13133753Y-16077984D01*
X13133753Y-16077984D02*
X13114706Y-16087508D01*
X13114706Y-16087508D02*
X13105182Y-16097031D01*
X13105182Y-16097031D02*
X13095658Y-16116079D01*
X13095658Y-16116079D02*
X13095658Y-16163698D01*
X13095658Y-16163698D02*
X13105182Y-16182746D01*
X13105182Y-16182746D02*
X13114706Y-16192269D01*
X13114706Y-16192269D02*
X13133753Y-16201793D01*
X13133753Y-16201793D02*
X13171848Y-16201793D01*
X13171848Y-16201793D02*
X13190896Y-16192269D01*
X13190896Y-16192269D02*
X13200420Y-16182746D01*
X13200420Y-16182746D02*
X13209944Y-16163698D01*
X13286134Y-16077984D02*
X13286134Y-16116079D01*
X13362325Y-16077984D02*
X13362325Y-16116079D01*
X13657563Y-16354174D02*
X13648039Y-16344650D01*
X13648039Y-16344650D02*
X13628991Y-16316079D01*
X13628991Y-16316079D02*
X13619468Y-16297031D01*
X13619468Y-16297031D02*
X13609944Y-16268460D01*
X13609944Y-16268460D02*
X13600420Y-16220841D01*
X13600420Y-16220841D02*
X13600420Y-16182746D01*
X13600420Y-16182746D02*
X13609944Y-16135127D01*
X13609944Y-16135127D02*
X13619468Y-16106555D01*
X13619468Y-16106555D02*
X13628991Y-16087508D01*
X13628991Y-16087508D02*
X13648039Y-16058936D01*
X13648039Y-16058936D02*
X13657563Y-16049412D01*
X13819468Y-16144650D02*
X13819468Y-16277984D01*
X13771848Y-16068460D02*
X13724229Y-16211317D01*
X13724229Y-16211317D02*
X13848039Y-16211317D01*
X14009944Y-16077984D02*
X13971848Y-16077984D01*
X13971848Y-16077984D02*
X13952801Y-16087508D01*
X13952801Y-16087508D02*
X13943277Y-16097031D01*
X13943277Y-16097031D02*
X13924229Y-16125603D01*
X13924229Y-16125603D02*
X13914706Y-16163698D01*
X13914706Y-16163698D02*
X13914706Y-16239888D01*
X13914706Y-16239888D02*
X13924229Y-16258936D01*
X13924229Y-16258936D02*
X13933753Y-16268460D01*
X13933753Y-16268460D02*
X13952801Y-16277984D01*
X13952801Y-16277984D02*
X13990896Y-16277984D01*
X13990896Y-16277984D02*
X14009944Y-16268460D01*
X14009944Y-16268460D02*
X14019468Y-16258936D01*
X14019468Y-16258936D02*
X14028991Y-16239888D01*
X14028991Y-16239888D02*
X14028991Y-16192269D01*
X14028991Y-16192269D02*
X14019468Y-16173222D01*
X14019468Y-16173222D02*
X14009944Y-16163698D01*
X14009944Y-16163698D02*
X13990896Y-16154174D01*
X13990896Y-16154174D02*
X13952801Y-16154174D01*
X13952801Y-16154174D02*
X13933753Y-16163698D01*
X13933753Y-16163698D02*
X13924229Y-16173222D01*
X13924229Y-16173222D02*
X13914706Y-16192269D01*
X14267087Y-16277984D02*
X14267087Y-16077984D01*
X14352801Y-16277984D02*
X14352801Y-16173222D01*
X14352801Y-16173222D02*
X14343277Y-16154174D01*
X14343277Y-16154174D02*
X14324230Y-16144650D01*
X14324230Y-16144650D02*
X14295658Y-16144650D01*
X14295658Y-16144650D02*
X14276610Y-16154174D01*
X14276610Y-16154174D02*
X14267087Y-16163698D01*
X14476610Y-16277984D02*
X14457563Y-16268460D01*
X14457563Y-16268460D02*
X14448039Y-16258936D01*
X14448039Y-16258936D02*
X14438515Y-16239888D01*
X14438515Y-16239888D02*
X14438515Y-16182746D01*
X14438515Y-16182746D02*
X14448039Y-16163698D01*
X14448039Y-16163698D02*
X14457563Y-16154174D01*
X14457563Y-16154174D02*
X14476610Y-16144650D01*
X14476610Y-16144650D02*
X14505182Y-16144650D01*
X14505182Y-16144650D02*
X14524230Y-16154174D01*
X14524230Y-16154174D02*
X14533753Y-16163698D01*
X14533753Y-16163698D02*
X14543277Y-16182746D01*
X14543277Y-16182746D02*
X14543277Y-16239888D01*
X14543277Y-16239888D02*
X14533753Y-16258936D01*
X14533753Y-16258936D02*
X14524230Y-16268460D01*
X14524230Y-16268460D02*
X14505182Y-16277984D01*
X14505182Y-16277984D02*
X14476610Y-16277984D01*
X14657563Y-16277984D02*
X14638515Y-16268460D01*
X14638515Y-16268460D02*
X14628991Y-16249412D01*
X14628991Y-16249412D02*
X14628991Y-16077984D01*
X14809944Y-16268460D02*
X14790896Y-16277984D01*
X14790896Y-16277984D02*
X14752801Y-16277984D01*
X14752801Y-16277984D02*
X14733753Y-16268460D01*
X14733753Y-16268460D02*
X14724230Y-16249412D01*
X14724230Y-16249412D02*
X14724230Y-16173222D01*
X14724230Y-16173222D02*
X14733753Y-16154174D01*
X14733753Y-16154174D02*
X14752801Y-16144650D01*
X14752801Y-16144650D02*
X14790896Y-16144650D01*
X14790896Y-16144650D02*
X14809944Y-16154174D01*
X14809944Y-16154174D02*
X14819468Y-16173222D01*
X14819468Y-16173222D02*
X14819468Y-16192269D01*
X14819468Y-16192269D02*
X14724230Y-16211317D01*
X14895658Y-16268460D02*
X14914706Y-16277984D01*
X14914706Y-16277984D02*
X14952801Y-16277984D01*
X14952801Y-16277984D02*
X14971849Y-16268460D01*
X14971849Y-16268460D02*
X14981372Y-16249412D01*
X14981372Y-16249412D02*
X14981372Y-16239888D01*
X14981372Y-16239888D02*
X14971849Y-16220841D01*
X14971849Y-16220841D02*
X14952801Y-16211317D01*
X14952801Y-16211317D02*
X14924230Y-16211317D01*
X14924230Y-16211317D02*
X14905182Y-16201793D01*
X14905182Y-16201793D02*
X14895658Y-16182746D01*
X14895658Y-16182746D02*
X14895658Y-16173222D01*
X14895658Y-16173222D02*
X14905182Y-16154174D01*
X14905182Y-16154174D02*
X14924230Y-16144650D01*
X14924230Y-16144650D02*
X14952801Y-16144650D01*
X14952801Y-16144650D02*
X14971849Y-16154174D01*
X15048039Y-16354174D02*
X15057563Y-16344650D01*
X15057563Y-16344650D02*
X15076611Y-16316079D01*
X15076611Y-16316079D02*
X15086134Y-16297031D01*
X15086134Y-16297031D02*
X15095658Y-16268460D01*
X15095658Y-16268460D02*
X15105182Y-16220841D01*
X15105182Y-16220841D02*
X15105182Y-16182746D01*
X15105182Y-16182746D02*
X15095658Y-16135127D01*
X15095658Y-16135127D02*
X15086134Y-16106555D01*
X15086134Y-16106555D02*
X15076611Y-16087508D01*
X15076611Y-16087508D02*
X15057563Y-16058936D01*
X15057563Y-16058936D02*
X15048039Y-16049412D01*
X15409944Y-16354174D02*
X15400420Y-16344650D01*
X15400420Y-16344650D02*
X15381372Y-16316079D01*
X15381372Y-16316079D02*
X15371849Y-16297031D01*
X15371849Y-16297031D02*
X15362325Y-16268460D01*
X15362325Y-16268460D02*
X15352801Y-16220841D01*
X15352801Y-16220841D02*
X15352801Y-16182746D01*
X15352801Y-16182746D02*
X15362325Y-16135127D01*
X15362325Y-16135127D02*
X15371849Y-16106555D01*
X15371849Y-16106555D02*
X15381372Y-16087508D01*
X15381372Y-16087508D02*
X15400420Y-16058936D01*
X15400420Y-16058936D02*
X15409944Y-16049412D01*
X15486134Y-16144650D02*
X15486134Y-16277984D01*
X15486134Y-16163698D02*
X15495658Y-16154174D01*
X15495658Y-16154174D02*
X15514706Y-16144650D01*
X15514706Y-16144650D02*
X15543277Y-16144650D01*
X15543277Y-16144650D02*
X15562325Y-16154174D01*
X15562325Y-16154174D02*
X15571849Y-16173222D01*
X15571849Y-16173222D02*
X15571849Y-16277984D01*
X15695658Y-16277984D02*
X15676611Y-16268460D01*
X15676611Y-16268460D02*
X15667087Y-16258936D01*
X15667087Y-16258936D02*
X15657563Y-16239888D01*
X15657563Y-16239888D02*
X15657563Y-16182746D01*
X15657563Y-16182746D02*
X15667087Y-16163698D01*
X15667087Y-16163698D02*
X15676611Y-16154174D01*
X15676611Y-16154174D02*
X15695658Y-16144650D01*
X15695658Y-16144650D02*
X15724230Y-16144650D01*
X15724230Y-16144650D02*
X15743277Y-16154174D01*
X15743277Y-16154174D02*
X15752801Y-16163698D01*
X15752801Y-16163698D02*
X15762325Y-16182746D01*
X15762325Y-16182746D02*
X15762325Y-16239888D01*
X15762325Y-16239888D02*
X15752801Y-16258936D01*
X15752801Y-16258936D02*
X15743277Y-16268460D01*
X15743277Y-16268460D02*
X15724230Y-16277984D01*
X15724230Y-16277984D02*
X15695658Y-16277984D01*
X15819468Y-16144650D02*
X15895658Y-16144650D01*
X15848039Y-16077984D02*
X15848039Y-16249412D01*
X15848039Y-16249412D02*
X15857563Y-16268460D01*
X15857563Y-16268460D02*
X15876611Y-16277984D01*
X15876611Y-16277984D02*
X15895658Y-16277984D01*
X16114706Y-16144650D02*
X16114706Y-16344650D01*
X16114706Y-16154174D02*
X16133753Y-16144650D01*
X16133753Y-16144650D02*
X16171849Y-16144650D01*
X16171849Y-16144650D02*
X16190896Y-16154174D01*
X16190896Y-16154174D02*
X16200420Y-16163698D01*
X16200420Y-16163698D02*
X16209944Y-16182746D01*
X16209944Y-16182746D02*
X16209944Y-16239888D01*
X16209944Y-16239888D02*
X16200420Y-16258936D01*
X16200420Y-16258936D02*
X16190896Y-16268460D01*
X16190896Y-16268460D02*
X16171849Y-16277984D01*
X16171849Y-16277984D02*
X16133753Y-16277984D01*
X16133753Y-16277984D02*
X16114706Y-16268460D01*
X16324230Y-16277984D02*
X16305182Y-16268460D01*
X16305182Y-16268460D02*
X16295658Y-16249412D01*
X16295658Y-16249412D02*
X16295658Y-16077984D01*
X16486134Y-16277984D02*
X16486134Y-16173222D01*
X16486134Y-16173222D02*
X16476611Y-16154174D01*
X16476611Y-16154174D02*
X16457563Y-16144650D01*
X16457563Y-16144650D02*
X16419468Y-16144650D01*
X16419468Y-16144650D02*
X16400420Y-16154174D01*
X16486134Y-16268460D02*
X16467087Y-16277984D01*
X16467087Y-16277984D02*
X16419468Y-16277984D01*
X16419468Y-16277984D02*
X16400420Y-16268460D01*
X16400420Y-16268460D02*
X16390896Y-16249412D01*
X16390896Y-16249412D02*
X16390896Y-16230365D01*
X16390896Y-16230365D02*
X16400420Y-16211317D01*
X16400420Y-16211317D02*
X16419468Y-16201793D01*
X16419468Y-16201793D02*
X16467087Y-16201793D01*
X16467087Y-16201793D02*
X16486134Y-16192269D01*
X16552801Y-16144650D02*
X16628992Y-16144650D01*
X16581373Y-16077984D02*
X16581373Y-16249412D01*
X16581373Y-16249412D02*
X16590896Y-16268460D01*
X16590896Y-16268460D02*
X16609944Y-16277984D01*
X16609944Y-16277984D02*
X16628992Y-16277984D01*
X16771849Y-16268460D02*
X16752801Y-16277984D01*
X16752801Y-16277984D02*
X16714706Y-16277984D01*
X16714706Y-16277984D02*
X16695658Y-16268460D01*
X16695658Y-16268460D02*
X16686134Y-16249412D01*
X16686134Y-16249412D02*
X16686134Y-16173222D01*
X16686134Y-16173222D02*
X16695658Y-16154174D01*
X16695658Y-16154174D02*
X16714706Y-16144650D01*
X16714706Y-16144650D02*
X16752801Y-16144650D01*
X16752801Y-16144650D02*
X16771849Y-16154174D01*
X16771849Y-16154174D02*
X16781373Y-16173222D01*
X16781373Y-16173222D02*
X16781373Y-16192269D01*
X16781373Y-16192269D02*
X16686134Y-16211317D01*
X16952801Y-16277984D02*
X16952801Y-16077984D01*
X16952801Y-16268460D02*
X16933754Y-16277984D01*
X16933754Y-16277984D02*
X16895658Y-16277984D01*
X16895658Y-16277984D02*
X16876611Y-16268460D01*
X16876611Y-16268460D02*
X16867087Y-16258936D01*
X16867087Y-16258936D02*
X16857563Y-16239888D01*
X16857563Y-16239888D02*
X16857563Y-16182746D01*
X16857563Y-16182746D02*
X16867087Y-16163698D01*
X16867087Y-16163698D02*
X16876611Y-16154174D01*
X16876611Y-16154174D02*
X16895658Y-16144650D01*
X16895658Y-16144650D02*
X16933754Y-16144650D01*
X16933754Y-16144650D02*
X16952801Y-16154174D01*
X17028992Y-16354174D02*
X17038516Y-16344650D01*
X17038516Y-16344650D02*
X17057563Y-16316079D01*
X17057563Y-16316079D02*
X17067087Y-16297031D01*
X17067087Y-16297031D02*
X17076611Y-16268460D01*
X17076611Y-16268460D02*
X17086135Y-16220841D01*
X17086135Y-16220841D02*
X17086135Y-16182746D01*
X17086135Y-16182746D02*
X17076611Y-16135127D01*
X17076611Y-16135127D02*
X17067087Y-16106555D01*
X17067087Y-16106555D02*
X17057563Y-16087508D01*
X17057563Y-16087508D02*
X17038516Y-16058936D01*
X17038516Y-16058936D02*
X17028992Y-16049412D01*
X10082500Y-16476500D02*
G75*
G03*
X10082500Y-16476500I-100000J0D01*
G01*
X10324229Y-16367984D02*
X10448039Y-16367984D01*
X10448039Y-16367984D02*
X10381372Y-16444174D01*
X10381372Y-16444174D02*
X10409944Y-16444174D01*
X10409944Y-16444174D02*
X10428991Y-16453698D01*
X10428991Y-16453698D02*
X10438515Y-16463222D01*
X10438515Y-16463222D02*
X10448039Y-16482269D01*
X10448039Y-16482269D02*
X10448039Y-16529888D01*
X10448039Y-16529888D02*
X10438515Y-16548936D01*
X10438515Y-16548936D02*
X10428991Y-16558460D01*
X10428991Y-16558460D02*
X10409944Y-16567984D01*
X10409944Y-16567984D02*
X10352801Y-16567984D01*
X10352801Y-16567984D02*
X10333753Y-16558460D01*
X10333753Y-16558460D02*
X10324229Y-16548936D01*
X10533753Y-16548936D02*
X10543277Y-16558460D01*
X10543277Y-16558460D02*
X10533753Y-16567984D01*
X10533753Y-16567984D02*
X10524229Y-16558460D01*
X10524229Y-16558460D02*
X10533753Y-16548936D01*
X10533753Y-16548936D02*
X10533753Y-16567984D01*
X10667086Y-16367984D02*
X10686134Y-16367984D01*
X10686134Y-16367984D02*
X10705182Y-16377508D01*
X10705182Y-16377508D02*
X10714705Y-16387031D01*
X10714705Y-16387031D02*
X10724229Y-16406079D01*
X10724229Y-16406079D02*
X10733753Y-16444174D01*
X10733753Y-16444174D02*
X10733753Y-16491793D01*
X10733753Y-16491793D02*
X10724229Y-16529888D01*
X10724229Y-16529888D02*
X10714705Y-16548936D01*
X10714705Y-16548936D02*
X10705182Y-16558460D01*
X10705182Y-16558460D02*
X10686134Y-16567984D01*
X10686134Y-16567984D02*
X10667086Y-16567984D01*
X10667086Y-16567984D02*
X10648039Y-16558460D01*
X10648039Y-16558460D02*
X10638515Y-16548936D01*
X10638515Y-16548936D02*
X10628991Y-16529888D01*
X10628991Y-16529888D02*
X10619467Y-16491793D01*
X10619467Y-16491793D02*
X10619467Y-16444174D01*
X10619467Y-16444174D02*
X10628991Y-16406079D01*
X10628991Y-16406079D02*
X10638515Y-16387031D01*
X10638515Y-16387031D02*
X10648039Y-16377508D01*
X10648039Y-16377508D02*
X10667086Y-16367984D01*
X10914705Y-16367984D02*
X10819467Y-16367984D01*
X10819467Y-16367984D02*
X10809944Y-16463222D01*
X10809944Y-16463222D02*
X10819467Y-16453698D01*
X10819467Y-16453698D02*
X10838515Y-16444174D01*
X10838515Y-16444174D02*
X10886134Y-16444174D01*
X10886134Y-16444174D02*
X10905182Y-16453698D01*
X10905182Y-16453698D02*
X10914705Y-16463222D01*
X10914705Y-16463222D02*
X10924229Y-16482269D01*
X10924229Y-16482269D02*
X10924229Y-16529888D01*
X10924229Y-16529888D02*
X10914705Y-16548936D01*
X10914705Y-16548936D02*
X10905182Y-16558460D01*
X10905182Y-16558460D02*
X10886134Y-16567984D01*
X10886134Y-16567984D02*
X10838515Y-16567984D01*
X10838515Y-16567984D02*
X10819467Y-16558460D01*
X10819467Y-16558460D02*
X10809944Y-16548936D01*
X11048039Y-16367984D02*
X11067086Y-16367984D01*
X11067086Y-16367984D02*
X11086134Y-16377508D01*
X11086134Y-16377508D02*
X11095658Y-16387031D01*
X11095658Y-16387031D02*
X11105182Y-16406079D01*
X11105182Y-16406079D02*
X11114705Y-16444174D01*
X11114705Y-16444174D02*
X11114705Y-16491793D01*
X11114705Y-16491793D02*
X11105182Y-16529888D01*
X11105182Y-16529888D02*
X11095658Y-16548936D01*
X11095658Y-16548936D02*
X11086134Y-16558460D01*
X11086134Y-16558460D02*
X11067086Y-16567984D01*
X11067086Y-16567984D02*
X11048039Y-16567984D01*
X11048039Y-16567984D02*
X11028991Y-16558460D01*
X11028991Y-16558460D02*
X11019467Y-16548936D01*
X11019467Y-16548936D02*
X11009944Y-16529888D01*
X11009944Y-16529888D02*
X11000420Y-16491793D01*
X11000420Y-16491793D02*
X11000420Y-16444174D01*
X11000420Y-16444174D02*
X11009944Y-16406079D01*
X11009944Y-16406079D02*
X11019467Y-16387031D01*
X11019467Y-16387031D02*
X11028991Y-16377508D01*
X11028991Y-16377508D02*
X11048039Y-16367984D01*
X11200420Y-16567984D02*
X11200420Y-16434650D01*
X11200420Y-16453698D02*
X11209943Y-16444174D01*
X11209943Y-16444174D02*
X11228991Y-16434650D01*
X11228991Y-16434650D02*
X11257563Y-16434650D01*
X11257563Y-16434650D02*
X11276610Y-16444174D01*
X11276610Y-16444174D02*
X11286134Y-16463222D01*
X11286134Y-16463222D02*
X11286134Y-16567984D01*
X11286134Y-16463222D02*
X11295658Y-16444174D01*
X11295658Y-16444174D02*
X11314705Y-16434650D01*
X11314705Y-16434650D02*
X11343277Y-16434650D01*
X11343277Y-16434650D02*
X11362324Y-16444174D01*
X11362324Y-16444174D02*
X11371848Y-16463222D01*
X11371848Y-16463222D02*
X11371848Y-16567984D01*
X11467086Y-16567984D02*
X11467086Y-16434650D01*
X11467086Y-16453698D02*
X11476610Y-16444174D01*
X11476610Y-16444174D02*
X11495658Y-16434650D01*
X11495658Y-16434650D02*
X11524229Y-16434650D01*
X11524229Y-16434650D02*
X11543277Y-16444174D01*
X11543277Y-16444174D02*
X11552801Y-16463222D01*
X11552801Y-16463222D02*
X11552801Y-16567984D01*
X11552801Y-16463222D02*
X11562324Y-16444174D01*
X11562324Y-16444174D02*
X11581372Y-16434650D01*
X11581372Y-16434650D02*
X11609943Y-16434650D01*
X11609943Y-16434650D02*
X11628991Y-16444174D01*
X11628991Y-16444174D02*
X11638515Y-16463222D01*
X11638515Y-16463222D02*
X11638515Y-16567984D01*
X12028991Y-16358460D02*
X11857563Y-16615603D01*
X12286134Y-16367984D02*
X12305182Y-16367984D01*
X12305182Y-16367984D02*
X12324229Y-16377508D01*
X12324229Y-16377508D02*
X12333753Y-16387031D01*
X12333753Y-16387031D02*
X12343277Y-16406079D01*
X12343277Y-16406079D02*
X12352801Y-16444174D01*
X12352801Y-16444174D02*
X12352801Y-16491793D01*
X12352801Y-16491793D02*
X12343277Y-16529888D01*
X12343277Y-16529888D02*
X12333753Y-16548936D01*
X12333753Y-16548936D02*
X12324229Y-16558460D01*
X12324229Y-16558460D02*
X12305182Y-16567984D01*
X12305182Y-16567984D02*
X12286134Y-16567984D01*
X12286134Y-16567984D02*
X12267086Y-16558460D01*
X12267086Y-16558460D02*
X12257563Y-16548936D01*
X12257563Y-16548936D02*
X12248039Y-16529888D01*
X12248039Y-16529888D02*
X12238515Y-16491793D01*
X12238515Y-16491793D02*
X12238515Y-16444174D01*
X12238515Y-16444174D02*
X12248039Y-16406079D01*
X12248039Y-16406079D02*
X12257563Y-16387031D01*
X12257563Y-16387031D02*
X12267086Y-16377508D01*
X12267086Y-16377508D02*
X12286134Y-16367984D01*
X12438515Y-16548936D02*
X12448039Y-16558460D01*
X12448039Y-16558460D02*
X12438515Y-16567984D01*
X12438515Y-16567984D02*
X12428991Y-16558460D01*
X12428991Y-16558460D02*
X12438515Y-16548936D01*
X12438515Y-16548936D02*
X12438515Y-16567984D01*
X12638515Y-16567984D02*
X12524229Y-16567984D01*
X12581372Y-16567984D02*
X12581372Y-16367984D01*
X12581372Y-16367984D02*
X12562325Y-16396555D01*
X12562325Y-16396555D02*
X12543277Y-16415603D01*
X12543277Y-16415603D02*
X12524229Y-16425127D01*
X12714706Y-16387031D02*
X12724229Y-16377508D01*
X12724229Y-16377508D02*
X12743277Y-16367984D01*
X12743277Y-16367984D02*
X12790896Y-16367984D01*
X12790896Y-16367984D02*
X12809944Y-16377508D01*
X12809944Y-16377508D02*
X12819467Y-16387031D01*
X12819467Y-16387031D02*
X12828991Y-16406079D01*
X12828991Y-16406079D02*
X12828991Y-16425127D01*
X12828991Y-16425127D02*
X12819467Y-16453698D01*
X12819467Y-16453698D02*
X12705182Y-16567984D01*
X12705182Y-16567984D02*
X12828991Y-16567984D01*
X12952801Y-16367984D02*
X12971848Y-16367984D01*
X12971848Y-16367984D02*
X12990896Y-16377508D01*
X12990896Y-16377508D02*
X13000420Y-16387031D01*
X13000420Y-16387031D02*
X13009944Y-16406079D01*
X13009944Y-16406079D02*
X13019467Y-16444174D01*
X13019467Y-16444174D02*
X13019467Y-16491793D01*
X13019467Y-16491793D02*
X13009944Y-16529888D01*
X13009944Y-16529888D02*
X13000420Y-16548936D01*
X13000420Y-16548936D02*
X12990896Y-16558460D01*
X12990896Y-16558460D02*
X12971848Y-16567984D01*
X12971848Y-16567984D02*
X12952801Y-16567984D01*
X12952801Y-16567984D02*
X12933753Y-16558460D01*
X12933753Y-16558460D02*
X12924229Y-16548936D01*
X12924229Y-16548936D02*
X12914706Y-16529888D01*
X12914706Y-16529888D02*
X12905182Y-16491793D01*
X12905182Y-16491793D02*
X12905182Y-16444174D01*
X12905182Y-16444174D02*
X12914706Y-16406079D01*
X12914706Y-16406079D02*
X12924229Y-16387031D01*
X12924229Y-16387031D02*
X12933753Y-16377508D01*
X12933753Y-16377508D02*
X12952801Y-16367984D01*
X13209944Y-16567984D02*
X13095658Y-16567984D01*
X13152801Y-16567984D02*
X13152801Y-16367984D01*
X13152801Y-16367984D02*
X13133753Y-16396555D01*
X13133753Y-16396555D02*
X13114706Y-16415603D01*
X13114706Y-16415603D02*
X13095658Y-16425127D01*
X13286134Y-16367984D02*
X13286134Y-16406079D01*
X13362325Y-16367984D02*
X13362325Y-16406079D01*
X13657563Y-16644174D02*
X13648039Y-16634650D01*
X13648039Y-16634650D02*
X13628991Y-16606079D01*
X13628991Y-16606079D02*
X13619468Y-16587031D01*
X13619468Y-16587031D02*
X13609944Y-16558460D01*
X13609944Y-16558460D02*
X13600420Y-16510841D01*
X13600420Y-16510841D02*
X13600420Y-16472746D01*
X13600420Y-16472746D02*
X13609944Y-16425127D01*
X13609944Y-16425127D02*
X13619468Y-16396555D01*
X13619468Y-16396555D02*
X13628991Y-16377508D01*
X13628991Y-16377508D02*
X13648039Y-16348936D01*
X13648039Y-16348936D02*
X13657563Y-16339412D01*
X13819468Y-16367984D02*
X13781372Y-16367984D01*
X13781372Y-16367984D02*
X13762325Y-16377508D01*
X13762325Y-16377508D02*
X13752801Y-16387031D01*
X13752801Y-16387031D02*
X13733753Y-16415603D01*
X13733753Y-16415603D02*
X13724229Y-16453698D01*
X13724229Y-16453698D02*
X13724229Y-16529888D01*
X13724229Y-16529888D02*
X13733753Y-16548936D01*
X13733753Y-16548936D02*
X13743277Y-16558460D01*
X13743277Y-16558460D02*
X13762325Y-16567984D01*
X13762325Y-16567984D02*
X13800420Y-16567984D01*
X13800420Y-16567984D02*
X13819468Y-16558460D01*
X13819468Y-16558460D02*
X13828991Y-16548936D01*
X13828991Y-16548936D02*
X13838515Y-16529888D01*
X13838515Y-16529888D02*
X13838515Y-16482269D01*
X13838515Y-16482269D02*
X13828991Y-16463222D01*
X13828991Y-16463222D02*
X13819468Y-16453698D01*
X13819468Y-16453698D02*
X13800420Y-16444174D01*
X13800420Y-16444174D02*
X13762325Y-16444174D01*
X13762325Y-16444174D02*
X13743277Y-16453698D01*
X13743277Y-16453698D02*
X13733753Y-16463222D01*
X13733753Y-16463222D02*
X13724229Y-16482269D01*
X14076610Y-16567984D02*
X14076610Y-16367984D01*
X14162325Y-16567984D02*
X14162325Y-16463222D01*
X14162325Y-16463222D02*
X14152801Y-16444174D01*
X14152801Y-16444174D02*
X14133753Y-16434650D01*
X14133753Y-16434650D02*
X14105182Y-16434650D01*
X14105182Y-16434650D02*
X14086134Y-16444174D01*
X14086134Y-16444174D02*
X14076610Y-16453698D01*
X14286134Y-16567984D02*
X14267087Y-16558460D01*
X14267087Y-16558460D02*
X14257563Y-16548936D01*
X14257563Y-16548936D02*
X14248039Y-16529888D01*
X14248039Y-16529888D02*
X14248039Y-16472746D01*
X14248039Y-16472746D02*
X14257563Y-16453698D01*
X14257563Y-16453698D02*
X14267087Y-16444174D01*
X14267087Y-16444174D02*
X14286134Y-16434650D01*
X14286134Y-16434650D02*
X14314706Y-16434650D01*
X14314706Y-16434650D02*
X14333753Y-16444174D01*
X14333753Y-16444174D02*
X14343277Y-16453698D01*
X14343277Y-16453698D02*
X14352801Y-16472746D01*
X14352801Y-16472746D02*
X14352801Y-16529888D01*
X14352801Y-16529888D02*
X14343277Y-16548936D01*
X14343277Y-16548936D02*
X14333753Y-16558460D01*
X14333753Y-16558460D02*
X14314706Y-16567984D01*
X14314706Y-16567984D02*
X14286134Y-16567984D01*
X14467087Y-16567984D02*
X14448039Y-16558460D01*
X14448039Y-16558460D02*
X14438515Y-16539412D01*
X14438515Y-16539412D02*
X14438515Y-16367984D01*
X14619468Y-16558460D02*
X14600420Y-16567984D01*
X14600420Y-16567984D02*
X14562325Y-16567984D01*
X14562325Y-16567984D02*
X14543277Y-16558460D01*
X14543277Y-16558460D02*
X14533753Y-16539412D01*
X14533753Y-16539412D02*
X14533753Y-16463222D01*
X14533753Y-16463222D02*
X14543277Y-16444174D01*
X14543277Y-16444174D02*
X14562325Y-16434650D01*
X14562325Y-16434650D02*
X14600420Y-16434650D01*
X14600420Y-16434650D02*
X14619468Y-16444174D01*
X14619468Y-16444174D02*
X14628991Y-16463222D01*
X14628991Y-16463222D02*
X14628991Y-16482269D01*
X14628991Y-16482269D02*
X14533753Y-16501317D01*
X14705182Y-16558460D02*
X14724230Y-16567984D01*
X14724230Y-16567984D02*
X14762325Y-16567984D01*
X14762325Y-16567984D02*
X14781372Y-16558460D01*
X14781372Y-16558460D02*
X14790896Y-16539412D01*
X14790896Y-16539412D02*
X14790896Y-16529888D01*
X14790896Y-16529888D02*
X14781372Y-16510841D01*
X14781372Y-16510841D02*
X14762325Y-16501317D01*
X14762325Y-16501317D02*
X14733753Y-16501317D01*
X14733753Y-16501317D02*
X14714706Y-16491793D01*
X14714706Y-16491793D02*
X14705182Y-16472746D01*
X14705182Y-16472746D02*
X14705182Y-16463222D01*
X14705182Y-16463222D02*
X14714706Y-16444174D01*
X14714706Y-16444174D02*
X14733753Y-16434650D01*
X14733753Y-16434650D02*
X14762325Y-16434650D01*
X14762325Y-16434650D02*
X14781372Y-16444174D01*
X14857563Y-16644174D02*
X14867087Y-16634650D01*
X14867087Y-16634650D02*
X14886134Y-16606079D01*
X14886134Y-16606079D02*
X14895658Y-16587031D01*
X14895658Y-16587031D02*
X14905182Y-16558460D01*
X14905182Y-16558460D02*
X14914706Y-16510841D01*
X14914706Y-16510841D02*
X14914706Y-16472746D01*
X14914706Y-16472746D02*
X14905182Y-16425127D01*
X14905182Y-16425127D02*
X14895658Y-16396555D01*
X14895658Y-16396555D02*
X14886134Y-16377508D01*
X14886134Y-16377508D02*
X14867087Y-16348936D01*
X14867087Y-16348936D02*
X14857563Y-16339412D01*
X15219468Y-16644174D02*
X15209944Y-16634650D01*
X15209944Y-16634650D02*
X15190896Y-16606079D01*
X15190896Y-16606079D02*
X15181372Y-16587031D01*
X15181372Y-16587031D02*
X15171849Y-16558460D01*
X15171849Y-16558460D02*
X15162325Y-16510841D01*
X15162325Y-16510841D02*
X15162325Y-16472746D01*
X15162325Y-16472746D02*
X15171849Y-16425127D01*
X15171849Y-16425127D02*
X15181372Y-16396555D01*
X15181372Y-16396555D02*
X15190896Y-16377508D01*
X15190896Y-16377508D02*
X15209944Y-16348936D01*
X15209944Y-16348936D02*
X15219468Y-16339412D01*
X15295658Y-16434650D02*
X15295658Y-16567984D01*
X15295658Y-16453698D02*
X15305182Y-16444174D01*
X15305182Y-16444174D02*
X15324230Y-16434650D01*
X15324230Y-16434650D02*
X15352801Y-16434650D01*
X15352801Y-16434650D02*
X15371849Y-16444174D01*
X15371849Y-16444174D02*
X15381372Y-16463222D01*
X15381372Y-16463222D02*
X15381372Y-16567984D01*
X15505182Y-16567984D02*
X15486134Y-16558460D01*
X15486134Y-16558460D02*
X15476611Y-16548936D01*
X15476611Y-16548936D02*
X15467087Y-16529888D01*
X15467087Y-16529888D02*
X15467087Y-16472746D01*
X15467087Y-16472746D02*
X15476611Y-16453698D01*
X15476611Y-16453698D02*
X15486134Y-16444174D01*
X15486134Y-16444174D02*
X15505182Y-16434650D01*
X15505182Y-16434650D02*
X15533753Y-16434650D01*
X15533753Y-16434650D02*
X15552801Y-16444174D01*
X15552801Y-16444174D02*
X15562325Y-16453698D01*
X15562325Y-16453698D02*
X15571849Y-16472746D01*
X15571849Y-16472746D02*
X15571849Y-16529888D01*
X15571849Y-16529888D02*
X15562325Y-16548936D01*
X15562325Y-16548936D02*
X15552801Y-16558460D01*
X15552801Y-16558460D02*
X15533753Y-16567984D01*
X15533753Y-16567984D02*
X15505182Y-16567984D01*
X15628992Y-16434650D02*
X15705182Y-16434650D01*
X15657563Y-16367984D02*
X15657563Y-16539412D01*
X15657563Y-16539412D02*
X15667087Y-16558460D01*
X15667087Y-16558460D02*
X15686134Y-16567984D01*
X15686134Y-16567984D02*
X15705182Y-16567984D01*
X15924230Y-16434650D02*
X15924230Y-16634650D01*
X15924230Y-16444174D02*
X15943277Y-16434650D01*
X15943277Y-16434650D02*
X15981373Y-16434650D01*
X15981373Y-16434650D02*
X16000420Y-16444174D01*
X16000420Y-16444174D02*
X16009944Y-16453698D01*
X16009944Y-16453698D02*
X16019468Y-16472746D01*
X16019468Y-16472746D02*
X16019468Y-16529888D01*
X16019468Y-16529888D02*
X16009944Y-16548936D01*
X16009944Y-16548936D02*
X16000420Y-16558460D01*
X16000420Y-16558460D02*
X15981373Y-16567984D01*
X15981373Y-16567984D02*
X15943277Y-16567984D01*
X15943277Y-16567984D02*
X15924230Y-16558460D01*
X16133753Y-16567984D02*
X16114706Y-16558460D01*
X16114706Y-16558460D02*
X16105182Y-16539412D01*
X16105182Y-16539412D02*
X16105182Y-16367984D01*
X16295658Y-16567984D02*
X16295658Y-16463222D01*
X16295658Y-16463222D02*
X16286134Y-16444174D01*
X16286134Y-16444174D02*
X16267087Y-16434650D01*
X16267087Y-16434650D02*
X16228992Y-16434650D01*
X16228992Y-16434650D02*
X16209944Y-16444174D01*
X16295658Y-16558460D02*
X16276611Y-16567984D01*
X16276611Y-16567984D02*
X16228992Y-16567984D01*
X16228992Y-16567984D02*
X16209944Y-16558460D01*
X16209944Y-16558460D02*
X16200420Y-16539412D01*
X16200420Y-16539412D02*
X16200420Y-16520365D01*
X16200420Y-16520365D02*
X16209944Y-16501317D01*
X16209944Y-16501317D02*
X16228992Y-16491793D01*
X16228992Y-16491793D02*
X16276611Y-16491793D01*
X16276611Y-16491793D02*
X16295658Y-16482269D01*
X16362325Y-16434650D02*
X16438515Y-16434650D01*
X16390896Y-16367984D02*
X16390896Y-16539412D01*
X16390896Y-16539412D02*
X16400420Y-16558460D01*
X16400420Y-16558460D02*
X16419468Y-16567984D01*
X16419468Y-16567984D02*
X16438515Y-16567984D01*
X16581373Y-16558460D02*
X16562325Y-16567984D01*
X16562325Y-16567984D02*
X16524230Y-16567984D01*
X16524230Y-16567984D02*
X16505182Y-16558460D01*
X16505182Y-16558460D02*
X16495658Y-16539412D01*
X16495658Y-16539412D02*
X16495658Y-16463222D01*
X16495658Y-16463222D02*
X16505182Y-16444174D01*
X16505182Y-16444174D02*
X16524230Y-16434650D01*
X16524230Y-16434650D02*
X16562325Y-16434650D01*
X16562325Y-16434650D02*
X16581373Y-16444174D01*
X16581373Y-16444174D02*
X16590896Y-16463222D01*
X16590896Y-16463222D02*
X16590896Y-16482269D01*
X16590896Y-16482269D02*
X16495658Y-16501317D01*
X16762325Y-16567984D02*
X16762325Y-16367984D01*
X16762325Y-16558460D02*
X16743277Y-16567984D01*
X16743277Y-16567984D02*
X16705182Y-16567984D01*
X16705182Y-16567984D02*
X16686134Y-16558460D01*
X16686134Y-16558460D02*
X16676611Y-16548936D01*
X16676611Y-16548936D02*
X16667087Y-16529888D01*
X16667087Y-16529888D02*
X16667087Y-16472746D01*
X16667087Y-16472746D02*
X16676611Y-16453698D01*
X16676611Y-16453698D02*
X16686134Y-16444174D01*
X16686134Y-16444174D02*
X16705182Y-16434650D01*
X16705182Y-16434650D02*
X16743277Y-16434650D01*
X16743277Y-16434650D02*
X16762325Y-16444174D01*
X16838516Y-16644174D02*
X16848039Y-16634650D01*
X16848039Y-16634650D02*
X16867087Y-16606079D01*
X16867087Y-16606079D02*
X16876611Y-16587031D01*
X16876611Y-16587031D02*
X16886135Y-16558460D01*
X16886135Y-16558460D02*
X16895658Y-16510841D01*
X16895658Y-16510841D02*
X16895658Y-16472746D01*
X16895658Y-16472746D02*
X16886135Y-16425127D01*
X16886135Y-16425127D02*
X16876611Y-16396555D01*
X16876611Y-16396555D02*
X16867087Y-16377508D01*
X16867087Y-16377508D02*
X16848039Y-16348936D01*
X16848039Y-16348936D02*
X16838516Y-16339412D01*
X9982500Y-16696500D02*
X9982500Y-16896500D01*
X9882500Y-16796500D02*
X10082500Y-16796500D01*
X10324229Y-16687984D02*
X10448039Y-16687984D01*
X10448039Y-16687984D02*
X10381372Y-16764174D01*
X10381372Y-16764174D02*
X10409944Y-16764174D01*
X10409944Y-16764174D02*
X10428991Y-16773698D01*
X10428991Y-16773698D02*
X10438515Y-16783222D01*
X10438515Y-16783222D02*
X10448039Y-16802270D01*
X10448039Y-16802270D02*
X10448039Y-16849889D01*
X10448039Y-16849889D02*
X10438515Y-16868936D01*
X10438515Y-16868936D02*
X10428991Y-16878460D01*
X10428991Y-16878460D02*
X10409944Y-16887984D01*
X10409944Y-16887984D02*
X10352801Y-16887984D01*
X10352801Y-16887984D02*
X10333753Y-16878460D01*
X10333753Y-16878460D02*
X10324229Y-16868936D01*
X10533753Y-16868936D02*
X10543277Y-16878460D01*
X10543277Y-16878460D02*
X10533753Y-16887984D01*
X10533753Y-16887984D02*
X10524229Y-16878460D01*
X10524229Y-16878460D02*
X10533753Y-16868936D01*
X10533753Y-16868936D02*
X10533753Y-16887984D01*
X10619467Y-16707031D02*
X10628991Y-16697508D01*
X10628991Y-16697508D02*
X10648039Y-16687984D01*
X10648039Y-16687984D02*
X10695658Y-16687984D01*
X10695658Y-16687984D02*
X10714705Y-16697508D01*
X10714705Y-16697508D02*
X10724229Y-16707031D01*
X10724229Y-16707031D02*
X10733753Y-16726079D01*
X10733753Y-16726079D02*
X10733753Y-16745127D01*
X10733753Y-16745127D02*
X10724229Y-16773698D01*
X10724229Y-16773698D02*
X10609944Y-16887984D01*
X10609944Y-16887984D02*
X10733753Y-16887984D01*
X10857563Y-16687984D02*
X10876610Y-16687984D01*
X10876610Y-16687984D02*
X10895658Y-16697508D01*
X10895658Y-16697508D02*
X10905182Y-16707031D01*
X10905182Y-16707031D02*
X10914705Y-16726079D01*
X10914705Y-16726079D02*
X10924229Y-16764174D01*
X10924229Y-16764174D02*
X10924229Y-16811793D01*
X10924229Y-16811793D02*
X10914705Y-16849889D01*
X10914705Y-16849889D02*
X10905182Y-16868936D01*
X10905182Y-16868936D02*
X10895658Y-16878460D01*
X10895658Y-16878460D02*
X10876610Y-16887984D01*
X10876610Y-16887984D02*
X10857563Y-16887984D01*
X10857563Y-16887984D02*
X10838515Y-16878460D01*
X10838515Y-16878460D02*
X10828991Y-16868936D01*
X10828991Y-16868936D02*
X10819467Y-16849889D01*
X10819467Y-16849889D02*
X10809944Y-16811793D01*
X10809944Y-16811793D02*
X10809944Y-16764174D01*
X10809944Y-16764174D02*
X10819467Y-16726079D01*
X10819467Y-16726079D02*
X10828991Y-16707031D01*
X10828991Y-16707031D02*
X10838515Y-16697508D01*
X10838515Y-16697508D02*
X10857563Y-16687984D01*
X11048039Y-16687984D02*
X11067086Y-16687984D01*
X11067086Y-16687984D02*
X11086134Y-16697508D01*
X11086134Y-16697508D02*
X11095658Y-16707031D01*
X11095658Y-16707031D02*
X11105182Y-16726079D01*
X11105182Y-16726079D02*
X11114705Y-16764174D01*
X11114705Y-16764174D02*
X11114705Y-16811793D01*
X11114705Y-16811793D02*
X11105182Y-16849889D01*
X11105182Y-16849889D02*
X11095658Y-16868936D01*
X11095658Y-16868936D02*
X11086134Y-16878460D01*
X11086134Y-16878460D02*
X11067086Y-16887984D01*
X11067086Y-16887984D02*
X11048039Y-16887984D01*
X11048039Y-16887984D02*
X11028991Y-16878460D01*
X11028991Y-16878460D02*
X11019467Y-16868936D01*
X11019467Y-16868936D02*
X11009944Y-16849889D01*
X11009944Y-16849889D02*
X11000420Y-16811793D01*
X11000420Y-16811793D02*
X11000420Y-16764174D01*
X11000420Y-16764174D02*
X11009944Y-16726079D01*
X11009944Y-16726079D02*
X11019467Y-16707031D01*
X11019467Y-16707031D02*
X11028991Y-16697508D01*
X11028991Y-16697508D02*
X11048039Y-16687984D01*
X11200420Y-16887984D02*
X11200420Y-16754650D01*
X11200420Y-16773698D02*
X11209943Y-16764174D01*
X11209943Y-16764174D02*
X11228991Y-16754650D01*
X11228991Y-16754650D02*
X11257563Y-16754650D01*
X11257563Y-16754650D02*
X11276610Y-16764174D01*
X11276610Y-16764174D02*
X11286134Y-16783222D01*
X11286134Y-16783222D02*
X11286134Y-16887984D01*
X11286134Y-16783222D02*
X11295658Y-16764174D01*
X11295658Y-16764174D02*
X11314705Y-16754650D01*
X11314705Y-16754650D02*
X11343277Y-16754650D01*
X11343277Y-16754650D02*
X11362324Y-16764174D01*
X11362324Y-16764174D02*
X11371848Y-16783222D01*
X11371848Y-16783222D02*
X11371848Y-16887984D01*
X11467086Y-16887984D02*
X11467086Y-16754650D01*
X11467086Y-16773698D02*
X11476610Y-16764174D01*
X11476610Y-16764174D02*
X11495658Y-16754650D01*
X11495658Y-16754650D02*
X11524229Y-16754650D01*
X11524229Y-16754650D02*
X11543277Y-16764174D01*
X11543277Y-16764174D02*
X11552801Y-16783222D01*
X11552801Y-16783222D02*
X11552801Y-16887984D01*
X11552801Y-16783222D02*
X11562324Y-16764174D01*
X11562324Y-16764174D02*
X11581372Y-16754650D01*
X11581372Y-16754650D02*
X11609943Y-16754650D01*
X11609943Y-16754650D02*
X11628991Y-16764174D01*
X11628991Y-16764174D02*
X11638515Y-16783222D01*
X11638515Y-16783222D02*
X11638515Y-16887984D01*
X12028991Y-16678460D02*
X11857563Y-16935603D01*
X12286134Y-16687984D02*
X12305182Y-16687984D01*
X12305182Y-16687984D02*
X12324229Y-16697508D01*
X12324229Y-16697508D02*
X12333753Y-16707031D01*
X12333753Y-16707031D02*
X12343277Y-16726079D01*
X12343277Y-16726079D02*
X12352801Y-16764174D01*
X12352801Y-16764174D02*
X12352801Y-16811793D01*
X12352801Y-16811793D02*
X12343277Y-16849889D01*
X12343277Y-16849889D02*
X12333753Y-16868936D01*
X12333753Y-16868936D02*
X12324229Y-16878460D01*
X12324229Y-16878460D02*
X12305182Y-16887984D01*
X12305182Y-16887984D02*
X12286134Y-16887984D01*
X12286134Y-16887984D02*
X12267086Y-16878460D01*
X12267086Y-16878460D02*
X12257563Y-16868936D01*
X12257563Y-16868936D02*
X12248039Y-16849889D01*
X12248039Y-16849889D02*
X12238515Y-16811793D01*
X12238515Y-16811793D02*
X12238515Y-16764174D01*
X12238515Y-16764174D02*
X12248039Y-16726079D01*
X12248039Y-16726079D02*
X12257563Y-16707031D01*
X12257563Y-16707031D02*
X12267086Y-16697508D01*
X12267086Y-16697508D02*
X12286134Y-16687984D01*
X12438515Y-16868936D02*
X12448039Y-16878460D01*
X12448039Y-16878460D02*
X12438515Y-16887984D01*
X12438515Y-16887984D02*
X12428991Y-16878460D01*
X12428991Y-16878460D02*
X12438515Y-16868936D01*
X12438515Y-16868936D02*
X12438515Y-16887984D01*
X12638515Y-16887984D02*
X12524229Y-16887984D01*
X12581372Y-16887984D02*
X12581372Y-16687984D01*
X12581372Y-16687984D02*
X12562325Y-16716555D01*
X12562325Y-16716555D02*
X12543277Y-16735603D01*
X12543277Y-16735603D02*
X12524229Y-16745127D01*
X12714706Y-16707031D02*
X12724229Y-16697508D01*
X12724229Y-16697508D02*
X12743277Y-16687984D01*
X12743277Y-16687984D02*
X12790896Y-16687984D01*
X12790896Y-16687984D02*
X12809944Y-16697508D01*
X12809944Y-16697508D02*
X12819467Y-16707031D01*
X12819467Y-16707031D02*
X12828991Y-16726079D01*
X12828991Y-16726079D02*
X12828991Y-16745127D01*
X12828991Y-16745127D02*
X12819467Y-16773698D01*
X12819467Y-16773698D02*
X12705182Y-16887984D01*
X12705182Y-16887984D02*
X12828991Y-16887984D01*
X13000420Y-16687984D02*
X12962325Y-16687984D01*
X12962325Y-16687984D02*
X12943277Y-16697508D01*
X12943277Y-16697508D02*
X12933753Y-16707031D01*
X12933753Y-16707031D02*
X12914706Y-16735603D01*
X12914706Y-16735603D02*
X12905182Y-16773698D01*
X12905182Y-16773698D02*
X12905182Y-16849889D01*
X12905182Y-16849889D02*
X12914706Y-16868936D01*
X12914706Y-16868936D02*
X12924229Y-16878460D01*
X12924229Y-16878460D02*
X12943277Y-16887984D01*
X12943277Y-16887984D02*
X12981372Y-16887984D01*
X12981372Y-16887984D02*
X13000420Y-16878460D01*
X13000420Y-16878460D02*
X13009944Y-16868936D01*
X13009944Y-16868936D02*
X13019467Y-16849889D01*
X13019467Y-16849889D02*
X13019467Y-16802270D01*
X13019467Y-16802270D02*
X13009944Y-16783222D01*
X13009944Y-16783222D02*
X13000420Y-16773698D01*
X13000420Y-16773698D02*
X12981372Y-16764174D01*
X12981372Y-16764174D02*
X12943277Y-16764174D01*
X12943277Y-16764174D02*
X12924229Y-16773698D01*
X12924229Y-16773698D02*
X12914706Y-16783222D01*
X12914706Y-16783222D02*
X12905182Y-16802270D01*
X13143277Y-16687984D02*
X13162325Y-16687984D01*
X13162325Y-16687984D02*
X13181372Y-16697508D01*
X13181372Y-16697508D02*
X13190896Y-16707031D01*
X13190896Y-16707031D02*
X13200420Y-16726079D01*
X13200420Y-16726079D02*
X13209944Y-16764174D01*
X13209944Y-16764174D02*
X13209944Y-16811793D01*
X13209944Y-16811793D02*
X13200420Y-16849889D01*
X13200420Y-16849889D02*
X13190896Y-16868936D01*
X13190896Y-16868936D02*
X13181372Y-16878460D01*
X13181372Y-16878460D02*
X13162325Y-16887984D01*
X13162325Y-16887984D02*
X13143277Y-16887984D01*
X13143277Y-16887984D02*
X13124229Y-16878460D01*
X13124229Y-16878460D02*
X13114706Y-16868936D01*
X13114706Y-16868936D02*
X13105182Y-16849889D01*
X13105182Y-16849889D02*
X13095658Y-16811793D01*
X13095658Y-16811793D02*
X13095658Y-16764174D01*
X13095658Y-16764174D02*
X13105182Y-16726079D01*
X13105182Y-16726079D02*
X13114706Y-16707031D01*
X13114706Y-16707031D02*
X13124229Y-16697508D01*
X13124229Y-16697508D02*
X13143277Y-16687984D01*
X13286134Y-16687984D02*
X13286134Y-16726079D01*
X13362325Y-16687984D02*
X13362325Y-16726079D01*
X13657563Y-16964174D02*
X13648039Y-16954650D01*
X13648039Y-16954650D02*
X13628991Y-16926079D01*
X13628991Y-16926079D02*
X13619468Y-16907031D01*
X13619468Y-16907031D02*
X13609944Y-16878460D01*
X13609944Y-16878460D02*
X13600420Y-16830841D01*
X13600420Y-16830841D02*
X13600420Y-16792746D01*
X13600420Y-16792746D02*
X13609944Y-16745127D01*
X13609944Y-16745127D02*
X13619468Y-16716555D01*
X13619468Y-16716555D02*
X13628991Y-16697508D01*
X13628991Y-16697508D02*
X13648039Y-16668936D01*
X13648039Y-16668936D02*
X13657563Y-16659412D01*
X13828991Y-16687984D02*
X13733753Y-16687984D01*
X13733753Y-16687984D02*
X13724229Y-16783222D01*
X13724229Y-16783222D02*
X13733753Y-16773698D01*
X13733753Y-16773698D02*
X13752801Y-16764174D01*
X13752801Y-16764174D02*
X13800420Y-16764174D01*
X13800420Y-16764174D02*
X13819468Y-16773698D01*
X13819468Y-16773698D02*
X13828991Y-16783222D01*
X13828991Y-16783222D02*
X13838515Y-16802270D01*
X13838515Y-16802270D02*
X13838515Y-16849889D01*
X13838515Y-16849889D02*
X13828991Y-16868936D01*
X13828991Y-16868936D02*
X13819468Y-16878460D01*
X13819468Y-16878460D02*
X13800420Y-16887984D01*
X13800420Y-16887984D02*
X13752801Y-16887984D01*
X13752801Y-16887984D02*
X13733753Y-16878460D01*
X13733753Y-16878460D02*
X13724229Y-16868936D01*
X14076610Y-16887984D02*
X14076610Y-16687984D01*
X14162325Y-16887984D02*
X14162325Y-16783222D01*
X14162325Y-16783222D02*
X14152801Y-16764174D01*
X14152801Y-16764174D02*
X14133753Y-16754650D01*
X14133753Y-16754650D02*
X14105182Y-16754650D01*
X14105182Y-16754650D02*
X14086134Y-16764174D01*
X14086134Y-16764174D02*
X14076610Y-16773698D01*
X14286134Y-16887984D02*
X14267087Y-16878460D01*
X14267087Y-16878460D02*
X14257563Y-16868936D01*
X14257563Y-16868936D02*
X14248039Y-16849889D01*
X14248039Y-16849889D02*
X14248039Y-16792746D01*
X14248039Y-16792746D02*
X14257563Y-16773698D01*
X14257563Y-16773698D02*
X14267087Y-16764174D01*
X14267087Y-16764174D02*
X14286134Y-16754650D01*
X14286134Y-16754650D02*
X14314706Y-16754650D01*
X14314706Y-16754650D02*
X14333753Y-16764174D01*
X14333753Y-16764174D02*
X14343277Y-16773698D01*
X14343277Y-16773698D02*
X14352801Y-16792746D01*
X14352801Y-16792746D02*
X14352801Y-16849889D01*
X14352801Y-16849889D02*
X14343277Y-16868936D01*
X14343277Y-16868936D02*
X14333753Y-16878460D01*
X14333753Y-16878460D02*
X14314706Y-16887984D01*
X14314706Y-16887984D02*
X14286134Y-16887984D01*
X14467087Y-16887984D02*
X14448039Y-16878460D01*
X14448039Y-16878460D02*
X14438515Y-16859412D01*
X14438515Y-16859412D02*
X14438515Y-16687984D01*
X14619468Y-16878460D02*
X14600420Y-16887984D01*
X14600420Y-16887984D02*
X14562325Y-16887984D01*
X14562325Y-16887984D02*
X14543277Y-16878460D01*
X14543277Y-16878460D02*
X14533753Y-16859412D01*
X14533753Y-16859412D02*
X14533753Y-16783222D01*
X14533753Y-16783222D02*
X14543277Y-16764174D01*
X14543277Y-16764174D02*
X14562325Y-16754650D01*
X14562325Y-16754650D02*
X14600420Y-16754650D01*
X14600420Y-16754650D02*
X14619468Y-16764174D01*
X14619468Y-16764174D02*
X14628991Y-16783222D01*
X14628991Y-16783222D02*
X14628991Y-16802270D01*
X14628991Y-16802270D02*
X14533753Y-16821317D01*
X14705182Y-16878460D02*
X14724230Y-16887984D01*
X14724230Y-16887984D02*
X14762325Y-16887984D01*
X14762325Y-16887984D02*
X14781372Y-16878460D01*
X14781372Y-16878460D02*
X14790896Y-16859412D01*
X14790896Y-16859412D02*
X14790896Y-16849889D01*
X14790896Y-16849889D02*
X14781372Y-16830841D01*
X14781372Y-16830841D02*
X14762325Y-16821317D01*
X14762325Y-16821317D02*
X14733753Y-16821317D01*
X14733753Y-16821317D02*
X14714706Y-16811793D01*
X14714706Y-16811793D02*
X14705182Y-16792746D01*
X14705182Y-16792746D02*
X14705182Y-16783222D01*
X14705182Y-16783222D02*
X14714706Y-16764174D01*
X14714706Y-16764174D02*
X14733753Y-16754650D01*
X14733753Y-16754650D02*
X14762325Y-16754650D01*
X14762325Y-16754650D02*
X14781372Y-16764174D01*
X14857563Y-16964174D02*
X14867087Y-16954650D01*
X14867087Y-16954650D02*
X14886134Y-16926079D01*
X14886134Y-16926079D02*
X14895658Y-16907031D01*
X14895658Y-16907031D02*
X14905182Y-16878460D01*
X14905182Y-16878460D02*
X14914706Y-16830841D01*
X14914706Y-16830841D02*
X14914706Y-16792746D01*
X14914706Y-16792746D02*
X14905182Y-16745127D01*
X14905182Y-16745127D02*
X14895658Y-16716555D01*
X14895658Y-16716555D02*
X14886134Y-16697508D01*
X14886134Y-16697508D02*
X14867087Y-16668936D01*
X14867087Y-16668936D02*
X14857563Y-16659412D01*
X15219468Y-16964174D02*
X15209944Y-16954650D01*
X15209944Y-16954650D02*
X15190896Y-16926079D01*
X15190896Y-16926079D02*
X15181372Y-16907031D01*
X15181372Y-16907031D02*
X15171849Y-16878460D01*
X15171849Y-16878460D02*
X15162325Y-16830841D01*
X15162325Y-16830841D02*
X15162325Y-16792746D01*
X15162325Y-16792746D02*
X15171849Y-16745127D01*
X15171849Y-16745127D02*
X15181372Y-16716555D01*
X15181372Y-16716555D02*
X15190896Y-16697508D01*
X15190896Y-16697508D02*
X15209944Y-16668936D01*
X15209944Y-16668936D02*
X15219468Y-16659412D01*
X15295658Y-16754650D02*
X15295658Y-16887984D01*
X15295658Y-16773698D02*
X15305182Y-16764174D01*
X15305182Y-16764174D02*
X15324230Y-16754650D01*
X15324230Y-16754650D02*
X15352801Y-16754650D01*
X15352801Y-16754650D02*
X15371849Y-16764174D01*
X15371849Y-16764174D02*
X15381372Y-16783222D01*
X15381372Y-16783222D02*
X15381372Y-16887984D01*
X15505182Y-16887984D02*
X15486134Y-16878460D01*
X15486134Y-16878460D02*
X15476611Y-16868936D01*
X15476611Y-16868936D02*
X15467087Y-16849889D01*
X15467087Y-16849889D02*
X15467087Y-16792746D01*
X15467087Y-16792746D02*
X15476611Y-16773698D01*
X15476611Y-16773698D02*
X15486134Y-16764174D01*
X15486134Y-16764174D02*
X15505182Y-16754650D01*
X15505182Y-16754650D02*
X15533753Y-16754650D01*
X15533753Y-16754650D02*
X15552801Y-16764174D01*
X15552801Y-16764174D02*
X15562325Y-16773698D01*
X15562325Y-16773698D02*
X15571849Y-16792746D01*
X15571849Y-16792746D02*
X15571849Y-16849889D01*
X15571849Y-16849889D02*
X15562325Y-16868936D01*
X15562325Y-16868936D02*
X15552801Y-16878460D01*
X15552801Y-16878460D02*
X15533753Y-16887984D01*
X15533753Y-16887984D02*
X15505182Y-16887984D01*
X15628992Y-16754650D02*
X15705182Y-16754650D01*
X15657563Y-16687984D02*
X15657563Y-16859412D01*
X15657563Y-16859412D02*
X15667087Y-16878460D01*
X15667087Y-16878460D02*
X15686134Y-16887984D01*
X15686134Y-16887984D02*
X15705182Y-16887984D01*
X15924230Y-16754650D02*
X15924230Y-16954650D01*
X15924230Y-16764174D02*
X15943277Y-16754650D01*
X15943277Y-16754650D02*
X15981373Y-16754650D01*
X15981373Y-16754650D02*
X16000420Y-16764174D01*
X16000420Y-16764174D02*
X16009944Y-16773698D01*
X16009944Y-16773698D02*
X16019468Y-16792746D01*
X16019468Y-16792746D02*
X16019468Y-16849889D01*
X16019468Y-16849889D02*
X16009944Y-16868936D01*
X16009944Y-16868936D02*
X16000420Y-16878460D01*
X16000420Y-16878460D02*
X15981373Y-16887984D01*
X15981373Y-16887984D02*
X15943277Y-16887984D01*
X15943277Y-16887984D02*
X15924230Y-16878460D01*
X16133753Y-16887984D02*
X16114706Y-16878460D01*
X16114706Y-16878460D02*
X16105182Y-16859412D01*
X16105182Y-16859412D02*
X16105182Y-16687984D01*
X16295658Y-16887984D02*
X16295658Y-16783222D01*
X16295658Y-16783222D02*
X16286134Y-16764174D01*
X16286134Y-16764174D02*
X16267087Y-16754650D01*
X16267087Y-16754650D02*
X16228992Y-16754650D01*
X16228992Y-16754650D02*
X16209944Y-16764174D01*
X16295658Y-16878460D02*
X16276611Y-16887984D01*
X16276611Y-16887984D02*
X16228992Y-16887984D01*
X16228992Y-16887984D02*
X16209944Y-16878460D01*
X16209944Y-16878460D02*
X16200420Y-16859412D01*
X16200420Y-16859412D02*
X16200420Y-16840365D01*
X16200420Y-16840365D02*
X16209944Y-16821317D01*
X16209944Y-16821317D02*
X16228992Y-16811793D01*
X16228992Y-16811793D02*
X16276611Y-16811793D01*
X16276611Y-16811793D02*
X16295658Y-16802270D01*
X16362325Y-16754650D02*
X16438515Y-16754650D01*
X16390896Y-16687984D02*
X16390896Y-16859412D01*
X16390896Y-16859412D02*
X16400420Y-16878460D01*
X16400420Y-16878460D02*
X16419468Y-16887984D01*
X16419468Y-16887984D02*
X16438515Y-16887984D01*
X16581373Y-16878460D02*
X16562325Y-16887984D01*
X16562325Y-16887984D02*
X16524230Y-16887984D01*
X16524230Y-16887984D02*
X16505182Y-16878460D01*
X16505182Y-16878460D02*
X16495658Y-16859412D01*
X16495658Y-16859412D02*
X16495658Y-16783222D01*
X16495658Y-16783222D02*
X16505182Y-16764174D01*
X16505182Y-16764174D02*
X16524230Y-16754650D01*
X16524230Y-16754650D02*
X16562325Y-16754650D01*
X16562325Y-16754650D02*
X16581373Y-16764174D01*
X16581373Y-16764174D02*
X16590896Y-16783222D01*
X16590896Y-16783222D02*
X16590896Y-16802270D01*
X16590896Y-16802270D02*
X16495658Y-16821317D01*
X16762325Y-16887984D02*
X16762325Y-16687984D01*
X16762325Y-16878460D02*
X16743277Y-16887984D01*
X16743277Y-16887984D02*
X16705182Y-16887984D01*
X16705182Y-16887984D02*
X16686134Y-16878460D01*
X16686134Y-16878460D02*
X16676611Y-16868936D01*
X16676611Y-16868936D02*
X16667087Y-16849889D01*
X16667087Y-16849889D02*
X16667087Y-16792746D01*
X16667087Y-16792746D02*
X16676611Y-16773698D01*
X16676611Y-16773698D02*
X16686134Y-16764174D01*
X16686134Y-16764174D02*
X16705182Y-16754650D01*
X16705182Y-16754650D02*
X16743277Y-16754650D01*
X16743277Y-16754650D02*
X16762325Y-16764174D01*
X16838516Y-16964174D02*
X16848039Y-16954650D01*
X16848039Y-16954650D02*
X16867087Y-16926079D01*
X16867087Y-16926079D02*
X16876611Y-16907031D01*
X16876611Y-16907031D02*
X16886135Y-16878460D01*
X16886135Y-16878460D02*
X16895658Y-16830841D01*
X16895658Y-16830841D02*
X16895658Y-16792746D01*
X16895658Y-16792746D02*
X16886135Y-16745127D01*
X16886135Y-16745127D02*
X16876611Y-16716555D01*
X16876611Y-16716555D02*
X16867087Y-16697508D01*
X16867087Y-16697508D02*
X16848039Y-16668936D01*
X16848039Y-16668936D02*
X16838516Y-16659412D01*
X10053211Y-17187211D02*
X10053211Y-17045789D01*
X9911789Y-17045789D01*
X9911789Y-17187211D01*
X10053211Y-17187211D01*
X10428991Y-17074650D02*
X10428991Y-17207984D01*
X10381372Y-16998460D02*
X10333753Y-17141317D01*
X10333753Y-17141317D02*
X10457563Y-17141317D01*
X10533753Y-17188936D02*
X10543277Y-17198460D01*
X10543277Y-17198460D02*
X10533753Y-17207984D01*
X10533753Y-17207984D02*
X10524229Y-17198460D01*
X10524229Y-17198460D02*
X10533753Y-17188936D01*
X10533753Y-17188936D02*
X10533753Y-17207984D01*
X10667086Y-17007984D02*
X10686134Y-17007984D01*
X10686134Y-17007984D02*
X10705182Y-17017508D01*
X10705182Y-17017508D02*
X10714705Y-17027031D01*
X10714705Y-17027031D02*
X10724229Y-17046079D01*
X10724229Y-17046079D02*
X10733753Y-17084174D01*
X10733753Y-17084174D02*
X10733753Y-17131793D01*
X10733753Y-17131793D02*
X10724229Y-17169889D01*
X10724229Y-17169889D02*
X10714705Y-17188936D01*
X10714705Y-17188936D02*
X10705182Y-17198460D01*
X10705182Y-17198460D02*
X10686134Y-17207984D01*
X10686134Y-17207984D02*
X10667086Y-17207984D01*
X10667086Y-17207984D02*
X10648039Y-17198460D01*
X10648039Y-17198460D02*
X10638515Y-17188936D01*
X10638515Y-17188936D02*
X10628991Y-17169889D01*
X10628991Y-17169889D02*
X10619467Y-17131793D01*
X10619467Y-17131793D02*
X10619467Y-17084174D01*
X10619467Y-17084174D02*
X10628991Y-17046079D01*
X10628991Y-17046079D02*
X10638515Y-17027031D01*
X10638515Y-17027031D02*
X10648039Y-17017508D01*
X10648039Y-17017508D02*
X10667086Y-17007984D01*
X10857563Y-17007984D02*
X10876610Y-17007984D01*
X10876610Y-17007984D02*
X10895658Y-17017508D01*
X10895658Y-17017508D02*
X10905182Y-17027031D01*
X10905182Y-17027031D02*
X10914705Y-17046079D01*
X10914705Y-17046079D02*
X10924229Y-17084174D01*
X10924229Y-17084174D02*
X10924229Y-17131793D01*
X10924229Y-17131793D02*
X10914705Y-17169889D01*
X10914705Y-17169889D02*
X10905182Y-17188936D01*
X10905182Y-17188936D02*
X10895658Y-17198460D01*
X10895658Y-17198460D02*
X10876610Y-17207984D01*
X10876610Y-17207984D02*
X10857563Y-17207984D01*
X10857563Y-17207984D02*
X10838515Y-17198460D01*
X10838515Y-17198460D02*
X10828991Y-17188936D01*
X10828991Y-17188936D02*
X10819467Y-17169889D01*
X10819467Y-17169889D02*
X10809944Y-17131793D01*
X10809944Y-17131793D02*
X10809944Y-17084174D01*
X10809944Y-17084174D02*
X10819467Y-17046079D01*
X10819467Y-17046079D02*
X10828991Y-17027031D01*
X10828991Y-17027031D02*
X10838515Y-17017508D01*
X10838515Y-17017508D02*
X10857563Y-17007984D01*
X11048039Y-17007984D02*
X11067086Y-17007984D01*
X11067086Y-17007984D02*
X11086134Y-17017508D01*
X11086134Y-17017508D02*
X11095658Y-17027031D01*
X11095658Y-17027031D02*
X11105182Y-17046079D01*
X11105182Y-17046079D02*
X11114705Y-17084174D01*
X11114705Y-17084174D02*
X11114705Y-17131793D01*
X11114705Y-17131793D02*
X11105182Y-17169889D01*
X11105182Y-17169889D02*
X11095658Y-17188936D01*
X11095658Y-17188936D02*
X11086134Y-17198460D01*
X11086134Y-17198460D02*
X11067086Y-17207984D01*
X11067086Y-17207984D02*
X11048039Y-17207984D01*
X11048039Y-17207984D02*
X11028991Y-17198460D01*
X11028991Y-17198460D02*
X11019467Y-17188936D01*
X11019467Y-17188936D02*
X11009944Y-17169889D01*
X11009944Y-17169889D02*
X11000420Y-17131793D01*
X11000420Y-17131793D02*
X11000420Y-17084174D01*
X11000420Y-17084174D02*
X11009944Y-17046079D01*
X11009944Y-17046079D02*
X11019467Y-17027031D01*
X11019467Y-17027031D02*
X11028991Y-17017508D01*
X11028991Y-17017508D02*
X11048039Y-17007984D01*
X11200420Y-17207984D02*
X11200420Y-17074650D01*
X11200420Y-17093698D02*
X11209943Y-17084174D01*
X11209943Y-17084174D02*
X11228991Y-17074650D01*
X11228991Y-17074650D02*
X11257563Y-17074650D01*
X11257563Y-17074650D02*
X11276610Y-17084174D01*
X11276610Y-17084174D02*
X11286134Y-17103222D01*
X11286134Y-17103222D02*
X11286134Y-17207984D01*
X11286134Y-17103222D02*
X11295658Y-17084174D01*
X11295658Y-17084174D02*
X11314705Y-17074650D01*
X11314705Y-17074650D02*
X11343277Y-17074650D01*
X11343277Y-17074650D02*
X11362324Y-17084174D01*
X11362324Y-17084174D02*
X11371848Y-17103222D01*
X11371848Y-17103222D02*
X11371848Y-17207984D01*
X11467086Y-17207984D02*
X11467086Y-17074650D01*
X11467086Y-17093698D02*
X11476610Y-17084174D01*
X11476610Y-17084174D02*
X11495658Y-17074650D01*
X11495658Y-17074650D02*
X11524229Y-17074650D01*
X11524229Y-17074650D02*
X11543277Y-17084174D01*
X11543277Y-17084174D02*
X11552801Y-17103222D01*
X11552801Y-17103222D02*
X11552801Y-17207984D01*
X11552801Y-17103222D02*
X11562324Y-17084174D01*
X11562324Y-17084174D02*
X11581372Y-17074650D01*
X11581372Y-17074650D02*
X11609943Y-17074650D01*
X11609943Y-17074650D02*
X11628991Y-17084174D01*
X11628991Y-17084174D02*
X11638515Y-17103222D01*
X11638515Y-17103222D02*
X11638515Y-17207984D01*
X12028991Y-16998460D02*
X11857563Y-17255603D01*
X12286134Y-17007984D02*
X12305182Y-17007984D01*
X12305182Y-17007984D02*
X12324229Y-17017508D01*
X12324229Y-17017508D02*
X12333753Y-17027031D01*
X12333753Y-17027031D02*
X12343277Y-17046079D01*
X12343277Y-17046079D02*
X12352801Y-17084174D01*
X12352801Y-17084174D02*
X12352801Y-17131793D01*
X12352801Y-17131793D02*
X12343277Y-17169889D01*
X12343277Y-17169889D02*
X12333753Y-17188936D01*
X12333753Y-17188936D02*
X12324229Y-17198460D01*
X12324229Y-17198460D02*
X12305182Y-17207984D01*
X12305182Y-17207984D02*
X12286134Y-17207984D01*
X12286134Y-17207984D02*
X12267086Y-17198460D01*
X12267086Y-17198460D02*
X12257563Y-17188936D01*
X12257563Y-17188936D02*
X12248039Y-17169889D01*
X12248039Y-17169889D02*
X12238515Y-17131793D01*
X12238515Y-17131793D02*
X12238515Y-17084174D01*
X12238515Y-17084174D02*
X12248039Y-17046079D01*
X12248039Y-17046079D02*
X12257563Y-17027031D01*
X12257563Y-17027031D02*
X12267086Y-17017508D01*
X12267086Y-17017508D02*
X12286134Y-17007984D01*
X12438515Y-17188936D02*
X12448039Y-17198460D01*
X12448039Y-17198460D02*
X12438515Y-17207984D01*
X12438515Y-17207984D02*
X12428991Y-17198460D01*
X12428991Y-17198460D02*
X12438515Y-17188936D01*
X12438515Y-17188936D02*
X12438515Y-17207984D01*
X12638515Y-17207984D02*
X12524229Y-17207984D01*
X12581372Y-17207984D02*
X12581372Y-17007984D01*
X12581372Y-17007984D02*
X12562325Y-17036555D01*
X12562325Y-17036555D02*
X12543277Y-17055603D01*
X12543277Y-17055603D02*
X12524229Y-17065127D01*
X12819467Y-17007984D02*
X12724229Y-17007984D01*
X12724229Y-17007984D02*
X12714706Y-17103222D01*
X12714706Y-17103222D02*
X12724229Y-17093698D01*
X12724229Y-17093698D02*
X12743277Y-17084174D01*
X12743277Y-17084174D02*
X12790896Y-17084174D01*
X12790896Y-17084174D02*
X12809944Y-17093698D01*
X12809944Y-17093698D02*
X12819467Y-17103222D01*
X12819467Y-17103222D02*
X12828991Y-17122270D01*
X12828991Y-17122270D02*
X12828991Y-17169889D01*
X12828991Y-17169889D02*
X12819467Y-17188936D01*
X12819467Y-17188936D02*
X12809944Y-17198460D01*
X12809944Y-17198460D02*
X12790896Y-17207984D01*
X12790896Y-17207984D02*
X12743277Y-17207984D01*
X12743277Y-17207984D02*
X12724229Y-17198460D01*
X12724229Y-17198460D02*
X12714706Y-17188936D01*
X12895658Y-17007984D02*
X13028991Y-17007984D01*
X13028991Y-17007984D02*
X12943277Y-17207984D01*
X13200420Y-17007984D02*
X13105182Y-17007984D01*
X13105182Y-17007984D02*
X13095658Y-17103222D01*
X13095658Y-17103222D02*
X13105182Y-17093698D01*
X13105182Y-17093698D02*
X13124229Y-17084174D01*
X13124229Y-17084174D02*
X13171848Y-17084174D01*
X13171848Y-17084174D02*
X13190896Y-17093698D01*
X13190896Y-17093698D02*
X13200420Y-17103222D01*
X13200420Y-17103222D02*
X13209944Y-17122270D01*
X13209944Y-17122270D02*
X13209944Y-17169889D01*
X13209944Y-17169889D02*
X13200420Y-17188936D01*
X13200420Y-17188936D02*
X13190896Y-17198460D01*
X13190896Y-17198460D02*
X13171848Y-17207984D01*
X13171848Y-17207984D02*
X13124229Y-17207984D01*
X13124229Y-17207984D02*
X13105182Y-17198460D01*
X13105182Y-17198460D02*
X13095658Y-17188936D01*
X13286134Y-17007984D02*
X13286134Y-17046079D01*
X13362325Y-17007984D02*
X13362325Y-17046079D01*
X13657563Y-17284174D02*
X13648039Y-17274650D01*
X13648039Y-17274650D02*
X13628991Y-17246079D01*
X13628991Y-17246079D02*
X13619468Y-17227031D01*
X13619468Y-17227031D02*
X13609944Y-17198460D01*
X13609944Y-17198460D02*
X13600420Y-17150841D01*
X13600420Y-17150841D02*
X13600420Y-17112746D01*
X13600420Y-17112746D02*
X13609944Y-17065127D01*
X13609944Y-17065127D02*
X13619468Y-17036555D01*
X13619468Y-17036555D02*
X13628991Y-17017508D01*
X13628991Y-17017508D02*
X13648039Y-16988936D01*
X13648039Y-16988936D02*
X13657563Y-16979412D01*
X13724229Y-17027031D02*
X13733753Y-17017508D01*
X13733753Y-17017508D02*
X13752801Y-17007984D01*
X13752801Y-17007984D02*
X13800420Y-17007984D01*
X13800420Y-17007984D02*
X13819468Y-17017508D01*
X13819468Y-17017508D02*
X13828991Y-17027031D01*
X13828991Y-17027031D02*
X13838515Y-17046079D01*
X13838515Y-17046079D02*
X13838515Y-17065127D01*
X13838515Y-17065127D02*
X13828991Y-17093698D01*
X13828991Y-17093698D02*
X13714706Y-17207984D01*
X13714706Y-17207984D02*
X13838515Y-17207984D01*
X13933753Y-17207984D02*
X13971848Y-17207984D01*
X13971848Y-17207984D02*
X13990896Y-17198460D01*
X13990896Y-17198460D02*
X14000420Y-17188936D01*
X14000420Y-17188936D02*
X14019468Y-17160365D01*
X14019468Y-17160365D02*
X14028991Y-17122270D01*
X14028991Y-17122270D02*
X14028991Y-17046079D01*
X14028991Y-17046079D02*
X14019468Y-17027031D01*
X14019468Y-17027031D02*
X14009944Y-17017508D01*
X14009944Y-17017508D02*
X13990896Y-17007984D01*
X13990896Y-17007984D02*
X13952801Y-17007984D01*
X13952801Y-17007984D02*
X13933753Y-17017508D01*
X13933753Y-17017508D02*
X13924229Y-17027031D01*
X13924229Y-17027031D02*
X13914706Y-17046079D01*
X13914706Y-17046079D02*
X13914706Y-17093698D01*
X13914706Y-17093698D02*
X13924229Y-17112746D01*
X13924229Y-17112746D02*
X13933753Y-17122270D01*
X13933753Y-17122270D02*
X13952801Y-17131793D01*
X13952801Y-17131793D02*
X13990896Y-17131793D01*
X13990896Y-17131793D02*
X14009944Y-17122270D01*
X14009944Y-17122270D02*
X14019468Y-17112746D01*
X14019468Y-17112746D02*
X14028991Y-17093698D01*
X14267087Y-17207984D02*
X14267087Y-17007984D01*
X14352801Y-17207984D02*
X14352801Y-17103222D01*
X14352801Y-17103222D02*
X14343277Y-17084174D01*
X14343277Y-17084174D02*
X14324230Y-17074650D01*
X14324230Y-17074650D02*
X14295658Y-17074650D01*
X14295658Y-17074650D02*
X14276610Y-17084174D01*
X14276610Y-17084174D02*
X14267087Y-17093698D01*
X14476610Y-17207984D02*
X14457563Y-17198460D01*
X14457563Y-17198460D02*
X14448039Y-17188936D01*
X14448039Y-17188936D02*
X14438515Y-17169889D01*
X14438515Y-17169889D02*
X14438515Y-17112746D01*
X14438515Y-17112746D02*
X14448039Y-17093698D01*
X14448039Y-17093698D02*
X14457563Y-17084174D01*
X14457563Y-17084174D02*
X14476610Y-17074650D01*
X14476610Y-17074650D02*
X14505182Y-17074650D01*
X14505182Y-17074650D02*
X14524230Y-17084174D01*
X14524230Y-17084174D02*
X14533753Y-17093698D01*
X14533753Y-17093698D02*
X14543277Y-17112746D01*
X14543277Y-17112746D02*
X14543277Y-17169889D01*
X14543277Y-17169889D02*
X14533753Y-17188936D01*
X14533753Y-17188936D02*
X14524230Y-17198460D01*
X14524230Y-17198460D02*
X14505182Y-17207984D01*
X14505182Y-17207984D02*
X14476610Y-17207984D01*
X14657563Y-17207984D02*
X14638515Y-17198460D01*
X14638515Y-17198460D02*
X14628991Y-17179412D01*
X14628991Y-17179412D02*
X14628991Y-17007984D01*
X14809944Y-17198460D02*
X14790896Y-17207984D01*
X14790896Y-17207984D02*
X14752801Y-17207984D01*
X14752801Y-17207984D02*
X14733753Y-17198460D01*
X14733753Y-17198460D02*
X14724230Y-17179412D01*
X14724230Y-17179412D02*
X14724230Y-17103222D01*
X14724230Y-17103222D02*
X14733753Y-17084174D01*
X14733753Y-17084174D02*
X14752801Y-17074650D01*
X14752801Y-17074650D02*
X14790896Y-17074650D01*
X14790896Y-17074650D02*
X14809944Y-17084174D01*
X14809944Y-17084174D02*
X14819468Y-17103222D01*
X14819468Y-17103222D02*
X14819468Y-17122270D01*
X14819468Y-17122270D02*
X14724230Y-17141317D01*
X14895658Y-17198460D02*
X14914706Y-17207984D01*
X14914706Y-17207984D02*
X14952801Y-17207984D01*
X14952801Y-17207984D02*
X14971849Y-17198460D01*
X14971849Y-17198460D02*
X14981372Y-17179412D01*
X14981372Y-17179412D02*
X14981372Y-17169889D01*
X14981372Y-17169889D02*
X14971849Y-17150841D01*
X14971849Y-17150841D02*
X14952801Y-17141317D01*
X14952801Y-17141317D02*
X14924230Y-17141317D01*
X14924230Y-17141317D02*
X14905182Y-17131793D01*
X14905182Y-17131793D02*
X14895658Y-17112746D01*
X14895658Y-17112746D02*
X14895658Y-17103222D01*
X14895658Y-17103222D02*
X14905182Y-17084174D01*
X14905182Y-17084174D02*
X14924230Y-17074650D01*
X14924230Y-17074650D02*
X14952801Y-17074650D01*
X14952801Y-17074650D02*
X14971849Y-17084174D01*
X15048039Y-17284174D02*
X15057563Y-17274650D01*
X15057563Y-17274650D02*
X15076611Y-17246079D01*
X15076611Y-17246079D02*
X15086134Y-17227031D01*
X15086134Y-17227031D02*
X15095658Y-17198460D01*
X15095658Y-17198460D02*
X15105182Y-17150841D01*
X15105182Y-17150841D02*
X15105182Y-17112746D01*
X15105182Y-17112746D02*
X15095658Y-17065127D01*
X15095658Y-17065127D02*
X15086134Y-17036555D01*
X15086134Y-17036555D02*
X15076611Y-17017508D01*
X15076611Y-17017508D02*
X15057563Y-16988936D01*
X15057563Y-16988936D02*
X15048039Y-16979412D01*
X15409944Y-17284174D02*
X15400420Y-17274650D01*
X15400420Y-17274650D02*
X15381372Y-17246079D01*
X15381372Y-17246079D02*
X15371849Y-17227031D01*
X15371849Y-17227031D02*
X15362325Y-17198460D01*
X15362325Y-17198460D02*
X15352801Y-17150841D01*
X15352801Y-17150841D02*
X15352801Y-17112746D01*
X15352801Y-17112746D02*
X15362325Y-17065127D01*
X15362325Y-17065127D02*
X15371849Y-17036555D01*
X15371849Y-17036555D02*
X15381372Y-17017508D01*
X15381372Y-17017508D02*
X15400420Y-16988936D01*
X15400420Y-16988936D02*
X15409944Y-16979412D01*
X15486134Y-17074650D02*
X15486134Y-17207984D01*
X15486134Y-17093698D02*
X15495658Y-17084174D01*
X15495658Y-17084174D02*
X15514706Y-17074650D01*
X15514706Y-17074650D02*
X15543277Y-17074650D01*
X15543277Y-17074650D02*
X15562325Y-17084174D01*
X15562325Y-17084174D02*
X15571849Y-17103222D01*
X15571849Y-17103222D02*
X15571849Y-17207984D01*
X15695658Y-17207984D02*
X15676611Y-17198460D01*
X15676611Y-17198460D02*
X15667087Y-17188936D01*
X15667087Y-17188936D02*
X15657563Y-17169889D01*
X15657563Y-17169889D02*
X15657563Y-17112746D01*
X15657563Y-17112746D02*
X15667087Y-17093698D01*
X15667087Y-17093698D02*
X15676611Y-17084174D01*
X15676611Y-17084174D02*
X15695658Y-17074650D01*
X15695658Y-17074650D02*
X15724230Y-17074650D01*
X15724230Y-17074650D02*
X15743277Y-17084174D01*
X15743277Y-17084174D02*
X15752801Y-17093698D01*
X15752801Y-17093698D02*
X15762325Y-17112746D01*
X15762325Y-17112746D02*
X15762325Y-17169889D01*
X15762325Y-17169889D02*
X15752801Y-17188936D01*
X15752801Y-17188936D02*
X15743277Y-17198460D01*
X15743277Y-17198460D02*
X15724230Y-17207984D01*
X15724230Y-17207984D02*
X15695658Y-17207984D01*
X15819468Y-17074650D02*
X15895658Y-17074650D01*
X15848039Y-17007984D02*
X15848039Y-17179412D01*
X15848039Y-17179412D02*
X15857563Y-17198460D01*
X15857563Y-17198460D02*
X15876611Y-17207984D01*
X15876611Y-17207984D02*
X15895658Y-17207984D01*
X16114706Y-17074650D02*
X16114706Y-17274650D01*
X16114706Y-17084174D02*
X16133753Y-17074650D01*
X16133753Y-17074650D02*
X16171849Y-17074650D01*
X16171849Y-17074650D02*
X16190896Y-17084174D01*
X16190896Y-17084174D02*
X16200420Y-17093698D01*
X16200420Y-17093698D02*
X16209944Y-17112746D01*
X16209944Y-17112746D02*
X16209944Y-17169889D01*
X16209944Y-17169889D02*
X16200420Y-17188936D01*
X16200420Y-17188936D02*
X16190896Y-17198460D01*
X16190896Y-17198460D02*
X16171849Y-17207984D01*
X16171849Y-17207984D02*
X16133753Y-17207984D01*
X16133753Y-17207984D02*
X16114706Y-17198460D01*
X16324230Y-17207984D02*
X16305182Y-17198460D01*
X16305182Y-17198460D02*
X16295658Y-17179412D01*
X16295658Y-17179412D02*
X16295658Y-17007984D01*
X16486134Y-17207984D02*
X16486134Y-17103222D01*
X16486134Y-17103222D02*
X16476611Y-17084174D01*
X16476611Y-17084174D02*
X16457563Y-17074650D01*
X16457563Y-17074650D02*
X16419468Y-17074650D01*
X16419468Y-17074650D02*
X16400420Y-17084174D01*
X16486134Y-17198460D02*
X16467087Y-17207984D01*
X16467087Y-17207984D02*
X16419468Y-17207984D01*
X16419468Y-17207984D02*
X16400420Y-17198460D01*
X16400420Y-17198460D02*
X16390896Y-17179412D01*
X16390896Y-17179412D02*
X16390896Y-17160365D01*
X16390896Y-17160365D02*
X16400420Y-17141317D01*
X16400420Y-17141317D02*
X16419468Y-17131793D01*
X16419468Y-17131793D02*
X16467087Y-17131793D01*
X16467087Y-17131793D02*
X16486134Y-17122270D01*
X16552801Y-17074650D02*
X16628992Y-17074650D01*
X16581373Y-17007984D02*
X16581373Y-17179412D01*
X16581373Y-17179412D02*
X16590896Y-17198460D01*
X16590896Y-17198460D02*
X16609944Y-17207984D01*
X16609944Y-17207984D02*
X16628992Y-17207984D01*
X16771849Y-17198460D02*
X16752801Y-17207984D01*
X16752801Y-17207984D02*
X16714706Y-17207984D01*
X16714706Y-17207984D02*
X16695658Y-17198460D01*
X16695658Y-17198460D02*
X16686134Y-17179412D01*
X16686134Y-17179412D02*
X16686134Y-17103222D01*
X16686134Y-17103222D02*
X16695658Y-17084174D01*
X16695658Y-17084174D02*
X16714706Y-17074650D01*
X16714706Y-17074650D02*
X16752801Y-17074650D01*
X16752801Y-17074650D02*
X16771849Y-17084174D01*
X16771849Y-17084174D02*
X16781373Y-17103222D01*
X16781373Y-17103222D02*
X16781373Y-17122270D01*
X16781373Y-17122270D02*
X16686134Y-17141317D01*
X16952801Y-17207984D02*
X16952801Y-17007984D01*
X16952801Y-17198460D02*
X16933754Y-17207984D01*
X16933754Y-17207984D02*
X16895658Y-17207984D01*
X16895658Y-17207984D02*
X16876611Y-17198460D01*
X16876611Y-17198460D02*
X16867087Y-17188936D01*
X16867087Y-17188936D02*
X16857563Y-17169889D01*
X16857563Y-17169889D02*
X16857563Y-17112746D01*
X16857563Y-17112746D02*
X16867087Y-17093698D01*
X16867087Y-17093698D02*
X16876611Y-17084174D01*
X16876611Y-17084174D02*
X16895658Y-17074650D01*
X16895658Y-17074650D02*
X16933754Y-17074650D01*
X16933754Y-17074650D02*
X16952801Y-17084174D01*
X17028992Y-17284174D02*
X17038516Y-17274650D01*
X17038516Y-17274650D02*
X17057563Y-17246079D01*
X17057563Y-17246079D02*
X17067087Y-17227031D01*
X17067087Y-17227031D02*
X17076611Y-17198460D01*
X17076611Y-17198460D02*
X17086135Y-17150841D01*
X17086135Y-17150841D02*
X17086135Y-17112746D01*
X17086135Y-17112746D02*
X17076611Y-17065127D01*
X17076611Y-17065127D02*
X17067087Y-17036555D01*
X17067087Y-17036555D02*
X17057563Y-17017508D01*
X17057563Y-17017508D02*
X17038516Y-16988936D01*
X17038516Y-16988936D02*
X17028992Y-16979412D01*
M02*
