%TF.GenerationSoftware,KiCad,Pcbnew,7.0.6*%
%TF.CreationDate,2024-02-08T14:45:44-05:00*%
%TF.ProjectId,20Key_macropad,32304b65-795f-46d6-9163-726f7061642e,rev?*%
%TF.SameCoordinates,Original*%
%TF.FileFunction,Paste,Top*%
%TF.FilePolarity,Positive*%
%FSLAX46Y46*%
G04 Gerber Fmt 4.6, Leading zero omitted, Abs format (unit mm)*
G04 Created by KiCad (PCBNEW 7.0.6) date 2024-02-08 14:45:44*
%MOMM*%
%LPD*%
G01*
G04 APERTURE LIST*
%ADD10R,1.150000X1.450000*%
%ADD11R,1.803400X0.812800*%
%ADD12R,1.450000X1.150000*%
%ADD13R,0.812800X1.803400*%
G04 APERTURE END LIST*
D10*
%TO.C,C8*%
X158925000Y-82230000D03*
X157125000Y-82230000D03*
%TD*%
D11*
%TO.C,LED3*%
X160526900Y-79804300D03*
X160526900Y-78305700D03*
X155523100Y-78305700D03*
X155523100Y-79804300D03*
%TD*%
D12*
%TO.C,C17*%
X154850000Y-137105000D03*
X154850000Y-135305000D03*
%TD*%
D11*
%TO.C,LED1*%
X122426900Y-79804300D03*
X122426900Y-78305700D03*
X117423100Y-78305700D03*
X117423100Y-79804300D03*
%TD*%
%TO.C,LED7*%
X122426900Y-117904300D03*
X122426900Y-116405700D03*
X117423100Y-116405700D03*
X117423100Y-117904300D03*
%TD*%
%TO.C,LED11*%
X141476900Y-136954300D03*
X141476900Y-135455700D03*
X136473100Y-135455700D03*
X136473100Y-136954300D03*
%TD*%
%TO.C,LED9*%
X160526900Y-117904300D03*
X160526900Y-116405700D03*
X155523100Y-116405700D03*
X155523100Y-117904300D03*
%TD*%
D10*
%TO.C,C6*%
X120825000Y-82230000D03*
X119025000Y-82230000D03*
%TD*%
D13*
%TO.C,LED12*%
X157275700Y-138706900D03*
X158774300Y-138706900D03*
X158774300Y-133703100D03*
X157275700Y-133703100D03*
%TD*%
D10*
%TO.C,C14*%
X158925000Y-120330000D03*
X157125000Y-120330000D03*
%TD*%
D12*
%TO.C,C11*%
X154850000Y-99005000D03*
X154850000Y-97205000D03*
%TD*%
D10*
%TO.C,C13*%
X139875000Y-120330000D03*
X138075000Y-120330000D03*
%TD*%
D11*
%TO.C,LED10*%
X122426900Y-136954300D03*
X122426900Y-135455700D03*
X117423100Y-135455700D03*
X117423100Y-136954300D03*
%TD*%
D10*
%TO.C,C16*%
X139875000Y-139380000D03*
X138075000Y-139380000D03*
%TD*%
%TO.C,C12*%
X120825000Y-120330000D03*
X119025000Y-120330000D03*
%TD*%
D11*
%TO.C,LED2*%
X141476900Y-79804300D03*
X141476900Y-78305700D03*
X136473100Y-78305700D03*
X136473100Y-79804300D03*
%TD*%
%TO.C,LED4*%
X122426900Y-98854300D03*
X122426900Y-97355700D03*
X117423100Y-97355700D03*
X117423100Y-98854300D03*
%TD*%
D10*
%TO.C,C15*%
X120825000Y-133030000D03*
X119025000Y-133030000D03*
%TD*%
D11*
%TO.C,LED8*%
X141476900Y-117904300D03*
X141476900Y-116405700D03*
X136473100Y-116405700D03*
X136473100Y-117904300D03*
%TD*%
D10*
%TO.C,C9*%
X120825000Y-101280000D03*
X119025000Y-101280000D03*
%TD*%
D11*
%TO.C,LED5*%
X141476900Y-98854300D03*
X141476900Y-97355700D03*
X136473100Y-97355700D03*
X136473100Y-98854300D03*
%TD*%
D13*
%TO.C,LED6*%
X157275700Y-100606900D03*
X158774300Y-100606900D03*
X158774300Y-95603100D03*
X157275700Y-95603100D03*
%TD*%
D10*
%TO.C,C7*%
X139875000Y-82230000D03*
X138075000Y-82230000D03*
%TD*%
%TO.C,C10*%
X139875000Y-101280000D03*
X138075000Y-101280000D03*
%TD*%
M02*
