M48
; DRILL file {KiCad 7.0.6} date Thu Feb  8 14:45:54 2024
; FORMAT={-:-/ absolute / inch / decimal}
; #@! TF.CreationDate,2024-02-08T14:45:54-05:00
; #@! TF.GenerationSoftware,Kicad,Pcbnew,7.0.6
; #@! TF.FileFunction,Plated,1,2,PTH
FMAT,2
INCH
; #@! TA.AperFunction,Plated,PTH,ViaDrill
T1C0.0157
; #@! TA.AperFunction,Plated,PTH,ComponentDrill
T2C0.0157
; #@! TA.AperFunction,Plated,PTH,ComponentDrill
T3C0.0236
; #@! TA.AperFunction,Plated,PTH,ComponentDrill
T4C0.0276
; #@! TA.AperFunction,Plated,PTH,ComponentDrill
T5C0.0315
; #@! TA.AperFunction,Plated,PTH,ComponentDrill
T6C0.0394
; #@! TA.AperFunction,Plated,PTH,ComponentDrill
T7C0.0433
; #@! TA.AperFunction,Plated,PTH,ComponentDrill
T8C0.0591
%
G90
G05
T1
X4.4465Y-1.5874
X4.4965Y-4.6374
X4.4965Y-5.3874
X4.5215Y-3.8874
X4.5465Y-3.1374
X4.6215Y-1.6624
X4.6715Y-3.3374
X4.7215Y-3.6624
X4.7715Y-4.4124
X4.7715Y-5.0874
X4.7965Y-2.5874
X4.8215Y-2.7874
X4.8215Y-2.8624
X4.8715Y-3.3374
X4.8715Y-5.2374
X4.8847Y-5.291
X4.8965Y-3.0374
X4.8965Y-3.1374
X4.8965Y-3.8044
X4.8965Y-3.8874
X4.8965Y-4.5544
X4.8965Y-4.6374
X4.9215Y-3.7624
X4.9215Y-5.3874
X4.9394Y-4.5374
X4.9465Y-3.1874
X4.9679Y-4.6624
X4.9965Y-2.6124
X4.9965Y-3.2374
X4.9965Y-3.9874
X4.9965Y-4.7374
X4.9965Y-5.4874
X5.0715Y-1.8573
X5.2715Y-2.0374
X5.2715Y-3.8374
X5.2715Y-4.5874
X5.2715Y-4.7124
X5.2965Y-3.0874
X5.3215Y-3.9624
X5.3215Y-5.2874
X5.3465Y-5.4624
X5.3715Y-3.2374
X5.5715Y-2.5624
X5.7215Y-2.4874
X5.7465Y-2.6124
X5.7465Y-3.2374
X5.7465Y-3.9874
X5.7465Y-4.7374
X5.7465Y-5.4874
X5.7715Y-2.129
X5.8215Y-1.9874
X5.8215Y-5.2874
X5.9715Y-3.9374
X5.9965Y-3.8374
X6.0215Y-2.1624
X6.0215Y-4.5874
X6.0215Y-5.327
X6.0465Y-1.6624
X6.0465Y-3.0874
X6.0465Y-4.7124
X6.0715Y-1.9409
X6.0965Y-3.2439
X6.1215Y-1.9177
X6.1465Y-3.3374
X6.1715Y-1.8891
X6.1965Y-1.4374
X6.1965Y-1.4874
X6.2465Y-1.8557
X6.2465Y-3.6624
X6.2465Y-5.1624
X6.2965Y-1.8874
X6.2965Y-2.4874
X6.3215Y-3.0124
X6.3363Y-1.8869
X6.3756Y-1.8845
X6.4215Y-4.6624
X6.4215Y-4.8624
X6.4465Y-4.5124
X6.4715Y-5.4624
X6.5017Y-3.2374
X6.5465Y-1.6624
X6.5465Y-1.9124
X6.5715Y-3.3374
X6.5965Y-2.4624
X6.6965Y-1.9124
X6.6965Y-3.0124
X6.7715Y-3.8624
X6.7965Y-1.9124
T2
X4.165Y-1.7703
X4.165Y-1.8037
X4.165Y-1.8372
X4.165Y-1.8707
X4.165Y-1.9041
X4.165Y-1.9376
X4.165Y-1.9711
X4.165Y-2.0045
X4.2181Y-1.7703
X4.2181Y-1.8037
X4.2181Y-1.8372
X4.2181Y-1.8707
X4.2181Y-1.9041
X4.2181Y-1.9376
X4.2181Y-1.9711
X4.2181Y-2.0045
T4
X4.7465Y-1.4173
X4.7465Y-1.5413
X4.7465Y-1.6654
X4.7465Y-1.7874
X4.7465Y-1.9134
X4.7465Y-2.0374
X4.9465Y-1.4173
X4.9465Y-1.5413
X4.9465Y-1.6654
X4.9465Y-1.7874
X4.9465Y-1.9134
X4.9465Y-2.0374
T5
X4.2965Y-1.3874
X4.2965Y-1.5124
X4.4465Y-1.9124
X4.4465Y-2.0108
X4.5965Y-1.3874
X4.5965Y-1.5124
X5.4965Y-1.364
X5.4965Y-1.5608
X5.5961Y-1.7624
X5.5961Y-2.0624
X5.6961Y-1.7624
X5.6961Y-2.0624
X5.7Y-1.4874
X5.7961Y-1.7624
X5.7961Y-2.0624
X5.8921Y-1.4874
X5.8961Y-1.7624
X5.8961Y-2.0624
X5.9961Y-1.7624
X5.9961Y-2.0624
X6.0961Y-1.7624
X6.0961Y-2.0624
X6.0965Y-1.364
X6.0965Y-1.5608
X6.1961Y-1.7624
X6.1961Y-2.0624
X6.1972Y-1.6624
X6.2957Y-1.6624
X6.2961Y-1.7624
X6.2961Y-2.0624
X6.2972Y-2.1624
X6.3957Y-2.1624
X6.3961Y-1.7624
X6.3961Y-2.0624
X6.4961Y-1.7624
X6.4961Y-2.0624
X6.5961Y-1.7624
X6.5961Y-2.0624
X6.6961Y-1.7624
X6.6961Y-2.0624
X6.7961Y-1.7624
X6.7961Y-2.0624
X6.8961Y-1.7624
X6.8961Y-2.0624
T6
X4.348Y-1.7374
X4.5449Y-1.7374
X4.7715Y-2.2374
X4.7715Y-2.4024
X4.8715Y-2.2374
X4.8715Y-2.4024
X4.9715Y-2.2374
X4.9715Y-2.4024
X5.0715Y-2.2374
X5.0715Y-2.4024
X5.1715Y-2.2374
X5.1715Y-2.4024
X5.2715Y-2.2374
X5.2715Y-2.4024
X5.3715Y-2.2374
X5.3715Y-2.4024
X5.4715Y-2.2374
X5.4715Y-2.4024
X5.5715Y-2.2374
X5.5715Y-2.4024
X5.6715Y-2.2374
X5.6715Y-2.4024
X5.7715Y-2.2374
X5.7715Y-2.4024
X5.8715Y-2.2374
X5.8715Y-2.4024
X5.9715Y-2.2374
X5.9715Y-2.4024
X6.0715Y-2.2374
X6.0715Y-2.4024
X6.1715Y-2.2374
X6.1715Y-2.4024
X6.3215Y-1.4124
X6.3215Y-1.5124
X6.4215Y-1.4124
X6.4215Y-1.5124
X6.5215Y-1.4124
X6.5215Y-1.5124
T7
X5.113Y-1.4285
X5.113Y-1.6057
X5.113Y-1.7651
X5.113Y-1.9423
X5.3689Y-1.4285
X5.3689Y-1.6057
X5.3689Y-1.7651
X5.3689Y-1.9423
T8
X4.1965Y-5.6374
X4.2465Y-2.9374
X4.2465Y-3.6874
X4.2465Y-4.4374
X4.2465Y-5.1874
X4.4465Y-5.5374
X4.4965Y-2.8374
X4.4965Y-3.5874
X4.4965Y-4.3374
X4.4965Y-5.0874
X4.6215Y-5.9374
X4.8715Y-5.8374
X4.9965Y-2.9374
X4.9965Y-3.6874
X4.9965Y-4.4374
X4.9965Y-5.1874
X4.9965Y-5.9374
X5.2465Y-2.8374
X5.2465Y-3.5874
X5.2465Y-4.3374
X5.2465Y-5.0874
X5.2465Y-5.8374
X5.7465Y-2.9374
X5.7465Y-3.6874
X5.7465Y-4.4374
X5.7465Y-5.1874
X5.7465Y-5.9374
X5.9965Y-2.8374
X5.9965Y-3.5874
X5.9965Y-4.3374
X5.9965Y-5.0874
X5.9965Y-5.8374
X6.4965Y-2.9374
X6.4965Y-3.6874
X6.4965Y-4.4374
X6.4965Y-5.1874
X6.4965Y-5.9374
X6.6965Y-3.7124
X6.6965Y-5.2124
X6.7465Y-2.8374
X6.7465Y-3.5874
X6.7465Y-4.3374
X6.7465Y-5.0874
X6.7465Y-5.8374
X6.7965Y-3.9624
X6.7965Y-5.4624
T3
G00X4.0622Y-1.7171
M15
G01X4.0307Y-1.7171
M16
G05
G00X4.0622Y-2.0577
M15
G01X4.0307Y-2.0577
M16
G05
G00X4.2091Y-1.7171
M15
G01X4.15Y-1.7171
M16
G05
G00X4.2091Y-2.0577
M15
G01X4.15Y-2.0577
M16
G05
T0
M30
