%TF.GenerationSoftware,KiCad,Pcbnew,7.0.6*%
%TF.CreationDate,2024-02-22T13:24:58-05:00*%
%TF.ProjectId,20Key_macropad,32304b65-795f-46d6-9163-726f7061642e,rev?*%
%TF.SameCoordinates,Original*%
%TF.FileFunction,Profile,NP*%
%FSLAX46Y46*%
G04 Gerber Fmt 4.6, Leading zero omitted, Abs format (unit mm)*
G04 Created by KiCad (PCBNEW 7.0.6) date 2024-02-22 13:24:58*
%MOMM*%
%LPD*%
G01*
G04 APERTURE LIST*
%TA.AperFunction,Profile*%
%ADD10C,0.100000*%
%TD*%
%TA.AperFunction,Profile*%
%ADD11C,0.025400*%
%TD*%
G04 APERTURE END LIST*
D10*
X174200000Y-59230000D02*
G75*
G03*
X174200000Y-59230000I-400000J0D01*
G01*
X103200000Y-59230000D02*
G75*
G03*
X103200000Y-59230000I-400000J0D01*
G01*
X176700000Y-59230000D02*
G75*
G03*
X176700000Y-59230000I-400000J0D01*
G01*
X101875000Y-33005000D02*
X176075000Y-33005000D01*
X176075000Y-155415000D02*
G75*
G03*
X177075000Y-154415000I0J1000000D01*
G01*
X101950000Y-59230000D02*
G75*
G03*
X101950000Y-59230000I-400000J0D01*
G01*
X104919000Y-58730000D02*
X172975000Y-58730000D01*
X172975000Y-59730000D01*
X104919000Y-59730000D01*
X104919000Y-58730000D01*
X177075000Y-34005000D02*
G75*
G03*
X176075000Y-33005000I-1000000J0D01*
G01*
X100875000Y-154415000D02*
X100875000Y-34005000D01*
X104450000Y-59230000D02*
G75*
G03*
X104450000Y-59230000I-400000J0D01*
G01*
X177075000Y-34005000D02*
X177075000Y-154415000D01*
X101875000Y-33005000D02*
G75*
G03*
X100875000Y-34005000I0J-1000000D01*
G01*
X175450000Y-59230000D02*
G75*
G03*
X175450000Y-59230000I-400000J0D01*
G01*
X176075000Y-155415000D02*
X101875000Y-155415000D01*
X100875000Y-154415000D02*
G75*
G03*
X101875000Y-155415000I1000000J0D01*
G01*
D11*
%TO.C,LED3*%
X159663300Y-80439300D02*
X159663300Y-77645300D01*
X159663300Y-80439300D02*
X156462900Y-80439300D01*
X159663300Y-77645300D02*
X156462900Y-77645300D01*
X156462900Y-77645300D02*
X156462900Y-80439300D01*
%TO.C,LED1*%
X121563300Y-80439300D02*
X121563300Y-77645300D01*
X121563300Y-80439300D02*
X118362900Y-80439300D01*
X121563300Y-77645300D02*
X118362900Y-77645300D01*
X118362900Y-77645300D02*
X118362900Y-80439300D01*
%TO.C,LED7*%
X121563300Y-118539300D02*
X121563300Y-115745300D01*
X121563300Y-118539300D02*
X118362900Y-118539300D01*
X121563300Y-115745300D02*
X118362900Y-115745300D01*
X118362900Y-115745300D02*
X118362900Y-118539300D01*
%TO.C,LED11*%
X140613300Y-137589300D02*
X140613300Y-134795300D01*
X140613300Y-137589300D02*
X137412900Y-137589300D01*
X140613300Y-134795300D02*
X137412900Y-134795300D01*
X137412900Y-134795300D02*
X137412900Y-137589300D01*
%TO.C,LED9*%
X159663300Y-118539300D02*
X159663300Y-115745300D01*
X159663300Y-118539300D02*
X156462900Y-118539300D01*
X159663300Y-115745300D02*
X156462900Y-115745300D01*
X156462900Y-115745300D02*
X156462900Y-118539300D01*
%TO.C,LED12*%
X156640700Y-137843300D02*
X159434700Y-137843300D01*
X156640700Y-137843300D02*
X156640700Y-134642900D01*
X159434700Y-137843300D02*
X159434700Y-134642900D01*
X159434700Y-134642900D02*
X156640700Y-134642900D01*
%TO.C,LED10*%
X121563300Y-137589300D02*
X121563300Y-134795300D01*
X121563300Y-137589300D02*
X118362900Y-137589300D01*
X121563300Y-134795300D02*
X118362900Y-134795300D01*
X118362900Y-134795300D02*
X118362900Y-137589300D01*
%TO.C,LED2*%
X140613300Y-80439300D02*
X140613300Y-77645300D01*
X140613300Y-80439300D02*
X137412900Y-80439300D01*
X140613300Y-77645300D02*
X137412900Y-77645300D01*
X137412900Y-77645300D02*
X137412900Y-80439300D01*
%TO.C,LED4*%
X121563300Y-99489300D02*
X121563300Y-96695300D01*
X121563300Y-99489300D02*
X118362900Y-99489300D01*
X121563300Y-96695300D02*
X118362900Y-96695300D01*
X118362900Y-96695300D02*
X118362900Y-99489300D01*
%TO.C,LED8*%
X140613300Y-118539300D02*
X140613300Y-115745300D01*
X140613300Y-118539300D02*
X137412900Y-118539300D01*
X140613300Y-115745300D02*
X137412900Y-115745300D01*
X137412900Y-115745300D02*
X137412900Y-118539300D01*
%TO.C,LED5*%
X140613300Y-99489300D02*
X140613300Y-96695300D01*
X140613300Y-99489300D02*
X137412900Y-99489300D01*
X140613300Y-96695300D02*
X137412900Y-96695300D01*
X137412900Y-96695300D02*
X137412900Y-99489300D01*
%TO.C,LED6*%
X156640700Y-99743300D02*
X159434700Y-99743300D01*
X156640700Y-99743300D02*
X156640700Y-96542900D01*
X159434700Y-99743300D02*
X159434700Y-96542900D01*
X159434700Y-96542900D02*
X156640700Y-96542900D01*
%TD*%
M02*
