M48
; DRILL file {KiCad 7.0.6} date Thu Feb  8 14:45:54 2024
; FORMAT={-:-/ absolute / inch / decimal}
; #@! TF.CreationDate,2024-02-08T14:45:54-05:00
; #@! TF.GenerationSoftware,Kicad,Pcbnew,7.0.6
; #@! TF.FileFunction,NonPlated,1,2,NPTH
FMAT,2
INCH
; #@! TA.AperFunction,NonPlated,NPTH,ComponentDrill
T1C0.0669
; #@! TA.AperFunction,NonPlated,NPTH,ComponentDrill
T2C0.1201
; #@! TA.AperFunction,NonPlated,NPTH,ComponentDrill
T3C0.1260
; #@! TA.AperFunction,NonPlated,NPTH,ComponentDrill
T4C0.1575
%
G90
G05
T1
X4.1465Y-2.7374
X4.1465Y-3.4874
X4.1465Y-4.2374
X4.1465Y-4.9874
X4.1465Y-5.7374
X4.5215Y-5.7374
X4.5465Y-2.7374
X4.5465Y-3.4874
X4.5465Y-4.2374
X4.5465Y-4.9874
X4.5465Y-5.7374
X4.8965Y-2.7374
X4.8965Y-3.4874
X4.8965Y-4.2374
X4.8965Y-4.9874
X4.8965Y-5.7374
X4.9215Y-5.7374
X5.2965Y-2.7374
X5.2965Y-3.4874
X5.2965Y-4.2374
X5.2965Y-4.9874
X5.2965Y-5.7374
X5.6465Y-2.7374
X5.6465Y-3.4874
X5.6465Y-4.2374
X5.6465Y-4.9874
X5.6465Y-5.7374
X6.0465Y-2.7374
X6.0465Y-3.4874
X6.0465Y-4.2374
X6.0465Y-4.9874
X6.0465Y-5.7374
X6.3965Y-2.7374
X6.3965Y-3.4874
X6.3965Y-4.2374
X6.3965Y-4.9874
X6.3965Y-5.7374
X6.5965Y-3.6624
X6.5965Y-4.0624
X6.5965Y-5.1624
X6.5965Y-5.5624
X6.7965Y-2.7374
X6.7965Y-3.4874
X6.7965Y-4.2374
X6.7965Y-4.9874
X6.7965Y-5.7374
T2
X4.253Y-6.013
X5.19Y-6.013
X6.872Y-3.3939
X6.872Y-4.3309
X6.872Y-4.8939
X6.872Y-5.8309
T3
X4.1161Y-1.4461
X4.1215Y-3.1124
X5.4715Y-5.9624
X6.8215Y-3.1124
X6.8228Y-1.4461
T4
X4.253Y-5.413
X4.3465Y-2.7374
X4.3465Y-3.4874
X4.3465Y-4.2374
X4.3465Y-4.9874
X4.3465Y-5.7374
X4.7215Y-5.7374
X5.0965Y-2.7374
X5.0965Y-3.4874
X5.0965Y-4.2374
X5.0965Y-4.9874
X5.0965Y-5.7374
X5.19Y-5.413
X5.8465Y-2.7374
X5.8465Y-3.4874
X5.8465Y-4.2374
X5.8465Y-4.9874
X5.8465Y-5.7374
X6.272Y-3.3939
X6.272Y-4.3309
X6.272Y-4.8939
X6.272Y-5.8309
X6.5965Y-2.7374
X6.5965Y-3.4874
X6.5965Y-3.8624
X6.5965Y-4.2374
X6.5965Y-4.9874
X6.5965Y-5.3624
X6.5965Y-5.7374
T0
M30
