%TF.GenerationSoftware,KiCad,Pcbnew,7.0.6*%
%TF.CreationDate,2024-02-23T19:12:24-05:00*%
%TF.ProjectId,20Key_macropad,32304b65-795f-46d6-9163-726f7061642e,rev?*%
%TF.SameCoordinates,Original*%
%TF.FileFunction,Paste,Top*%
%TF.FilePolarity,Positive*%
%FSLAX46Y46*%
G04 Gerber Fmt 4.6, Leading zero omitted, Abs format (unit mm)*
G04 Created by KiCad (PCBNEW 7.0.6) date 2024-02-23 19:12:24*
%MOMM*%
%LPD*%
G01*
G04 APERTURE LIST*
%ADD10R,1.803400X0.812800*%
%ADD11R,0.812800X1.803400*%
G04 APERTURE END LIST*
D10*
%TO.C,LED3*%
X160565000Y-78293000D03*
X160565000Y-79791600D03*
X155561200Y-79791600D03*
X155561200Y-78293000D03*
%TD*%
%TO.C,LED1*%
X122465000Y-78293000D03*
X122465000Y-79791600D03*
X117461200Y-79791600D03*
X117461200Y-78293000D03*
%TD*%
%TO.C,LED7*%
X122465000Y-116393000D03*
X122465000Y-117891600D03*
X117461200Y-117891600D03*
X117461200Y-116393000D03*
%TD*%
%TO.C,LED11*%
X141515000Y-135443000D03*
X141515000Y-136941600D03*
X136511200Y-136941600D03*
X136511200Y-135443000D03*
%TD*%
%TO.C,LED9*%
X160565000Y-116393000D03*
X160565000Y-117891600D03*
X155561200Y-117891600D03*
X155561200Y-116393000D03*
%TD*%
D11*
%TO.C,LED12*%
X158787000Y-138745000D03*
X157288400Y-138745000D03*
X157288400Y-133741200D03*
X158787000Y-133741200D03*
%TD*%
D10*
%TO.C,LED10*%
X122465000Y-135443000D03*
X122465000Y-136941600D03*
X117461200Y-136941600D03*
X117461200Y-135443000D03*
%TD*%
%TO.C,LED2*%
X141515000Y-78293000D03*
X141515000Y-79791600D03*
X136511200Y-79791600D03*
X136511200Y-78293000D03*
%TD*%
%TO.C,LED4*%
X122465000Y-97343000D03*
X122465000Y-98841600D03*
X117461200Y-98841600D03*
X117461200Y-97343000D03*
%TD*%
%TO.C,LED8*%
X141515000Y-116393000D03*
X141515000Y-117891600D03*
X136511200Y-117891600D03*
X136511200Y-116393000D03*
%TD*%
%TO.C,LED5*%
X141515000Y-97343000D03*
X141515000Y-98841600D03*
X136511200Y-98841600D03*
X136511200Y-97343000D03*
%TD*%
D11*
%TO.C,LED6*%
X158787000Y-100645000D03*
X157288400Y-100645000D03*
X157288400Y-95641200D03*
X158787000Y-95641200D03*
%TD*%
M02*
