%TF.GenerationSoftware,KiCad,Pcbnew,7.0.6*%
%TF.CreationDate,2024-02-23T19:12:38-05:00*%
%TF.ProjectId,20Key_macropad,32304b65-795f-46d6-9163-726f7061642e,rev?*%
%TF.SameCoordinates,Original*%
%TF.FileFunction,Drillmap*%
%TF.FilePolarity,Positive*%
%FSLAX45Y45*%
G04 Gerber Fmt 4.5, Leading zero omitted, Abs format (unit mm)*
G04 Created by KiCad (PCBNEW 7.0.6) date 2024-02-23 19:12:38*
%MOMM*%
%LPD*%
G01*
G04 APERTURE LIST*
%ADD10C,0.100000*%
%ADD11C,0.200000*%
%ADD12C,0.040000*%
%ADD13C,0.060000*%
%ADD14C,0.070000*%
%ADD15C,0.080000*%
%ADD16C,0.110000*%
%ADD17C,0.150000*%
G04 APERTURE END LIST*
D10*
X17420000Y-5923000D02*
G75*
G03*
X17420000Y-5923000I-40000J0D01*
G01*
X10320000Y-5923000D02*
G75*
G03*
X10320000Y-5923000I-40000J0D01*
G01*
X17670000Y-5923000D02*
G75*
G03*
X17670000Y-5923000I-40000J0D01*
G01*
X10187500Y-3300500D02*
X17607500Y-3300500D01*
X17607500Y-15541500D02*
G75*
G03*
X17707500Y-15441500I0J100000D01*
G01*
X10195000Y-5923000D02*
G75*
G03*
X10195000Y-5923000I-40000J0D01*
G01*
X10491900Y-5873000D02*
X17297500Y-5873000D01*
X17297500Y-5973000D01*
X10491900Y-5973000D01*
X10491900Y-5873000D01*
X17707500Y-3400500D02*
G75*
G03*
X17607500Y-3300500I-100000J0D01*
G01*
X10087500Y-15441500D02*
X10087500Y-3400500D01*
X10445000Y-5923000D02*
G75*
G03*
X10445000Y-5923000I-40000J0D01*
G01*
X17707500Y-3400500D02*
X17707500Y-15441500D01*
X10187500Y-3300500D02*
G75*
G03*
X10087500Y-3400500I0J-100000D01*
G01*
X17545000Y-5923000D02*
G75*
G03*
X17545000Y-5923000I-40000J0D01*
G01*
X17607500Y-15541500D02*
X10187500Y-15541500D01*
X10087500Y-15441500D02*
G75*
G03*
X10187500Y-15541500I100000J0D01*
G01*
D11*
D12*
X11274000Y-4012000D02*
X11314000Y-4052000D01*
X11314000Y-4012000D02*
X11274000Y-4052000D01*
X11401000Y-9854000D02*
X11441000Y-9894000D01*
X11441000Y-9854000D02*
X11401000Y-9894000D01*
X11477200Y-11606600D02*
X11517200Y-11646600D01*
X11517200Y-11606600D02*
X11477200Y-11646600D01*
X11502600Y-7949000D02*
X11542600Y-7989000D01*
X11542600Y-7949000D02*
X11502600Y-7989000D01*
X11718500Y-4202500D02*
X11758500Y-4242500D01*
X11758500Y-4202500D02*
X11718500Y-4242500D01*
X11858200Y-13029000D02*
X11898200Y-13069000D01*
X11898200Y-13029000D02*
X11858200Y-13069000D01*
X11959800Y-8965000D02*
X11999800Y-9005000D01*
X11999800Y-8965000D02*
X11959800Y-9005000D01*
X12213800Y-13308400D02*
X12253800Y-13348400D01*
X12253800Y-13308400D02*
X12213800Y-13348400D01*
X12226500Y-7060000D02*
X12266500Y-7100000D01*
X12266500Y-7060000D02*
X12226500Y-7100000D01*
X12264600Y-10108000D02*
X12304600Y-10148000D01*
X12304600Y-10108000D02*
X12264600Y-10148000D01*
X12291849Y-6782449D02*
X12331849Y-6822449D01*
X12331849Y-6782449D02*
X12291849Y-6822449D01*
X12340800Y-7517200D02*
X12380800Y-7557200D01*
X12380800Y-7517200D02*
X12340800Y-7557200D01*
X12340800Y-8203000D02*
X12380800Y-8243000D01*
X12380800Y-8203000D02*
X12340800Y-8243000D01*
X12467800Y-11505000D02*
X12507800Y-11545000D01*
X12507800Y-11505000D02*
X12467800Y-11545000D01*
X12467800Y-12394000D02*
X12507800Y-12434000D01*
X12507800Y-12394000D02*
X12467800Y-12434000D01*
X12493200Y-9574600D02*
X12533200Y-9614600D01*
X12533200Y-9574600D02*
X12493200Y-9614600D01*
X12518600Y-8533200D02*
X12558600Y-8573200D01*
X12558600Y-8533200D02*
X12518600Y-8573200D01*
X12671000Y-6615500D02*
X12711000Y-6655500D01*
X12711000Y-6615500D02*
X12671000Y-6655500D01*
X12671000Y-8203000D02*
X12711000Y-8243000D01*
X12711000Y-8203000D02*
X12671000Y-8243000D01*
X12671000Y-10108000D02*
X12711000Y-10148000D01*
X12711000Y-10108000D02*
X12671000Y-10148000D01*
X12671000Y-12013000D02*
X12711000Y-12053000D01*
X12711000Y-12013000D02*
X12671000Y-12053000D01*
X12671000Y-13918000D02*
X12711000Y-13958000D01*
X12711000Y-13918000D02*
X12671000Y-13958000D01*
X12848800Y-7796600D02*
X12888800Y-7836600D01*
X12888800Y-7796600D02*
X12848800Y-7836600D01*
X12861500Y-4697550D02*
X12901500Y-4737550D01*
X12901500Y-4697550D02*
X12861500Y-4737550D01*
X13204400Y-7974400D02*
X13244400Y-8014400D01*
X13244400Y-7974400D02*
X13204400Y-8014400D01*
X13255200Y-11784400D02*
X13295200Y-11824400D01*
X13295200Y-11784400D02*
X13255200Y-11824400D01*
X13331400Y-9854000D02*
X13371400Y-9894000D01*
X13371400Y-9854000D02*
X13331400Y-9894000D01*
X13369500Y-5155000D02*
X13409500Y-5195000D01*
X13409500Y-5155000D02*
X13369500Y-5195000D01*
X13890200Y-12368600D02*
X13930200Y-12408600D01*
X13930200Y-12368600D02*
X13890200Y-12408600D01*
X14131500Y-6488500D02*
X14171500Y-6528500D01*
X14171500Y-6488500D02*
X14131500Y-6528500D01*
X14372800Y-9727000D02*
X14412800Y-9767000D01*
X14412800Y-9727000D02*
X14372800Y-9767000D01*
X14372800Y-9955600D02*
X14412800Y-9995600D01*
X14412800Y-9955600D02*
X14372800Y-9995600D01*
X14512500Y-6298000D02*
X14552500Y-6338000D01*
X14552500Y-6298000D02*
X14512500Y-6338000D01*
X14576000Y-6615500D02*
X14616000Y-6655500D01*
X14616000Y-6615500D02*
X14576000Y-6655500D01*
X14576000Y-8203000D02*
X14616000Y-8243000D01*
X14616000Y-8203000D02*
X14576000Y-8243000D01*
X14576000Y-10108000D02*
X14616000Y-10148000D01*
X14616000Y-10108000D02*
X14576000Y-10148000D01*
X14576000Y-12013000D02*
X14616000Y-12053000D01*
X14616000Y-12013000D02*
X14576000Y-12053000D01*
X14576000Y-13918000D02*
X14616000Y-13958000D01*
X14616000Y-13918000D02*
X14576000Y-13958000D01*
X14639500Y-5387550D02*
X14679500Y-5427550D01*
X14679500Y-5387550D02*
X14639500Y-5427550D01*
X14766500Y-5028000D02*
X14806500Y-5068000D01*
X14806500Y-5028000D02*
X14766500Y-5068000D01*
X15109400Y-11784400D02*
X15149400Y-11824400D01*
X15149400Y-11784400D02*
X15109400Y-11824400D01*
X15274500Y-5472500D02*
X15314500Y-5512500D01*
X15314500Y-5472500D02*
X15274500Y-5512500D01*
X15287200Y-9879400D02*
X15327200Y-9919400D01*
X15327200Y-9879400D02*
X15287200Y-9919400D01*
X15312600Y-7949000D02*
X15352600Y-7989000D01*
X15352600Y-7949000D02*
X15312600Y-7989000D01*
X15338000Y-4202500D02*
X15378000Y-4242500D01*
X15378000Y-4202500D02*
X15338000Y-4242500D01*
X15401500Y-4909950D02*
X15441500Y-4949950D01*
X15441500Y-4909950D02*
X15401500Y-4949950D01*
X15414200Y-11327200D02*
X15454200Y-11367200D01*
X15454200Y-11327200D02*
X15414200Y-11367200D01*
X15465000Y-13283000D02*
X15505000Y-13323000D01*
X15505000Y-13283000D02*
X15465000Y-13323000D01*
X15528500Y-4850850D02*
X15568500Y-4890850D01*
X15568500Y-4850850D02*
X15528500Y-4890850D01*
X15617400Y-10260400D02*
X15657400Y-10300400D01*
X15657400Y-10260400D02*
X15617400Y-10300400D01*
X15655500Y-4778400D02*
X15695500Y-4818400D01*
X15695500Y-4778400D02*
X15655500Y-4818400D01*
X15719000Y-3631000D02*
X15759000Y-3671000D01*
X15759000Y-3631000D02*
X15719000Y-3671000D01*
X15719000Y-3758000D02*
X15759000Y-3798000D01*
X15759000Y-3758000D02*
X15719000Y-3798000D01*
X15846000Y-4693450D02*
X15886000Y-4733450D01*
X15886000Y-4693450D02*
X15846000Y-4733450D01*
X15973000Y-4774000D02*
X16013000Y-4814000D01*
X16013000Y-4774000D02*
X15973000Y-4814000D01*
X15973000Y-6298000D02*
X16013000Y-6338000D01*
X16013000Y-6298000D02*
X15973000Y-6338000D01*
X16036500Y-7631500D02*
X16076500Y-7671500D01*
X16076500Y-7631500D02*
X16036500Y-7671500D01*
X16074205Y-4772745D02*
X16114205Y-4812745D01*
X16114205Y-4772745D02*
X16074205Y-4812745D01*
X16173966Y-4766589D02*
X16213966Y-4806589D01*
X16213966Y-4766589D02*
X16173966Y-4806589D01*
X16290500Y-11822500D02*
X16330500Y-11862500D01*
X16330500Y-11822500D02*
X16290500Y-11862500D01*
X16290500Y-12330500D02*
X16330500Y-12370500D01*
X16330500Y-12330500D02*
X16290500Y-12370500D01*
X16354000Y-11441500D02*
X16394000Y-11481500D01*
X16394000Y-11441500D02*
X16354000Y-11481500D01*
X16417500Y-13854500D02*
X16457500Y-13894500D01*
X16457500Y-13854500D02*
X16417500Y-13894500D01*
X16494424Y-8203000D02*
X16534424Y-8243000D01*
X16534424Y-8203000D02*
X16494424Y-8243000D01*
X16608000Y-4202500D02*
X16648000Y-4242500D01*
X16648000Y-4202500D02*
X16608000Y-4242500D01*
X16608000Y-4837500D02*
X16648000Y-4877500D01*
X16648000Y-4837500D02*
X16608000Y-4877500D01*
X16671500Y-8457000D02*
X16711500Y-8497000D01*
X16711500Y-8457000D02*
X16671500Y-8497000D01*
X16735000Y-6234500D02*
X16775000Y-6274500D01*
X16775000Y-6234500D02*
X16735000Y-6274500D01*
X16989000Y-4837500D02*
X17029000Y-4877500D01*
X17029000Y-4837500D02*
X16989000Y-4877500D01*
X16989000Y-7631500D02*
X17029000Y-7671500D01*
X17029000Y-7631500D02*
X16989000Y-7671500D01*
X17179500Y-9790500D02*
X17219500Y-9830500D01*
X17219500Y-9790500D02*
X17179500Y-9830500D01*
X17243000Y-4837500D02*
X17283000Y-4877500D01*
X17283000Y-4837500D02*
X17243000Y-4877500D01*
X10599000Y-4496500D02*
G75*
G03*
X10599000Y-4496500I-20000J0D01*
G01*
X10599000Y-4581500D02*
G75*
G03*
X10599000Y-4581500I-20000J0D01*
G01*
X10599000Y-4666500D02*
G75*
G03*
X10599000Y-4666500I-20000J0D01*
G01*
X10599000Y-4751500D02*
G75*
G03*
X10599000Y-4751500I-20000J0D01*
G01*
X10599000Y-4836500D02*
G75*
G03*
X10599000Y-4836500I-20000J0D01*
G01*
X10599000Y-4921500D02*
G75*
G03*
X10599000Y-4921500I-20000J0D01*
G01*
X10599000Y-5006500D02*
G75*
G03*
X10599000Y-5006500I-20000J0D01*
G01*
X10599000Y-5091500D02*
G75*
G03*
X10599000Y-5091500I-20000J0D01*
G01*
X10734000Y-4496500D02*
G75*
G03*
X10734000Y-4496500I-20000J0D01*
G01*
X10734000Y-4581500D02*
G75*
G03*
X10734000Y-4581500I-20000J0D01*
G01*
X10734000Y-4666500D02*
G75*
G03*
X10734000Y-4666500I-20000J0D01*
G01*
X10734000Y-4751500D02*
G75*
G03*
X10734000Y-4751500I-20000J0D01*
G01*
X10734000Y-4836500D02*
G75*
G03*
X10734000Y-4836500I-20000J0D01*
G01*
X10734000Y-4921500D02*
G75*
G03*
X10734000Y-4921500I-20000J0D01*
G01*
X10734000Y-5006500D02*
G75*
G03*
X10734000Y-5006500I-20000J0D01*
G01*
X10734000Y-5091500D02*
G75*
G03*
X10734000Y-5091500I-20000J0D01*
G01*
D13*
X10278000Y-4331500D02*
X10278000Y-4391500D01*
X10248000Y-4361500D02*
X10308000Y-4361500D01*
D11*
X10318000Y-4331500D02*
X10238000Y-4331500D01*
X10238000Y-4331500D02*
G75*
G03*
X10238000Y-4391500I0J-30000D01*
G01*
X10238000Y-4391500D02*
X10318000Y-4391500D01*
X10318000Y-4391500D02*
G75*
G03*
X10318000Y-4331500I0J30000D01*
G01*
D13*
X10278000Y-5196500D02*
X10278000Y-5256500D01*
X10248000Y-5226500D02*
X10308000Y-5226500D01*
D11*
X10318000Y-5196500D02*
X10238000Y-5196500D01*
X10238000Y-5196500D02*
G75*
G03*
X10238000Y-5256500I0J-30000D01*
G01*
X10238000Y-5256500D02*
X10318000Y-5256500D01*
X10318000Y-5256500D02*
G75*
G03*
X10318000Y-5196500I0J30000D01*
G01*
D13*
X10616000Y-4331500D02*
X10616000Y-4391500D01*
X10586000Y-4361500D02*
X10646000Y-4361500D01*
D11*
X10691000Y-4331500D02*
X10541000Y-4331500D01*
X10541000Y-4331500D02*
G75*
G03*
X10541000Y-4391500I0J-30000D01*
G01*
X10541000Y-4391500D02*
X10691000Y-4391500D01*
X10691000Y-4391500D02*
G75*
G03*
X10691000Y-4331500I0J30000D01*
G01*
D13*
X10616000Y-5196500D02*
X10616000Y-5256500D01*
X10586000Y-5226500D02*
X10646000Y-5226500D01*
D11*
X10691000Y-5196500D02*
X10541000Y-5196500D01*
X10541000Y-5196500D02*
G75*
G03*
X10541000Y-5256500I0J-30000D01*
G01*
X10541000Y-5256500D02*
X10691000Y-5256500D01*
X10691000Y-5256500D02*
G75*
G03*
X10691000Y-5196500I0J30000D01*
G01*
D14*
X12080749Y-3624749D02*
X12080749Y-3575251D01*
X12031251Y-3575251D01*
X12031251Y-3624749D01*
X12080749Y-3624749D01*
X12080749Y-3939749D02*
X12080749Y-3890251D01*
X12031251Y-3890251D01*
X12031251Y-3939749D01*
X12080749Y-3939749D01*
X12080749Y-4254749D02*
X12080749Y-4205251D01*
X12031251Y-4205251D01*
X12031251Y-4254749D01*
X12080749Y-4254749D01*
X12080749Y-4564749D02*
X12080749Y-4515251D01*
X12031251Y-4515251D01*
X12031251Y-4564749D01*
X12080749Y-4564749D01*
X12080749Y-4884749D02*
X12080749Y-4835251D01*
X12031251Y-4835251D01*
X12031251Y-4884749D01*
X12080749Y-4884749D01*
X12080749Y-5199749D02*
X12080749Y-5150251D01*
X12031251Y-5150251D01*
X12031251Y-5199749D01*
X12080749Y-5199749D01*
X12588749Y-3624749D02*
X12588749Y-3575251D01*
X12539251Y-3575251D01*
X12539251Y-3624749D01*
X12588749Y-3624749D01*
X12588749Y-3939749D02*
X12588749Y-3890251D01*
X12539251Y-3890251D01*
X12539251Y-3939749D01*
X12588749Y-3939749D01*
X12588749Y-4254749D02*
X12588749Y-4205251D01*
X12539251Y-4205251D01*
X12539251Y-4254749D01*
X12588749Y-4254749D01*
X12588749Y-4564749D02*
X12588749Y-4515251D01*
X12539251Y-4515251D01*
X12539251Y-4564749D01*
X12588749Y-4564749D01*
X12588749Y-4884749D02*
X12588749Y-4835251D01*
X12539251Y-4835251D01*
X12539251Y-4884749D01*
X12588749Y-4884749D01*
X12588749Y-5199749D02*
X12588749Y-5150251D01*
X12539251Y-5150251D01*
X12539251Y-5199749D01*
X12588749Y-5199749D01*
D15*
X10913000Y-3564000D02*
X10953000Y-3524000D01*
X10913000Y-3484000D01*
X10873000Y-3524000D01*
X10913000Y-3564000D01*
X10913000Y-3881500D02*
X10953000Y-3841500D01*
X10913000Y-3801500D01*
X10873000Y-3841500D01*
X10913000Y-3881500D01*
X11294000Y-4897500D02*
X11334000Y-4857500D01*
X11294000Y-4817500D01*
X11254000Y-4857500D01*
X11294000Y-4897500D01*
X11294000Y-5147500D02*
X11334000Y-5107500D01*
X11294000Y-5067500D01*
X11254000Y-5107500D01*
X11294000Y-5147500D01*
X11675000Y-3564000D02*
X11715000Y-3524000D01*
X11675000Y-3484000D01*
X11635000Y-3524000D01*
X11675000Y-3564000D01*
X11675000Y-3881500D02*
X11715000Y-3841500D01*
X11675000Y-3801500D01*
X11635000Y-3841500D01*
X11675000Y-3881500D01*
X13961000Y-3504500D02*
X14001000Y-3464500D01*
X13961000Y-3424500D01*
X13921000Y-3464500D01*
X13961000Y-3504500D01*
X13961000Y-4004500D02*
X14001000Y-3964500D01*
X13961000Y-3924500D01*
X13921000Y-3964500D01*
X13961000Y-4004500D01*
X14214000Y-4516500D02*
X14254000Y-4476500D01*
X14214000Y-4436500D01*
X14174000Y-4476500D01*
X14214000Y-4516500D01*
X14214000Y-5278500D02*
X14254000Y-5238500D01*
X14214000Y-5198500D01*
X14174000Y-5238500D01*
X14214000Y-5278500D01*
X14468000Y-4516500D02*
X14508000Y-4476500D01*
X14468000Y-4436500D01*
X14428000Y-4476500D01*
X14468000Y-4516500D01*
X14468000Y-5278500D02*
X14508000Y-5238500D01*
X14468000Y-5198500D01*
X14428000Y-5238500D01*
X14468000Y-5278500D01*
X14478000Y-3818000D02*
X14518000Y-3778000D01*
X14478000Y-3738000D01*
X14438000Y-3778000D01*
X14478000Y-3818000D01*
X14722000Y-4516500D02*
X14762000Y-4476500D01*
X14722000Y-4436500D01*
X14682000Y-4476500D01*
X14722000Y-4516500D01*
X14722000Y-5278500D02*
X14762000Y-5238500D01*
X14722000Y-5198500D01*
X14682000Y-5238500D01*
X14722000Y-5278500D01*
X14966000Y-3818000D02*
X15006000Y-3778000D01*
X14966000Y-3738000D01*
X14926000Y-3778000D01*
X14966000Y-3818000D01*
X14976000Y-4516500D02*
X15016000Y-4476500D01*
X14976000Y-4436500D01*
X14936000Y-4476500D01*
X14976000Y-4516500D01*
X14976000Y-5278500D02*
X15016000Y-5238500D01*
X14976000Y-5198500D01*
X14936000Y-5238500D01*
X14976000Y-5278500D01*
X15230000Y-4516500D02*
X15270000Y-4476500D01*
X15230000Y-4436500D01*
X15190000Y-4476500D01*
X15230000Y-4516500D01*
X15230000Y-5278500D02*
X15270000Y-5238500D01*
X15230000Y-5198500D01*
X15190000Y-5238500D01*
X15230000Y-5278500D01*
X15484000Y-4516500D02*
X15524000Y-4476500D01*
X15484000Y-4436500D01*
X15444000Y-4476500D01*
X15484000Y-4516500D01*
X15484000Y-5278500D02*
X15524000Y-5238500D01*
X15484000Y-5198500D01*
X15444000Y-5238500D01*
X15484000Y-5278500D01*
X15485000Y-3504500D02*
X15525000Y-3464500D01*
X15485000Y-3424500D01*
X15445000Y-3464500D01*
X15485000Y-3504500D01*
X15485000Y-4004500D02*
X15525000Y-3964500D01*
X15485000Y-3924500D01*
X15445000Y-3964500D01*
X15485000Y-4004500D01*
X15738000Y-4516500D02*
X15778000Y-4476500D01*
X15738000Y-4436500D01*
X15698000Y-4476500D01*
X15738000Y-4516500D01*
X15738000Y-5278500D02*
X15778000Y-5238500D01*
X15738000Y-5198500D01*
X15698000Y-5238500D01*
X15738000Y-5278500D01*
X15741000Y-4262500D02*
X15781000Y-4222500D01*
X15741000Y-4182500D01*
X15701000Y-4222500D01*
X15741000Y-4262500D01*
X15991000Y-4262500D02*
X16031000Y-4222500D01*
X15991000Y-4182500D01*
X15951000Y-4222500D01*
X15991000Y-4262500D01*
X15992000Y-4516500D02*
X16032000Y-4476500D01*
X15992000Y-4436500D01*
X15952000Y-4476500D01*
X15992000Y-4516500D01*
X15992000Y-5278500D02*
X16032000Y-5238500D01*
X15992000Y-5198500D01*
X15952000Y-5238500D01*
X15992000Y-5278500D01*
X15995000Y-5532500D02*
X16035000Y-5492500D01*
X15995000Y-5452500D01*
X15955000Y-5492500D01*
X15995000Y-5532500D01*
X16245000Y-5532500D02*
X16285000Y-5492500D01*
X16245000Y-5452500D01*
X16205000Y-5492500D01*
X16245000Y-5532500D01*
X16246000Y-4516500D02*
X16286000Y-4476500D01*
X16246000Y-4436500D01*
X16206000Y-4476500D01*
X16246000Y-4516500D01*
X16246000Y-5278500D02*
X16286000Y-5238500D01*
X16246000Y-5198500D01*
X16206000Y-5238500D01*
X16246000Y-5278500D01*
X16500000Y-4516500D02*
X16540000Y-4476500D01*
X16500000Y-4436500D01*
X16460000Y-4476500D01*
X16500000Y-4516500D01*
X16500000Y-5278500D02*
X16540000Y-5238500D01*
X16500000Y-5198500D01*
X16460000Y-5238500D01*
X16500000Y-5278500D01*
X16754000Y-4516500D02*
X16794000Y-4476500D01*
X16754000Y-4436500D01*
X16714000Y-4476500D01*
X16754000Y-4516500D01*
X16754000Y-5278500D02*
X16794000Y-5238500D01*
X16754000Y-5198500D01*
X16714000Y-5238500D01*
X16754000Y-5278500D01*
X17008000Y-4516500D02*
X17048000Y-4476500D01*
X17008000Y-4436500D01*
X16968000Y-4476500D01*
X17008000Y-4516500D01*
X17008000Y-5278500D02*
X17048000Y-5238500D01*
X17008000Y-5198500D01*
X16968000Y-5238500D01*
X17008000Y-5278500D01*
X17262000Y-4516500D02*
X17302000Y-4476500D01*
X17262000Y-4436500D01*
X17222000Y-4476500D01*
X17262000Y-4516500D01*
X17262000Y-5278500D02*
X17302000Y-5238500D01*
X17262000Y-5198500D01*
X17222000Y-5238500D01*
X17262000Y-5278500D01*
X17516000Y-4516500D02*
X17556000Y-4476500D01*
X17516000Y-4436500D01*
X17476000Y-4476500D01*
X17516000Y-4516500D01*
X17516000Y-5278500D02*
X17556000Y-5238500D01*
X17516000Y-5198500D01*
X17476000Y-5238500D01*
X17516000Y-5278500D01*
D10*
X10994000Y-4363000D02*
X11094000Y-4463000D01*
X11094000Y-4363000D02*
X10994000Y-4463000D01*
X11094000Y-4413000D02*
G75*
G03*
X11094000Y-4413000I-50000J0D01*
G01*
X11494000Y-4363000D02*
X11594000Y-4463000D01*
X11594000Y-4363000D02*
X11494000Y-4463000D01*
X11594000Y-4413000D02*
G75*
G03*
X11594000Y-4413000I-50000J0D01*
G01*
X12069500Y-5633000D02*
X12169500Y-5733000D01*
X12169500Y-5633000D02*
X12069500Y-5733000D01*
X12169500Y-5683000D02*
G75*
G03*
X12169500Y-5683000I-50000J0D01*
G01*
X12069500Y-6052100D02*
X12169500Y-6152100D01*
X12169500Y-6052100D02*
X12069500Y-6152100D01*
X12169500Y-6102100D02*
G75*
G03*
X12169500Y-6102100I-50000J0D01*
G01*
X12323500Y-5633000D02*
X12423500Y-5733000D01*
X12423500Y-5633000D02*
X12323500Y-5733000D01*
X12423500Y-5683000D02*
G75*
G03*
X12423500Y-5683000I-50000J0D01*
G01*
X12323500Y-6052100D02*
X12423500Y-6152100D01*
X12423500Y-6052100D02*
X12323500Y-6152100D01*
X12423500Y-6102100D02*
G75*
G03*
X12423500Y-6102100I-50000J0D01*
G01*
X12577500Y-5633000D02*
X12677500Y-5733000D01*
X12677500Y-5633000D02*
X12577500Y-5733000D01*
X12677500Y-5683000D02*
G75*
G03*
X12677500Y-5683000I-50000J0D01*
G01*
X12577500Y-6052100D02*
X12677500Y-6152100D01*
X12677500Y-6052100D02*
X12577500Y-6152100D01*
X12677500Y-6102100D02*
G75*
G03*
X12677500Y-6102100I-50000J0D01*
G01*
X12831500Y-5633000D02*
X12931500Y-5733000D01*
X12931500Y-5633000D02*
X12831500Y-5733000D01*
X12931500Y-5683000D02*
G75*
G03*
X12931500Y-5683000I-50000J0D01*
G01*
X12831500Y-6052100D02*
X12931500Y-6152100D01*
X12931500Y-6052100D02*
X12831500Y-6152100D01*
X12931500Y-6102100D02*
G75*
G03*
X12931500Y-6102100I-50000J0D01*
G01*
X13085500Y-5633000D02*
X13185500Y-5733000D01*
X13185500Y-5633000D02*
X13085500Y-5733000D01*
X13185500Y-5683000D02*
G75*
G03*
X13185500Y-5683000I-50000J0D01*
G01*
X13085500Y-6052100D02*
X13185500Y-6152100D01*
X13185500Y-6052100D02*
X13085500Y-6152100D01*
X13185500Y-6102100D02*
G75*
G03*
X13185500Y-6102100I-50000J0D01*
G01*
X13339500Y-5633000D02*
X13439500Y-5733000D01*
X13439500Y-5633000D02*
X13339500Y-5733000D01*
X13439500Y-5683000D02*
G75*
G03*
X13439500Y-5683000I-50000J0D01*
G01*
X13339500Y-6052100D02*
X13439500Y-6152100D01*
X13439500Y-6052100D02*
X13339500Y-6152100D01*
X13439500Y-6102100D02*
G75*
G03*
X13439500Y-6102100I-50000J0D01*
G01*
X13593500Y-5633000D02*
X13693500Y-5733000D01*
X13693500Y-5633000D02*
X13593500Y-5733000D01*
X13693500Y-5683000D02*
G75*
G03*
X13693500Y-5683000I-50000J0D01*
G01*
X13593500Y-6052100D02*
X13693500Y-6152100D01*
X13693500Y-6052100D02*
X13593500Y-6152100D01*
X13693500Y-6102100D02*
G75*
G03*
X13693500Y-6102100I-50000J0D01*
G01*
X13847500Y-5633000D02*
X13947500Y-5733000D01*
X13947500Y-5633000D02*
X13847500Y-5733000D01*
X13947500Y-5683000D02*
G75*
G03*
X13947500Y-5683000I-50000J0D01*
G01*
X13847500Y-6052100D02*
X13947500Y-6152100D01*
X13947500Y-6052100D02*
X13847500Y-6152100D01*
X13947500Y-6102100D02*
G75*
G03*
X13947500Y-6102100I-50000J0D01*
G01*
X14101500Y-5633000D02*
X14201500Y-5733000D01*
X14201500Y-5633000D02*
X14101500Y-5733000D01*
X14201500Y-5683000D02*
G75*
G03*
X14201500Y-5683000I-50000J0D01*
G01*
X14101500Y-6052100D02*
X14201500Y-6152100D01*
X14201500Y-6052100D02*
X14101500Y-6152100D01*
X14201500Y-6102100D02*
G75*
G03*
X14201500Y-6102100I-50000J0D01*
G01*
X14355500Y-5633000D02*
X14455500Y-5733000D01*
X14455500Y-5633000D02*
X14355500Y-5733000D01*
X14455500Y-5683000D02*
G75*
G03*
X14455500Y-5683000I-50000J0D01*
G01*
X14355500Y-6052100D02*
X14455500Y-6152100D01*
X14455500Y-6052100D02*
X14355500Y-6152100D01*
X14455500Y-6102100D02*
G75*
G03*
X14455500Y-6102100I-50000J0D01*
G01*
X14609500Y-5633000D02*
X14709500Y-5733000D01*
X14709500Y-5633000D02*
X14609500Y-5733000D01*
X14709500Y-5683000D02*
G75*
G03*
X14709500Y-5683000I-50000J0D01*
G01*
X14609500Y-6052100D02*
X14709500Y-6152100D01*
X14709500Y-6052100D02*
X14609500Y-6152100D01*
X14709500Y-6102100D02*
G75*
G03*
X14709500Y-6102100I-50000J0D01*
G01*
X14863500Y-5633000D02*
X14963500Y-5733000D01*
X14963500Y-5633000D02*
X14863500Y-5733000D01*
X14963500Y-5683000D02*
G75*
G03*
X14963500Y-5683000I-50000J0D01*
G01*
X14863500Y-6052100D02*
X14963500Y-6152100D01*
X14963500Y-6052100D02*
X14863500Y-6152100D01*
X14963500Y-6102100D02*
G75*
G03*
X14963500Y-6102100I-50000J0D01*
G01*
X15117500Y-5633000D02*
X15217500Y-5733000D01*
X15217500Y-5633000D02*
X15117500Y-5733000D01*
X15217500Y-5683000D02*
G75*
G03*
X15217500Y-5683000I-50000J0D01*
G01*
X15117500Y-6052100D02*
X15217500Y-6152100D01*
X15217500Y-6052100D02*
X15117500Y-6152100D01*
X15217500Y-6102100D02*
G75*
G03*
X15217500Y-6102100I-50000J0D01*
G01*
X15371500Y-5633000D02*
X15471500Y-5733000D01*
X15471500Y-5633000D02*
X15371500Y-5733000D01*
X15471500Y-5683000D02*
G75*
G03*
X15471500Y-5683000I-50000J0D01*
G01*
X15371500Y-6052100D02*
X15471500Y-6152100D01*
X15471500Y-6052100D02*
X15371500Y-6152100D01*
X15471500Y-6102100D02*
G75*
G03*
X15471500Y-6102100I-50000J0D01*
G01*
X15625500Y-5633000D02*
X15725500Y-5733000D01*
X15725500Y-5633000D02*
X15625500Y-5733000D01*
X15725500Y-5683000D02*
G75*
G03*
X15725500Y-5683000I-50000J0D01*
G01*
X15625500Y-6052100D02*
X15725500Y-6152100D01*
X15725500Y-6052100D02*
X15625500Y-6152100D01*
X15725500Y-6102100D02*
G75*
G03*
X15725500Y-6102100I-50000J0D01*
G01*
X16006500Y-3537500D02*
X16106500Y-3637500D01*
X16106500Y-3537500D02*
X16006500Y-3637500D01*
X16106500Y-3587500D02*
G75*
G03*
X16106500Y-3587500I-50000J0D01*
G01*
X16006500Y-3791500D02*
X16106500Y-3891500D01*
X16106500Y-3791500D02*
X16006500Y-3891500D01*
X16106500Y-3841500D02*
G75*
G03*
X16106500Y-3841500I-50000J0D01*
G01*
X16260500Y-3537500D02*
X16360500Y-3637500D01*
X16360500Y-3537500D02*
X16260500Y-3637500D01*
X16360500Y-3587500D02*
G75*
G03*
X16360500Y-3587500I-50000J0D01*
G01*
X16260500Y-3791500D02*
X16360500Y-3891500D01*
X16360500Y-3791500D02*
X16260500Y-3891500D01*
X16360500Y-3841500D02*
G75*
G03*
X16360500Y-3841500I-50000J0D01*
G01*
X16514500Y-3537500D02*
X16614500Y-3637500D01*
X16614500Y-3537500D02*
X16514500Y-3637500D01*
X16614500Y-3587500D02*
G75*
G03*
X16614500Y-3587500I-50000J0D01*
G01*
X16514500Y-3791500D02*
X16614500Y-3891500D01*
X16614500Y-3791500D02*
X16514500Y-3891500D01*
X16614500Y-3841500D02*
G75*
G03*
X16614500Y-3841500I-50000J0D01*
G01*
D16*
X12932105Y-3573387D02*
X13042105Y-3683387D01*
X13042105Y-3573387D02*
X12932105Y-3683387D01*
X12987105Y-3573387D02*
X12987105Y-3683387D01*
X12932105Y-3628387D02*
X13042105Y-3628387D01*
X12932105Y-4023387D02*
X13042105Y-4133387D01*
X13042105Y-4023387D02*
X12932105Y-4133387D01*
X12987105Y-4023387D02*
X12987105Y-4133387D01*
X12932105Y-4078387D02*
X13042105Y-4078387D01*
X12932105Y-4428387D02*
X13042105Y-4538387D01*
X13042105Y-4428387D02*
X12932105Y-4538387D01*
X12987105Y-4428387D02*
X12987105Y-4538387D01*
X12932105Y-4483387D02*
X13042105Y-4483387D01*
X12932105Y-4878387D02*
X13042105Y-4988387D01*
X13042105Y-4878387D02*
X12932105Y-4988387D01*
X12987105Y-4878387D02*
X12987105Y-4988387D01*
X12932105Y-4933387D02*
X13042105Y-4933387D01*
X13582105Y-3573387D02*
X13692105Y-3683387D01*
X13692105Y-3573387D02*
X13582105Y-3683387D01*
X13637105Y-3573387D02*
X13637105Y-3683387D01*
X13582105Y-3628387D02*
X13692105Y-3628387D01*
X13582105Y-4023387D02*
X13692105Y-4133387D01*
X13692105Y-4023387D02*
X13582105Y-4133387D01*
X13637105Y-4023387D02*
X13637105Y-4133387D01*
X13582105Y-4078387D02*
X13692105Y-4078387D01*
X13582105Y-4428387D02*
X13692105Y-4538387D01*
X13692105Y-4428387D02*
X13582105Y-4538387D01*
X13637105Y-4428387D02*
X13637105Y-4538387D01*
X13582105Y-4483387D02*
X13692105Y-4483387D01*
X13582105Y-4878387D02*
X13692105Y-4988387D01*
X13692105Y-4878387D02*
X13582105Y-4988387D01*
X13637105Y-4878387D02*
X13637105Y-4988387D01*
X13582105Y-4933387D02*
X13692105Y-4933387D01*
D17*
X10584000Y-14244000D02*
X10734000Y-14394000D01*
X10734000Y-14244000D02*
X10584000Y-14394000D01*
X10712034Y-14372033D02*
X10712034Y-14265966D01*
X10605967Y-14265966D01*
X10605967Y-14372033D01*
X10712034Y-14372033D01*
X10711000Y-7386000D02*
X10861000Y-7536000D01*
X10861000Y-7386000D02*
X10711000Y-7536000D01*
X10839034Y-7514033D02*
X10839034Y-7407966D01*
X10732967Y-7407966D01*
X10732967Y-7514033D01*
X10839034Y-7514033D01*
X10711000Y-9291000D02*
X10861000Y-9441000D01*
X10861000Y-9291000D02*
X10711000Y-9441000D01*
X10839034Y-9419034D02*
X10839034Y-9312967D01*
X10732967Y-9312967D01*
X10732967Y-9419034D01*
X10839034Y-9419034D01*
X10711000Y-11196000D02*
X10861000Y-11346000D01*
X10861000Y-11196000D02*
X10711000Y-11346000D01*
X10839034Y-11324033D02*
X10839034Y-11217966D01*
X10732967Y-11217966D01*
X10732967Y-11324033D01*
X10839034Y-11324033D01*
X10711000Y-13101000D02*
X10861000Y-13251000D01*
X10861000Y-13101000D02*
X10711000Y-13251000D01*
X10839034Y-13229033D02*
X10839034Y-13122966D01*
X10732967Y-13122966D01*
X10732967Y-13229033D01*
X10839034Y-13229033D01*
X11219000Y-13990000D02*
X11369000Y-14140000D01*
X11369000Y-13990000D02*
X11219000Y-14140000D01*
X11347033Y-14118033D02*
X11347033Y-14011966D01*
X11240966Y-14011966D01*
X11240966Y-14118033D01*
X11347033Y-14118033D01*
X11346000Y-7132000D02*
X11496000Y-7282000D01*
X11496000Y-7132000D02*
X11346000Y-7282000D01*
X11474033Y-7260033D02*
X11474033Y-7153966D01*
X11367966Y-7153966D01*
X11367966Y-7260033D01*
X11474033Y-7260033D01*
X11346000Y-9037000D02*
X11496000Y-9187000D01*
X11496000Y-9037000D02*
X11346000Y-9187000D01*
X11474033Y-9165034D02*
X11474033Y-9058967D01*
X11367966Y-9058967D01*
X11367966Y-9165034D01*
X11474033Y-9165034D01*
X11346000Y-10942000D02*
X11496000Y-11092000D01*
X11496000Y-10942000D02*
X11346000Y-11092000D01*
X11474033Y-11070034D02*
X11474033Y-10963967D01*
X11367966Y-10963967D01*
X11367966Y-11070034D01*
X11474033Y-11070034D01*
X11346000Y-12847000D02*
X11496000Y-12997000D01*
X11496000Y-12847000D02*
X11346000Y-12997000D01*
X11474033Y-12975033D02*
X11474033Y-12868966D01*
X11367966Y-12868966D01*
X11367966Y-12975033D01*
X11474033Y-12975033D01*
X11663500Y-15006000D02*
X11813500Y-15156000D01*
X11813500Y-15006000D02*
X11663500Y-15156000D01*
X11791533Y-15134033D02*
X11791533Y-15027966D01*
X11685466Y-15027966D01*
X11685466Y-15134033D01*
X11791533Y-15134033D01*
X12298500Y-14752000D02*
X12448500Y-14902000D01*
X12448500Y-14752000D02*
X12298500Y-14902000D01*
X12426533Y-14880033D02*
X12426533Y-14773966D01*
X12320466Y-14773966D01*
X12320466Y-14880033D01*
X12426533Y-14880033D01*
X12616000Y-7386000D02*
X12766000Y-7536000D01*
X12766000Y-7386000D02*
X12616000Y-7536000D01*
X12744033Y-7514033D02*
X12744033Y-7407966D01*
X12637966Y-7407966D01*
X12637966Y-7514033D01*
X12744033Y-7514033D01*
X12616000Y-9291000D02*
X12766000Y-9441000D01*
X12766000Y-9291000D02*
X12616000Y-9441000D01*
X12744033Y-9419034D02*
X12744033Y-9312967D01*
X12637966Y-9312967D01*
X12637966Y-9419034D01*
X12744033Y-9419034D01*
X12616000Y-11196000D02*
X12766000Y-11346000D01*
X12766000Y-11196000D02*
X12616000Y-11346000D01*
X12744033Y-11324033D02*
X12744033Y-11217966D01*
X12637966Y-11217966D01*
X12637966Y-11324033D01*
X12744033Y-11324033D01*
X12616000Y-13101000D02*
X12766000Y-13251000D01*
X12766000Y-13101000D02*
X12616000Y-13251000D01*
X12744033Y-13229033D02*
X12744033Y-13122966D01*
X12637966Y-13122966D01*
X12637966Y-13229033D01*
X12744033Y-13229033D01*
X12616000Y-15006000D02*
X12766000Y-15156000D01*
X12766000Y-15006000D02*
X12616000Y-15156000D01*
X12744033Y-15134033D02*
X12744033Y-15027966D01*
X12637966Y-15027966D01*
X12637966Y-15134033D01*
X12744033Y-15134033D01*
X13251000Y-7132000D02*
X13401000Y-7282000D01*
X13401000Y-7132000D02*
X13251000Y-7282000D01*
X13379033Y-7260033D02*
X13379033Y-7153966D01*
X13272966Y-7153966D01*
X13272966Y-7260033D01*
X13379033Y-7260033D01*
X13251000Y-9037000D02*
X13401000Y-9187000D01*
X13401000Y-9037000D02*
X13251000Y-9187000D01*
X13379033Y-9165034D02*
X13379033Y-9058967D01*
X13272966Y-9058967D01*
X13272966Y-9165034D01*
X13379033Y-9165034D01*
X13251000Y-10942000D02*
X13401000Y-11092000D01*
X13401000Y-10942000D02*
X13251000Y-11092000D01*
X13379033Y-11070034D02*
X13379033Y-10963967D01*
X13272966Y-10963967D01*
X13272966Y-11070034D01*
X13379033Y-11070034D01*
X13251000Y-12847000D02*
X13401000Y-12997000D01*
X13401000Y-12847000D02*
X13251000Y-12997000D01*
X13379033Y-12975033D02*
X13379033Y-12868966D01*
X13272966Y-12868966D01*
X13272966Y-12975033D01*
X13379033Y-12975033D01*
X13251000Y-14752000D02*
X13401000Y-14902000D01*
X13401000Y-14752000D02*
X13251000Y-14902000D01*
X13379033Y-14880033D02*
X13379033Y-14773966D01*
X13272966Y-14773966D01*
X13272966Y-14880033D01*
X13379033Y-14880033D01*
X14521000Y-7386000D02*
X14671000Y-7536000D01*
X14671000Y-7386000D02*
X14521000Y-7536000D01*
X14649033Y-7514033D02*
X14649033Y-7407966D01*
X14542966Y-7407966D01*
X14542966Y-7514033D01*
X14649033Y-7514033D01*
X14521000Y-9291000D02*
X14671000Y-9441000D01*
X14671000Y-9291000D02*
X14521000Y-9441000D01*
X14649033Y-9419034D02*
X14649033Y-9312967D01*
X14542966Y-9312967D01*
X14542966Y-9419034D01*
X14649033Y-9419034D01*
X14521000Y-11196000D02*
X14671000Y-11346000D01*
X14671000Y-11196000D02*
X14521000Y-11346000D01*
X14649033Y-11324033D02*
X14649033Y-11217966D01*
X14542966Y-11217966D01*
X14542966Y-11324033D01*
X14649033Y-11324033D01*
X14521000Y-13101000D02*
X14671000Y-13251000D01*
X14671000Y-13101000D02*
X14521000Y-13251000D01*
X14649033Y-13229033D02*
X14649033Y-13122966D01*
X14542966Y-13122966D01*
X14542966Y-13229033D01*
X14649033Y-13229033D01*
X14521000Y-15006000D02*
X14671000Y-15156000D01*
X14671000Y-15006000D02*
X14521000Y-15156000D01*
X14649033Y-15134033D02*
X14649033Y-15027966D01*
X14542966Y-15027966D01*
X14542966Y-15134033D01*
X14649033Y-15134033D01*
X15156000Y-7132000D02*
X15306000Y-7282000D01*
X15306000Y-7132000D02*
X15156000Y-7282000D01*
X15284033Y-7260033D02*
X15284033Y-7153966D01*
X15177966Y-7153966D01*
X15177966Y-7260033D01*
X15284033Y-7260033D01*
X15156000Y-9037000D02*
X15306000Y-9187000D01*
X15306000Y-9037000D02*
X15156000Y-9187000D01*
X15284033Y-9165034D02*
X15284033Y-9058967D01*
X15177966Y-9058967D01*
X15177966Y-9165034D01*
X15284033Y-9165034D01*
X15156000Y-10942000D02*
X15306000Y-11092000D01*
X15306000Y-10942000D02*
X15156000Y-11092000D01*
X15284033Y-11070034D02*
X15284033Y-10963967D01*
X15177966Y-10963967D01*
X15177966Y-11070034D01*
X15284033Y-11070034D01*
X15156000Y-12847000D02*
X15306000Y-12997000D01*
X15306000Y-12847000D02*
X15156000Y-12997000D01*
X15284033Y-12975033D02*
X15284033Y-12868966D01*
X15177966Y-12868966D01*
X15177966Y-12975033D01*
X15284033Y-12975033D01*
X15156000Y-14752000D02*
X15306000Y-14902000D01*
X15306000Y-14752000D02*
X15156000Y-14902000D01*
X15284033Y-14880033D02*
X15284033Y-14773966D01*
X15177966Y-14773966D01*
X15177966Y-14880033D01*
X15284033Y-14880033D01*
X16426000Y-7386000D02*
X16576000Y-7536000D01*
X16576000Y-7386000D02*
X16426000Y-7536000D01*
X16554033Y-7514033D02*
X16554033Y-7407966D01*
X16447966Y-7407966D01*
X16447966Y-7514033D01*
X16554033Y-7514033D01*
X16426000Y-9291000D02*
X16576000Y-9441000D01*
X16576000Y-9291000D02*
X16426000Y-9441000D01*
X16554033Y-9419034D02*
X16554033Y-9312967D01*
X16447966Y-9312967D01*
X16447966Y-9419034D01*
X16554033Y-9419034D01*
X16426000Y-11196000D02*
X16576000Y-11346000D01*
X16576000Y-11196000D02*
X16426000Y-11346000D01*
X16554033Y-11324033D02*
X16554033Y-11217966D01*
X16447966Y-11217966D01*
X16447966Y-11324033D01*
X16554033Y-11324033D01*
X16426000Y-13101000D02*
X16576000Y-13251000D01*
X16576000Y-13101000D02*
X16426000Y-13251000D01*
X16554033Y-13229033D02*
X16554033Y-13122966D01*
X16447966Y-13122966D01*
X16447966Y-13229033D01*
X16554033Y-13229033D01*
X16426000Y-15006000D02*
X16576000Y-15156000D01*
X16576000Y-15006000D02*
X16426000Y-15156000D01*
X16554033Y-15134033D02*
X16554033Y-15027966D01*
X16447966Y-15027966D01*
X16447966Y-15134033D01*
X16554033Y-15134033D01*
X16934000Y-9354500D02*
X17084000Y-9504500D01*
X17084000Y-9354500D02*
X16934000Y-9504500D01*
X17062034Y-9482534D02*
X17062034Y-9376467D01*
X16955967Y-9376467D01*
X16955967Y-9482534D01*
X17062034Y-9482534D01*
X16934000Y-13164500D02*
X17084000Y-13314500D01*
X17084000Y-13164500D02*
X16934000Y-13314500D01*
X17062034Y-13292533D02*
X17062034Y-13186466D01*
X16955967Y-13186466D01*
X16955967Y-13292533D01*
X17062034Y-13292533D01*
X17061000Y-7132000D02*
X17211000Y-7282000D01*
X17211000Y-7132000D02*
X17061000Y-7282000D01*
X17189034Y-7260033D02*
X17189034Y-7153966D01*
X17082967Y-7153966D01*
X17082967Y-7260033D01*
X17189034Y-7260033D01*
X17061000Y-9037000D02*
X17211000Y-9187000D01*
X17211000Y-9037000D02*
X17061000Y-9187000D01*
X17189034Y-9165034D02*
X17189034Y-9058967D01*
X17082967Y-9058967D01*
X17082967Y-9165034D01*
X17189034Y-9165034D01*
X17061000Y-10942000D02*
X17211000Y-11092000D01*
X17211000Y-10942000D02*
X17061000Y-11092000D01*
X17189034Y-11070034D02*
X17189034Y-10963967D01*
X17082967Y-10963967D01*
X17082967Y-11070034D01*
X17189034Y-11070034D01*
X17061000Y-12847000D02*
X17211000Y-12997000D01*
X17211000Y-12847000D02*
X17061000Y-12997000D01*
X17189034Y-12975033D02*
X17189034Y-12868966D01*
X17082967Y-12868966D01*
X17082967Y-12975033D01*
X17189034Y-12975033D01*
X17061000Y-14752000D02*
X17211000Y-14902000D01*
X17211000Y-14752000D02*
X17061000Y-14902000D01*
X17189034Y-14880033D02*
X17189034Y-14773966D01*
X17082967Y-14773966D01*
X17082967Y-14880033D01*
X17189034Y-14880033D01*
X17188000Y-9989500D02*
X17338000Y-10139500D01*
X17338000Y-9989500D02*
X17188000Y-10139500D01*
X17316034Y-10117534D02*
X17316034Y-10011467D01*
X17209967Y-10011467D01*
X17209967Y-10117534D01*
X17316034Y-10117534D01*
X17188000Y-13799500D02*
X17338000Y-13949500D01*
X17338000Y-13799500D02*
X17188000Y-13949500D01*
X17316034Y-13927533D02*
X17316034Y-13821466D01*
X17209967Y-13821466D01*
X17209967Y-13927533D01*
X17316034Y-13927533D01*
D11*
X10343277Y-15857984D02*
X10343277Y-15657984D01*
X10343277Y-15657984D02*
X10390896Y-15657984D01*
X10390896Y-15657984D02*
X10419467Y-15667508D01*
X10419467Y-15667508D02*
X10438515Y-15686555D01*
X10438515Y-15686555D02*
X10448039Y-15705603D01*
X10448039Y-15705603D02*
X10457563Y-15743698D01*
X10457563Y-15743698D02*
X10457563Y-15772269D01*
X10457563Y-15772269D02*
X10448039Y-15810365D01*
X10448039Y-15810365D02*
X10438515Y-15829412D01*
X10438515Y-15829412D02*
X10419467Y-15848460D01*
X10419467Y-15848460D02*
X10390896Y-15857984D01*
X10390896Y-15857984D02*
X10343277Y-15857984D01*
X10543277Y-15857984D02*
X10543277Y-15724650D01*
X10543277Y-15762746D02*
X10552801Y-15743698D01*
X10552801Y-15743698D02*
X10562324Y-15734174D01*
X10562324Y-15734174D02*
X10581372Y-15724650D01*
X10581372Y-15724650D02*
X10600420Y-15724650D01*
X10667086Y-15857984D02*
X10667086Y-15724650D01*
X10667086Y-15657984D02*
X10657563Y-15667508D01*
X10657563Y-15667508D02*
X10667086Y-15677031D01*
X10667086Y-15677031D02*
X10676610Y-15667508D01*
X10676610Y-15667508D02*
X10667086Y-15657984D01*
X10667086Y-15657984D02*
X10667086Y-15677031D01*
X10790896Y-15857984D02*
X10771848Y-15848460D01*
X10771848Y-15848460D02*
X10762324Y-15829412D01*
X10762324Y-15829412D02*
X10762324Y-15657984D01*
X10895658Y-15857984D02*
X10876610Y-15848460D01*
X10876610Y-15848460D02*
X10867086Y-15829412D01*
X10867086Y-15829412D02*
X10867086Y-15657984D01*
X11124229Y-15857984D02*
X11124229Y-15657984D01*
X11124229Y-15657984D02*
X11190896Y-15800841D01*
X11190896Y-15800841D02*
X11257562Y-15657984D01*
X11257562Y-15657984D02*
X11257562Y-15857984D01*
X11438515Y-15857984D02*
X11438515Y-15753222D01*
X11438515Y-15753222D02*
X11428991Y-15734174D01*
X11428991Y-15734174D02*
X11409943Y-15724650D01*
X11409943Y-15724650D02*
X11371848Y-15724650D01*
X11371848Y-15724650D02*
X11352801Y-15734174D01*
X11438515Y-15848460D02*
X11419467Y-15857984D01*
X11419467Y-15857984D02*
X11371848Y-15857984D01*
X11371848Y-15857984D02*
X11352801Y-15848460D01*
X11352801Y-15848460D02*
X11343277Y-15829412D01*
X11343277Y-15829412D02*
X11343277Y-15810365D01*
X11343277Y-15810365D02*
X11352801Y-15791317D01*
X11352801Y-15791317D02*
X11371848Y-15781793D01*
X11371848Y-15781793D02*
X11419467Y-15781793D01*
X11419467Y-15781793D02*
X11438515Y-15772269D01*
X11533753Y-15724650D02*
X11533753Y-15924650D01*
X11533753Y-15734174D02*
X11552801Y-15724650D01*
X11552801Y-15724650D02*
X11590896Y-15724650D01*
X11590896Y-15724650D02*
X11609943Y-15734174D01*
X11609943Y-15734174D02*
X11619467Y-15743698D01*
X11619467Y-15743698D02*
X11628991Y-15762746D01*
X11628991Y-15762746D02*
X11628991Y-15819888D01*
X11628991Y-15819888D02*
X11619467Y-15838936D01*
X11619467Y-15838936D02*
X11609943Y-15848460D01*
X11609943Y-15848460D02*
X11590896Y-15857984D01*
X11590896Y-15857984D02*
X11552801Y-15857984D01*
X11552801Y-15857984D02*
X11533753Y-15848460D01*
X11714705Y-15838936D02*
X11724229Y-15848460D01*
X11724229Y-15848460D02*
X11714705Y-15857984D01*
X11714705Y-15857984D02*
X11705182Y-15848460D01*
X11705182Y-15848460D02*
X11714705Y-15838936D01*
X11714705Y-15838936D02*
X11714705Y-15857984D01*
X11714705Y-15734174D02*
X11724229Y-15743698D01*
X11724229Y-15743698D02*
X11714705Y-15753222D01*
X11714705Y-15753222D02*
X11705182Y-15743698D01*
X11705182Y-15743698D02*
X11714705Y-15734174D01*
X11714705Y-15734174D02*
X11714705Y-15753222D01*
D12*
X10042500Y-16166500D02*
X10082500Y-16206500D01*
X10082500Y-16166500D02*
X10042500Y-16206500D01*
D11*
X10381372Y-16077984D02*
X10400420Y-16077984D01*
X10400420Y-16077984D02*
X10419467Y-16087508D01*
X10419467Y-16087508D02*
X10428991Y-16097031D01*
X10428991Y-16097031D02*
X10438515Y-16116079D01*
X10438515Y-16116079D02*
X10448039Y-16154174D01*
X10448039Y-16154174D02*
X10448039Y-16201793D01*
X10448039Y-16201793D02*
X10438515Y-16239888D01*
X10438515Y-16239888D02*
X10428991Y-16258936D01*
X10428991Y-16258936D02*
X10419467Y-16268460D01*
X10419467Y-16268460D02*
X10400420Y-16277984D01*
X10400420Y-16277984D02*
X10381372Y-16277984D01*
X10381372Y-16277984D02*
X10362324Y-16268460D01*
X10362324Y-16268460D02*
X10352801Y-16258936D01*
X10352801Y-16258936D02*
X10343277Y-16239888D01*
X10343277Y-16239888D02*
X10333753Y-16201793D01*
X10333753Y-16201793D02*
X10333753Y-16154174D01*
X10333753Y-16154174D02*
X10343277Y-16116079D01*
X10343277Y-16116079D02*
X10352801Y-16097031D01*
X10352801Y-16097031D02*
X10362324Y-16087508D01*
X10362324Y-16087508D02*
X10381372Y-16077984D01*
X10533753Y-16258936D02*
X10543277Y-16268460D01*
X10543277Y-16268460D02*
X10533753Y-16277984D01*
X10533753Y-16277984D02*
X10524229Y-16268460D01*
X10524229Y-16268460D02*
X10533753Y-16258936D01*
X10533753Y-16258936D02*
X10533753Y-16277984D01*
X10714705Y-16144650D02*
X10714705Y-16277984D01*
X10667086Y-16068460D02*
X10619467Y-16211317D01*
X10619467Y-16211317D02*
X10743277Y-16211317D01*
X10857563Y-16077984D02*
X10876610Y-16077984D01*
X10876610Y-16077984D02*
X10895658Y-16087508D01*
X10895658Y-16087508D02*
X10905182Y-16097031D01*
X10905182Y-16097031D02*
X10914705Y-16116079D01*
X10914705Y-16116079D02*
X10924229Y-16154174D01*
X10924229Y-16154174D02*
X10924229Y-16201793D01*
X10924229Y-16201793D02*
X10914705Y-16239888D01*
X10914705Y-16239888D02*
X10905182Y-16258936D01*
X10905182Y-16258936D02*
X10895658Y-16268460D01*
X10895658Y-16268460D02*
X10876610Y-16277984D01*
X10876610Y-16277984D02*
X10857563Y-16277984D01*
X10857563Y-16277984D02*
X10838515Y-16268460D01*
X10838515Y-16268460D02*
X10828991Y-16258936D01*
X10828991Y-16258936D02*
X10819467Y-16239888D01*
X10819467Y-16239888D02*
X10809944Y-16201793D01*
X10809944Y-16201793D02*
X10809944Y-16154174D01*
X10809944Y-16154174D02*
X10819467Y-16116079D01*
X10819467Y-16116079D02*
X10828991Y-16097031D01*
X10828991Y-16097031D02*
X10838515Y-16087508D01*
X10838515Y-16087508D02*
X10857563Y-16077984D01*
X11048039Y-16077984D02*
X11067086Y-16077984D01*
X11067086Y-16077984D02*
X11086134Y-16087508D01*
X11086134Y-16087508D02*
X11095658Y-16097031D01*
X11095658Y-16097031D02*
X11105182Y-16116079D01*
X11105182Y-16116079D02*
X11114705Y-16154174D01*
X11114705Y-16154174D02*
X11114705Y-16201793D01*
X11114705Y-16201793D02*
X11105182Y-16239888D01*
X11105182Y-16239888D02*
X11095658Y-16258936D01*
X11095658Y-16258936D02*
X11086134Y-16268460D01*
X11086134Y-16268460D02*
X11067086Y-16277984D01*
X11067086Y-16277984D02*
X11048039Y-16277984D01*
X11048039Y-16277984D02*
X11028991Y-16268460D01*
X11028991Y-16268460D02*
X11019467Y-16258936D01*
X11019467Y-16258936D02*
X11009944Y-16239888D01*
X11009944Y-16239888D02*
X11000420Y-16201793D01*
X11000420Y-16201793D02*
X11000420Y-16154174D01*
X11000420Y-16154174D02*
X11009944Y-16116079D01*
X11009944Y-16116079D02*
X11019467Y-16097031D01*
X11019467Y-16097031D02*
X11028991Y-16087508D01*
X11028991Y-16087508D02*
X11048039Y-16077984D01*
X11200420Y-16277984D02*
X11200420Y-16144650D01*
X11200420Y-16163698D02*
X11209943Y-16154174D01*
X11209943Y-16154174D02*
X11228991Y-16144650D01*
X11228991Y-16144650D02*
X11257563Y-16144650D01*
X11257563Y-16144650D02*
X11276610Y-16154174D01*
X11276610Y-16154174D02*
X11286134Y-16173222D01*
X11286134Y-16173222D02*
X11286134Y-16277984D01*
X11286134Y-16173222D02*
X11295658Y-16154174D01*
X11295658Y-16154174D02*
X11314705Y-16144650D01*
X11314705Y-16144650D02*
X11343277Y-16144650D01*
X11343277Y-16144650D02*
X11362324Y-16154174D01*
X11362324Y-16154174D02*
X11371848Y-16173222D01*
X11371848Y-16173222D02*
X11371848Y-16277984D01*
X11467086Y-16277984D02*
X11467086Y-16144650D01*
X11467086Y-16163698D02*
X11476610Y-16154174D01*
X11476610Y-16154174D02*
X11495658Y-16144650D01*
X11495658Y-16144650D02*
X11524229Y-16144650D01*
X11524229Y-16144650D02*
X11543277Y-16154174D01*
X11543277Y-16154174D02*
X11552801Y-16173222D01*
X11552801Y-16173222D02*
X11552801Y-16277984D01*
X11552801Y-16173222D02*
X11562324Y-16154174D01*
X11562324Y-16154174D02*
X11581372Y-16144650D01*
X11581372Y-16144650D02*
X11609943Y-16144650D01*
X11609943Y-16144650D02*
X11628991Y-16154174D01*
X11628991Y-16154174D02*
X11638515Y-16173222D01*
X11638515Y-16173222D02*
X11638515Y-16277984D01*
X12028991Y-16068460D02*
X11857563Y-16325603D01*
X12286134Y-16077984D02*
X12305182Y-16077984D01*
X12305182Y-16077984D02*
X12324229Y-16087508D01*
X12324229Y-16087508D02*
X12333753Y-16097031D01*
X12333753Y-16097031D02*
X12343277Y-16116079D01*
X12343277Y-16116079D02*
X12352801Y-16154174D01*
X12352801Y-16154174D02*
X12352801Y-16201793D01*
X12352801Y-16201793D02*
X12343277Y-16239888D01*
X12343277Y-16239888D02*
X12333753Y-16258936D01*
X12333753Y-16258936D02*
X12324229Y-16268460D01*
X12324229Y-16268460D02*
X12305182Y-16277984D01*
X12305182Y-16277984D02*
X12286134Y-16277984D01*
X12286134Y-16277984D02*
X12267086Y-16268460D01*
X12267086Y-16268460D02*
X12257563Y-16258936D01*
X12257563Y-16258936D02*
X12248039Y-16239888D01*
X12248039Y-16239888D02*
X12238515Y-16201793D01*
X12238515Y-16201793D02*
X12238515Y-16154174D01*
X12238515Y-16154174D02*
X12248039Y-16116079D01*
X12248039Y-16116079D02*
X12257563Y-16097031D01*
X12257563Y-16097031D02*
X12267086Y-16087508D01*
X12267086Y-16087508D02*
X12286134Y-16077984D01*
X12438515Y-16258936D02*
X12448039Y-16268460D01*
X12448039Y-16268460D02*
X12438515Y-16277984D01*
X12438515Y-16277984D02*
X12428991Y-16268460D01*
X12428991Y-16268460D02*
X12438515Y-16258936D01*
X12438515Y-16258936D02*
X12438515Y-16277984D01*
X12571848Y-16077984D02*
X12590896Y-16077984D01*
X12590896Y-16077984D02*
X12609944Y-16087508D01*
X12609944Y-16087508D02*
X12619467Y-16097031D01*
X12619467Y-16097031D02*
X12628991Y-16116079D01*
X12628991Y-16116079D02*
X12638515Y-16154174D01*
X12638515Y-16154174D02*
X12638515Y-16201793D01*
X12638515Y-16201793D02*
X12628991Y-16239888D01*
X12628991Y-16239888D02*
X12619467Y-16258936D01*
X12619467Y-16258936D02*
X12609944Y-16268460D01*
X12609944Y-16268460D02*
X12590896Y-16277984D01*
X12590896Y-16277984D02*
X12571848Y-16277984D01*
X12571848Y-16277984D02*
X12552801Y-16268460D01*
X12552801Y-16268460D02*
X12543277Y-16258936D01*
X12543277Y-16258936D02*
X12533753Y-16239888D01*
X12533753Y-16239888D02*
X12524229Y-16201793D01*
X12524229Y-16201793D02*
X12524229Y-16154174D01*
X12524229Y-16154174D02*
X12533753Y-16116079D01*
X12533753Y-16116079D02*
X12543277Y-16097031D01*
X12543277Y-16097031D02*
X12552801Y-16087508D01*
X12552801Y-16087508D02*
X12571848Y-16077984D01*
X12828991Y-16277984D02*
X12714706Y-16277984D01*
X12771848Y-16277984D02*
X12771848Y-16077984D01*
X12771848Y-16077984D02*
X12752801Y-16106555D01*
X12752801Y-16106555D02*
X12733753Y-16125603D01*
X12733753Y-16125603D02*
X12714706Y-16135127D01*
X13009944Y-16077984D02*
X12914706Y-16077984D01*
X12914706Y-16077984D02*
X12905182Y-16173222D01*
X12905182Y-16173222D02*
X12914706Y-16163698D01*
X12914706Y-16163698D02*
X12933753Y-16154174D01*
X12933753Y-16154174D02*
X12981372Y-16154174D01*
X12981372Y-16154174D02*
X13000420Y-16163698D01*
X13000420Y-16163698D02*
X13009944Y-16173222D01*
X13009944Y-16173222D02*
X13019467Y-16192269D01*
X13019467Y-16192269D02*
X13019467Y-16239888D01*
X13019467Y-16239888D02*
X13009944Y-16258936D01*
X13009944Y-16258936D02*
X13000420Y-16268460D01*
X13000420Y-16268460D02*
X12981372Y-16277984D01*
X12981372Y-16277984D02*
X12933753Y-16277984D01*
X12933753Y-16277984D02*
X12914706Y-16268460D01*
X12914706Y-16268460D02*
X12905182Y-16258936D01*
X13086134Y-16077984D02*
X13219467Y-16077984D01*
X13219467Y-16077984D02*
X13133753Y-16277984D01*
X13286134Y-16077984D02*
X13286134Y-16116079D01*
X13362325Y-16077984D02*
X13362325Y-16116079D01*
X13657563Y-16354174D02*
X13648039Y-16344650D01*
X13648039Y-16344650D02*
X13628991Y-16316079D01*
X13628991Y-16316079D02*
X13619468Y-16297031D01*
X13619468Y-16297031D02*
X13609944Y-16268460D01*
X13609944Y-16268460D02*
X13600420Y-16220841D01*
X13600420Y-16220841D02*
X13600420Y-16182746D01*
X13600420Y-16182746D02*
X13609944Y-16135127D01*
X13609944Y-16135127D02*
X13619468Y-16106555D01*
X13619468Y-16106555D02*
X13628991Y-16087508D01*
X13628991Y-16087508D02*
X13648039Y-16058936D01*
X13648039Y-16058936D02*
X13657563Y-16049412D01*
X13714706Y-16077984D02*
X13848039Y-16077984D01*
X13848039Y-16077984D02*
X13762325Y-16277984D01*
X13914706Y-16097031D02*
X13924229Y-16087508D01*
X13924229Y-16087508D02*
X13943277Y-16077984D01*
X13943277Y-16077984D02*
X13990896Y-16077984D01*
X13990896Y-16077984D02*
X14009944Y-16087508D01*
X14009944Y-16087508D02*
X14019468Y-16097031D01*
X14019468Y-16097031D02*
X14028991Y-16116079D01*
X14028991Y-16116079D02*
X14028991Y-16135127D01*
X14028991Y-16135127D02*
X14019468Y-16163698D01*
X14019468Y-16163698D02*
X13905182Y-16277984D01*
X13905182Y-16277984D02*
X14028991Y-16277984D01*
X14267087Y-16277984D02*
X14267087Y-16077984D01*
X14352801Y-16277984D02*
X14352801Y-16173222D01*
X14352801Y-16173222D02*
X14343277Y-16154174D01*
X14343277Y-16154174D02*
X14324230Y-16144650D01*
X14324230Y-16144650D02*
X14295658Y-16144650D01*
X14295658Y-16144650D02*
X14276610Y-16154174D01*
X14276610Y-16154174D02*
X14267087Y-16163698D01*
X14476610Y-16277984D02*
X14457563Y-16268460D01*
X14457563Y-16268460D02*
X14448039Y-16258936D01*
X14448039Y-16258936D02*
X14438515Y-16239888D01*
X14438515Y-16239888D02*
X14438515Y-16182746D01*
X14438515Y-16182746D02*
X14448039Y-16163698D01*
X14448039Y-16163698D02*
X14457563Y-16154174D01*
X14457563Y-16154174D02*
X14476610Y-16144650D01*
X14476610Y-16144650D02*
X14505182Y-16144650D01*
X14505182Y-16144650D02*
X14524230Y-16154174D01*
X14524230Y-16154174D02*
X14533753Y-16163698D01*
X14533753Y-16163698D02*
X14543277Y-16182746D01*
X14543277Y-16182746D02*
X14543277Y-16239888D01*
X14543277Y-16239888D02*
X14533753Y-16258936D01*
X14533753Y-16258936D02*
X14524230Y-16268460D01*
X14524230Y-16268460D02*
X14505182Y-16277984D01*
X14505182Y-16277984D02*
X14476610Y-16277984D01*
X14657563Y-16277984D02*
X14638515Y-16268460D01*
X14638515Y-16268460D02*
X14628991Y-16249412D01*
X14628991Y-16249412D02*
X14628991Y-16077984D01*
X14809944Y-16268460D02*
X14790896Y-16277984D01*
X14790896Y-16277984D02*
X14752801Y-16277984D01*
X14752801Y-16277984D02*
X14733753Y-16268460D01*
X14733753Y-16268460D02*
X14724230Y-16249412D01*
X14724230Y-16249412D02*
X14724230Y-16173222D01*
X14724230Y-16173222D02*
X14733753Y-16154174D01*
X14733753Y-16154174D02*
X14752801Y-16144650D01*
X14752801Y-16144650D02*
X14790896Y-16144650D01*
X14790896Y-16144650D02*
X14809944Y-16154174D01*
X14809944Y-16154174D02*
X14819468Y-16173222D01*
X14819468Y-16173222D02*
X14819468Y-16192269D01*
X14819468Y-16192269D02*
X14724230Y-16211317D01*
X14895658Y-16268460D02*
X14914706Y-16277984D01*
X14914706Y-16277984D02*
X14952801Y-16277984D01*
X14952801Y-16277984D02*
X14971849Y-16268460D01*
X14971849Y-16268460D02*
X14981372Y-16249412D01*
X14981372Y-16249412D02*
X14981372Y-16239888D01*
X14981372Y-16239888D02*
X14971849Y-16220841D01*
X14971849Y-16220841D02*
X14952801Y-16211317D01*
X14952801Y-16211317D02*
X14924230Y-16211317D01*
X14924230Y-16211317D02*
X14905182Y-16201793D01*
X14905182Y-16201793D02*
X14895658Y-16182746D01*
X14895658Y-16182746D02*
X14895658Y-16173222D01*
X14895658Y-16173222D02*
X14905182Y-16154174D01*
X14905182Y-16154174D02*
X14924230Y-16144650D01*
X14924230Y-16144650D02*
X14952801Y-16144650D01*
X14952801Y-16144650D02*
X14971849Y-16154174D01*
X15048039Y-16354174D02*
X15057563Y-16344650D01*
X15057563Y-16344650D02*
X15076611Y-16316079D01*
X15076611Y-16316079D02*
X15086134Y-16297031D01*
X15086134Y-16297031D02*
X15095658Y-16268460D01*
X15095658Y-16268460D02*
X15105182Y-16220841D01*
X15105182Y-16220841D02*
X15105182Y-16182746D01*
X15105182Y-16182746D02*
X15095658Y-16135127D01*
X15095658Y-16135127D02*
X15086134Y-16106555D01*
X15086134Y-16106555D02*
X15076611Y-16087508D01*
X15076611Y-16087508D02*
X15057563Y-16058936D01*
X15057563Y-16058936D02*
X15048039Y-16049412D01*
D12*
X10082500Y-16450500D02*
G75*
G03*
X10082500Y-16450500I-20000J0D01*
G01*
D11*
X10381372Y-16341984D02*
X10400420Y-16341984D01*
X10400420Y-16341984D02*
X10419467Y-16351508D01*
X10419467Y-16351508D02*
X10428991Y-16361031D01*
X10428991Y-16361031D02*
X10438515Y-16380079D01*
X10438515Y-16380079D02*
X10448039Y-16418174D01*
X10448039Y-16418174D02*
X10448039Y-16465793D01*
X10448039Y-16465793D02*
X10438515Y-16503888D01*
X10438515Y-16503888D02*
X10428991Y-16522936D01*
X10428991Y-16522936D02*
X10419467Y-16532460D01*
X10419467Y-16532460D02*
X10400420Y-16541984D01*
X10400420Y-16541984D02*
X10381372Y-16541984D01*
X10381372Y-16541984D02*
X10362324Y-16532460D01*
X10362324Y-16532460D02*
X10352801Y-16522936D01*
X10352801Y-16522936D02*
X10343277Y-16503888D01*
X10343277Y-16503888D02*
X10333753Y-16465793D01*
X10333753Y-16465793D02*
X10333753Y-16418174D01*
X10333753Y-16418174D02*
X10343277Y-16380079D01*
X10343277Y-16380079D02*
X10352801Y-16361031D01*
X10352801Y-16361031D02*
X10362324Y-16351508D01*
X10362324Y-16351508D02*
X10381372Y-16341984D01*
X10533753Y-16522936D02*
X10543277Y-16532460D01*
X10543277Y-16532460D02*
X10533753Y-16541984D01*
X10533753Y-16541984D02*
X10524229Y-16532460D01*
X10524229Y-16532460D02*
X10533753Y-16522936D01*
X10533753Y-16522936D02*
X10533753Y-16541984D01*
X10714705Y-16408650D02*
X10714705Y-16541984D01*
X10667086Y-16332460D02*
X10619467Y-16475317D01*
X10619467Y-16475317D02*
X10743277Y-16475317D01*
X10857563Y-16341984D02*
X10876610Y-16341984D01*
X10876610Y-16341984D02*
X10895658Y-16351508D01*
X10895658Y-16351508D02*
X10905182Y-16361031D01*
X10905182Y-16361031D02*
X10914705Y-16380079D01*
X10914705Y-16380079D02*
X10924229Y-16418174D01*
X10924229Y-16418174D02*
X10924229Y-16465793D01*
X10924229Y-16465793D02*
X10914705Y-16503888D01*
X10914705Y-16503888D02*
X10905182Y-16522936D01*
X10905182Y-16522936D02*
X10895658Y-16532460D01*
X10895658Y-16532460D02*
X10876610Y-16541984D01*
X10876610Y-16541984D02*
X10857563Y-16541984D01*
X10857563Y-16541984D02*
X10838515Y-16532460D01*
X10838515Y-16532460D02*
X10828991Y-16522936D01*
X10828991Y-16522936D02*
X10819467Y-16503888D01*
X10819467Y-16503888D02*
X10809944Y-16465793D01*
X10809944Y-16465793D02*
X10809944Y-16418174D01*
X10809944Y-16418174D02*
X10819467Y-16380079D01*
X10819467Y-16380079D02*
X10828991Y-16361031D01*
X10828991Y-16361031D02*
X10838515Y-16351508D01*
X10838515Y-16351508D02*
X10857563Y-16341984D01*
X11048039Y-16341984D02*
X11067086Y-16341984D01*
X11067086Y-16341984D02*
X11086134Y-16351508D01*
X11086134Y-16351508D02*
X11095658Y-16361031D01*
X11095658Y-16361031D02*
X11105182Y-16380079D01*
X11105182Y-16380079D02*
X11114705Y-16418174D01*
X11114705Y-16418174D02*
X11114705Y-16465793D01*
X11114705Y-16465793D02*
X11105182Y-16503888D01*
X11105182Y-16503888D02*
X11095658Y-16522936D01*
X11095658Y-16522936D02*
X11086134Y-16532460D01*
X11086134Y-16532460D02*
X11067086Y-16541984D01*
X11067086Y-16541984D02*
X11048039Y-16541984D01*
X11048039Y-16541984D02*
X11028991Y-16532460D01*
X11028991Y-16532460D02*
X11019467Y-16522936D01*
X11019467Y-16522936D02*
X11009944Y-16503888D01*
X11009944Y-16503888D02*
X11000420Y-16465793D01*
X11000420Y-16465793D02*
X11000420Y-16418174D01*
X11000420Y-16418174D02*
X11009944Y-16380079D01*
X11009944Y-16380079D02*
X11019467Y-16361031D01*
X11019467Y-16361031D02*
X11028991Y-16351508D01*
X11028991Y-16351508D02*
X11048039Y-16341984D01*
X11200420Y-16541984D02*
X11200420Y-16408650D01*
X11200420Y-16427698D02*
X11209943Y-16418174D01*
X11209943Y-16418174D02*
X11228991Y-16408650D01*
X11228991Y-16408650D02*
X11257563Y-16408650D01*
X11257563Y-16408650D02*
X11276610Y-16418174D01*
X11276610Y-16418174D02*
X11286134Y-16437222D01*
X11286134Y-16437222D02*
X11286134Y-16541984D01*
X11286134Y-16437222D02*
X11295658Y-16418174D01*
X11295658Y-16418174D02*
X11314705Y-16408650D01*
X11314705Y-16408650D02*
X11343277Y-16408650D01*
X11343277Y-16408650D02*
X11362324Y-16418174D01*
X11362324Y-16418174D02*
X11371848Y-16437222D01*
X11371848Y-16437222D02*
X11371848Y-16541984D01*
X11467086Y-16541984D02*
X11467086Y-16408650D01*
X11467086Y-16427698D02*
X11476610Y-16418174D01*
X11476610Y-16418174D02*
X11495658Y-16408650D01*
X11495658Y-16408650D02*
X11524229Y-16408650D01*
X11524229Y-16408650D02*
X11543277Y-16418174D01*
X11543277Y-16418174D02*
X11552801Y-16437222D01*
X11552801Y-16437222D02*
X11552801Y-16541984D01*
X11552801Y-16437222D02*
X11562324Y-16418174D01*
X11562324Y-16418174D02*
X11581372Y-16408650D01*
X11581372Y-16408650D02*
X11609943Y-16408650D01*
X11609943Y-16408650D02*
X11628991Y-16418174D01*
X11628991Y-16418174D02*
X11638515Y-16437222D01*
X11638515Y-16437222D02*
X11638515Y-16541984D01*
X12028991Y-16332460D02*
X11857563Y-16589603D01*
X12286134Y-16341984D02*
X12305182Y-16341984D01*
X12305182Y-16341984D02*
X12324229Y-16351508D01*
X12324229Y-16351508D02*
X12333753Y-16361031D01*
X12333753Y-16361031D02*
X12343277Y-16380079D01*
X12343277Y-16380079D02*
X12352801Y-16418174D01*
X12352801Y-16418174D02*
X12352801Y-16465793D01*
X12352801Y-16465793D02*
X12343277Y-16503888D01*
X12343277Y-16503888D02*
X12333753Y-16522936D01*
X12333753Y-16522936D02*
X12324229Y-16532460D01*
X12324229Y-16532460D02*
X12305182Y-16541984D01*
X12305182Y-16541984D02*
X12286134Y-16541984D01*
X12286134Y-16541984D02*
X12267086Y-16532460D01*
X12267086Y-16532460D02*
X12257563Y-16522936D01*
X12257563Y-16522936D02*
X12248039Y-16503888D01*
X12248039Y-16503888D02*
X12238515Y-16465793D01*
X12238515Y-16465793D02*
X12238515Y-16418174D01*
X12238515Y-16418174D02*
X12248039Y-16380079D01*
X12248039Y-16380079D02*
X12257563Y-16361031D01*
X12257563Y-16361031D02*
X12267086Y-16351508D01*
X12267086Y-16351508D02*
X12286134Y-16341984D01*
X12438515Y-16522936D02*
X12448039Y-16532460D01*
X12448039Y-16532460D02*
X12438515Y-16541984D01*
X12438515Y-16541984D02*
X12428991Y-16532460D01*
X12428991Y-16532460D02*
X12438515Y-16522936D01*
X12438515Y-16522936D02*
X12438515Y-16541984D01*
X12571848Y-16341984D02*
X12590896Y-16341984D01*
X12590896Y-16341984D02*
X12609944Y-16351508D01*
X12609944Y-16351508D02*
X12619467Y-16361031D01*
X12619467Y-16361031D02*
X12628991Y-16380079D01*
X12628991Y-16380079D02*
X12638515Y-16418174D01*
X12638515Y-16418174D02*
X12638515Y-16465793D01*
X12638515Y-16465793D02*
X12628991Y-16503888D01*
X12628991Y-16503888D02*
X12619467Y-16522936D01*
X12619467Y-16522936D02*
X12609944Y-16532460D01*
X12609944Y-16532460D02*
X12590896Y-16541984D01*
X12590896Y-16541984D02*
X12571848Y-16541984D01*
X12571848Y-16541984D02*
X12552801Y-16532460D01*
X12552801Y-16532460D02*
X12543277Y-16522936D01*
X12543277Y-16522936D02*
X12533753Y-16503888D01*
X12533753Y-16503888D02*
X12524229Y-16465793D01*
X12524229Y-16465793D02*
X12524229Y-16418174D01*
X12524229Y-16418174D02*
X12533753Y-16380079D01*
X12533753Y-16380079D02*
X12543277Y-16361031D01*
X12543277Y-16361031D02*
X12552801Y-16351508D01*
X12552801Y-16351508D02*
X12571848Y-16341984D01*
X12828991Y-16541984D02*
X12714706Y-16541984D01*
X12771848Y-16541984D02*
X12771848Y-16341984D01*
X12771848Y-16341984D02*
X12752801Y-16370555D01*
X12752801Y-16370555D02*
X12733753Y-16389603D01*
X12733753Y-16389603D02*
X12714706Y-16399127D01*
X13009944Y-16341984D02*
X12914706Y-16341984D01*
X12914706Y-16341984D02*
X12905182Y-16437222D01*
X12905182Y-16437222D02*
X12914706Y-16427698D01*
X12914706Y-16427698D02*
X12933753Y-16418174D01*
X12933753Y-16418174D02*
X12981372Y-16418174D01*
X12981372Y-16418174D02*
X13000420Y-16427698D01*
X13000420Y-16427698D02*
X13009944Y-16437222D01*
X13009944Y-16437222D02*
X13019467Y-16456269D01*
X13019467Y-16456269D02*
X13019467Y-16503888D01*
X13019467Y-16503888D02*
X13009944Y-16522936D01*
X13009944Y-16522936D02*
X13000420Y-16532460D01*
X13000420Y-16532460D02*
X12981372Y-16541984D01*
X12981372Y-16541984D02*
X12933753Y-16541984D01*
X12933753Y-16541984D02*
X12914706Y-16532460D01*
X12914706Y-16532460D02*
X12905182Y-16522936D01*
X13086134Y-16341984D02*
X13219467Y-16341984D01*
X13219467Y-16341984D02*
X13133753Y-16541984D01*
X13286134Y-16341984D02*
X13286134Y-16380079D01*
X13362325Y-16341984D02*
X13362325Y-16380079D01*
X13657563Y-16618174D02*
X13648039Y-16608650D01*
X13648039Y-16608650D02*
X13628991Y-16580079D01*
X13628991Y-16580079D02*
X13619468Y-16561031D01*
X13619468Y-16561031D02*
X13609944Y-16532460D01*
X13609944Y-16532460D02*
X13600420Y-16484841D01*
X13600420Y-16484841D02*
X13600420Y-16446746D01*
X13600420Y-16446746D02*
X13609944Y-16399127D01*
X13609944Y-16399127D02*
X13619468Y-16370555D01*
X13619468Y-16370555D02*
X13628991Y-16351508D01*
X13628991Y-16351508D02*
X13648039Y-16322936D01*
X13648039Y-16322936D02*
X13657563Y-16313412D01*
X13838515Y-16541984D02*
X13724229Y-16541984D01*
X13781372Y-16541984D02*
X13781372Y-16341984D01*
X13781372Y-16341984D02*
X13762325Y-16370555D01*
X13762325Y-16370555D02*
X13743277Y-16389603D01*
X13743277Y-16389603D02*
X13724229Y-16399127D01*
X14009944Y-16341984D02*
X13971848Y-16341984D01*
X13971848Y-16341984D02*
X13952801Y-16351508D01*
X13952801Y-16351508D02*
X13943277Y-16361031D01*
X13943277Y-16361031D02*
X13924229Y-16389603D01*
X13924229Y-16389603D02*
X13914706Y-16427698D01*
X13914706Y-16427698D02*
X13914706Y-16503888D01*
X13914706Y-16503888D02*
X13924229Y-16522936D01*
X13924229Y-16522936D02*
X13933753Y-16532460D01*
X13933753Y-16532460D02*
X13952801Y-16541984D01*
X13952801Y-16541984D02*
X13990896Y-16541984D01*
X13990896Y-16541984D02*
X14009944Y-16532460D01*
X14009944Y-16532460D02*
X14019468Y-16522936D01*
X14019468Y-16522936D02*
X14028991Y-16503888D01*
X14028991Y-16503888D02*
X14028991Y-16456269D01*
X14028991Y-16456269D02*
X14019468Y-16437222D01*
X14019468Y-16437222D02*
X14009944Y-16427698D01*
X14009944Y-16427698D02*
X13990896Y-16418174D01*
X13990896Y-16418174D02*
X13952801Y-16418174D01*
X13952801Y-16418174D02*
X13933753Y-16427698D01*
X13933753Y-16427698D02*
X13924229Y-16437222D01*
X13924229Y-16437222D02*
X13914706Y-16456269D01*
X14267087Y-16541984D02*
X14267087Y-16341984D01*
X14352801Y-16541984D02*
X14352801Y-16437222D01*
X14352801Y-16437222D02*
X14343277Y-16418174D01*
X14343277Y-16418174D02*
X14324230Y-16408650D01*
X14324230Y-16408650D02*
X14295658Y-16408650D01*
X14295658Y-16408650D02*
X14276610Y-16418174D01*
X14276610Y-16418174D02*
X14267087Y-16427698D01*
X14476610Y-16541984D02*
X14457563Y-16532460D01*
X14457563Y-16532460D02*
X14448039Y-16522936D01*
X14448039Y-16522936D02*
X14438515Y-16503888D01*
X14438515Y-16503888D02*
X14438515Y-16446746D01*
X14438515Y-16446746D02*
X14448039Y-16427698D01*
X14448039Y-16427698D02*
X14457563Y-16418174D01*
X14457563Y-16418174D02*
X14476610Y-16408650D01*
X14476610Y-16408650D02*
X14505182Y-16408650D01*
X14505182Y-16408650D02*
X14524230Y-16418174D01*
X14524230Y-16418174D02*
X14533753Y-16427698D01*
X14533753Y-16427698D02*
X14543277Y-16446746D01*
X14543277Y-16446746D02*
X14543277Y-16503888D01*
X14543277Y-16503888D02*
X14533753Y-16522936D01*
X14533753Y-16522936D02*
X14524230Y-16532460D01*
X14524230Y-16532460D02*
X14505182Y-16541984D01*
X14505182Y-16541984D02*
X14476610Y-16541984D01*
X14657563Y-16541984D02*
X14638515Y-16532460D01*
X14638515Y-16532460D02*
X14628991Y-16513412D01*
X14628991Y-16513412D02*
X14628991Y-16341984D01*
X14809944Y-16532460D02*
X14790896Y-16541984D01*
X14790896Y-16541984D02*
X14752801Y-16541984D01*
X14752801Y-16541984D02*
X14733753Y-16532460D01*
X14733753Y-16532460D02*
X14724230Y-16513412D01*
X14724230Y-16513412D02*
X14724230Y-16437222D01*
X14724230Y-16437222D02*
X14733753Y-16418174D01*
X14733753Y-16418174D02*
X14752801Y-16408650D01*
X14752801Y-16408650D02*
X14790896Y-16408650D01*
X14790896Y-16408650D02*
X14809944Y-16418174D01*
X14809944Y-16418174D02*
X14819468Y-16437222D01*
X14819468Y-16437222D02*
X14819468Y-16456269D01*
X14819468Y-16456269D02*
X14724230Y-16475317D01*
X14895658Y-16532460D02*
X14914706Y-16541984D01*
X14914706Y-16541984D02*
X14952801Y-16541984D01*
X14952801Y-16541984D02*
X14971849Y-16532460D01*
X14971849Y-16532460D02*
X14981372Y-16513412D01*
X14981372Y-16513412D02*
X14981372Y-16503888D01*
X14981372Y-16503888D02*
X14971849Y-16484841D01*
X14971849Y-16484841D02*
X14952801Y-16475317D01*
X14952801Y-16475317D02*
X14924230Y-16475317D01*
X14924230Y-16475317D02*
X14905182Y-16465793D01*
X14905182Y-16465793D02*
X14895658Y-16446746D01*
X14895658Y-16446746D02*
X14895658Y-16437222D01*
X14895658Y-16437222D02*
X14905182Y-16418174D01*
X14905182Y-16418174D02*
X14924230Y-16408650D01*
X14924230Y-16408650D02*
X14952801Y-16408650D01*
X14952801Y-16408650D02*
X14971849Y-16418174D01*
X15048039Y-16618174D02*
X15057563Y-16608650D01*
X15057563Y-16608650D02*
X15076611Y-16580079D01*
X15076611Y-16580079D02*
X15086134Y-16561031D01*
X15086134Y-16561031D02*
X15095658Y-16532460D01*
X15095658Y-16532460D02*
X15105182Y-16484841D01*
X15105182Y-16484841D02*
X15105182Y-16446746D01*
X15105182Y-16446746D02*
X15095658Y-16399127D01*
X15095658Y-16399127D02*
X15086134Y-16370555D01*
X15086134Y-16370555D02*
X15076611Y-16351508D01*
X15076611Y-16351508D02*
X15057563Y-16322936D01*
X15057563Y-16322936D02*
X15048039Y-16313412D01*
D13*
X10052500Y-16684500D02*
X10052500Y-16744500D01*
X10022500Y-16714500D02*
X10082500Y-16714500D01*
D11*
X10381372Y-16605984D02*
X10400420Y-16605984D01*
X10400420Y-16605984D02*
X10419467Y-16615508D01*
X10419467Y-16615508D02*
X10428991Y-16625031D01*
X10428991Y-16625031D02*
X10438515Y-16644079D01*
X10438515Y-16644079D02*
X10448039Y-16682174D01*
X10448039Y-16682174D02*
X10448039Y-16729793D01*
X10448039Y-16729793D02*
X10438515Y-16767888D01*
X10438515Y-16767888D02*
X10428991Y-16786936D01*
X10428991Y-16786936D02*
X10419467Y-16796460D01*
X10419467Y-16796460D02*
X10400420Y-16805984D01*
X10400420Y-16805984D02*
X10381372Y-16805984D01*
X10381372Y-16805984D02*
X10362324Y-16796460D01*
X10362324Y-16796460D02*
X10352801Y-16786936D01*
X10352801Y-16786936D02*
X10343277Y-16767888D01*
X10343277Y-16767888D02*
X10333753Y-16729793D01*
X10333753Y-16729793D02*
X10333753Y-16682174D01*
X10333753Y-16682174D02*
X10343277Y-16644079D01*
X10343277Y-16644079D02*
X10352801Y-16625031D01*
X10352801Y-16625031D02*
X10362324Y-16615508D01*
X10362324Y-16615508D02*
X10381372Y-16605984D01*
X10533753Y-16786936D02*
X10543277Y-16796460D01*
X10543277Y-16796460D02*
X10533753Y-16805984D01*
X10533753Y-16805984D02*
X10524229Y-16796460D01*
X10524229Y-16796460D02*
X10533753Y-16786936D01*
X10533753Y-16786936D02*
X10533753Y-16805984D01*
X10714705Y-16605984D02*
X10676610Y-16605984D01*
X10676610Y-16605984D02*
X10657563Y-16615508D01*
X10657563Y-16615508D02*
X10648039Y-16625031D01*
X10648039Y-16625031D02*
X10628991Y-16653603D01*
X10628991Y-16653603D02*
X10619467Y-16691698D01*
X10619467Y-16691698D02*
X10619467Y-16767888D01*
X10619467Y-16767888D02*
X10628991Y-16786936D01*
X10628991Y-16786936D02*
X10638515Y-16796460D01*
X10638515Y-16796460D02*
X10657563Y-16805984D01*
X10657563Y-16805984D02*
X10695658Y-16805984D01*
X10695658Y-16805984D02*
X10714705Y-16796460D01*
X10714705Y-16796460D02*
X10724229Y-16786936D01*
X10724229Y-16786936D02*
X10733753Y-16767888D01*
X10733753Y-16767888D02*
X10733753Y-16720269D01*
X10733753Y-16720269D02*
X10724229Y-16701222D01*
X10724229Y-16701222D02*
X10714705Y-16691698D01*
X10714705Y-16691698D02*
X10695658Y-16682174D01*
X10695658Y-16682174D02*
X10657563Y-16682174D01*
X10657563Y-16682174D02*
X10638515Y-16691698D01*
X10638515Y-16691698D02*
X10628991Y-16701222D01*
X10628991Y-16701222D02*
X10619467Y-16720269D01*
X10857563Y-16605984D02*
X10876610Y-16605984D01*
X10876610Y-16605984D02*
X10895658Y-16615508D01*
X10895658Y-16615508D02*
X10905182Y-16625031D01*
X10905182Y-16625031D02*
X10914705Y-16644079D01*
X10914705Y-16644079D02*
X10924229Y-16682174D01*
X10924229Y-16682174D02*
X10924229Y-16729793D01*
X10924229Y-16729793D02*
X10914705Y-16767888D01*
X10914705Y-16767888D02*
X10905182Y-16786936D01*
X10905182Y-16786936D02*
X10895658Y-16796460D01*
X10895658Y-16796460D02*
X10876610Y-16805984D01*
X10876610Y-16805984D02*
X10857563Y-16805984D01*
X10857563Y-16805984D02*
X10838515Y-16796460D01*
X10838515Y-16796460D02*
X10828991Y-16786936D01*
X10828991Y-16786936D02*
X10819467Y-16767888D01*
X10819467Y-16767888D02*
X10809944Y-16729793D01*
X10809944Y-16729793D02*
X10809944Y-16682174D01*
X10809944Y-16682174D02*
X10819467Y-16644079D01*
X10819467Y-16644079D02*
X10828991Y-16625031D01*
X10828991Y-16625031D02*
X10838515Y-16615508D01*
X10838515Y-16615508D02*
X10857563Y-16605984D01*
X11048039Y-16605984D02*
X11067086Y-16605984D01*
X11067086Y-16605984D02*
X11086134Y-16615508D01*
X11086134Y-16615508D02*
X11095658Y-16625031D01*
X11095658Y-16625031D02*
X11105182Y-16644079D01*
X11105182Y-16644079D02*
X11114705Y-16682174D01*
X11114705Y-16682174D02*
X11114705Y-16729793D01*
X11114705Y-16729793D02*
X11105182Y-16767888D01*
X11105182Y-16767888D02*
X11095658Y-16786936D01*
X11095658Y-16786936D02*
X11086134Y-16796460D01*
X11086134Y-16796460D02*
X11067086Y-16805984D01*
X11067086Y-16805984D02*
X11048039Y-16805984D01*
X11048039Y-16805984D02*
X11028991Y-16796460D01*
X11028991Y-16796460D02*
X11019467Y-16786936D01*
X11019467Y-16786936D02*
X11009944Y-16767888D01*
X11009944Y-16767888D02*
X11000420Y-16729793D01*
X11000420Y-16729793D02*
X11000420Y-16682174D01*
X11000420Y-16682174D02*
X11009944Y-16644079D01*
X11009944Y-16644079D02*
X11019467Y-16625031D01*
X11019467Y-16625031D02*
X11028991Y-16615508D01*
X11028991Y-16615508D02*
X11048039Y-16605984D01*
X11200420Y-16805984D02*
X11200420Y-16672650D01*
X11200420Y-16691698D02*
X11209943Y-16682174D01*
X11209943Y-16682174D02*
X11228991Y-16672650D01*
X11228991Y-16672650D02*
X11257563Y-16672650D01*
X11257563Y-16672650D02*
X11276610Y-16682174D01*
X11276610Y-16682174D02*
X11286134Y-16701222D01*
X11286134Y-16701222D02*
X11286134Y-16805984D01*
X11286134Y-16701222D02*
X11295658Y-16682174D01*
X11295658Y-16682174D02*
X11314705Y-16672650D01*
X11314705Y-16672650D02*
X11343277Y-16672650D01*
X11343277Y-16672650D02*
X11362324Y-16682174D01*
X11362324Y-16682174D02*
X11371848Y-16701222D01*
X11371848Y-16701222D02*
X11371848Y-16805984D01*
X11467086Y-16805984D02*
X11467086Y-16672650D01*
X11467086Y-16691698D02*
X11476610Y-16682174D01*
X11476610Y-16682174D02*
X11495658Y-16672650D01*
X11495658Y-16672650D02*
X11524229Y-16672650D01*
X11524229Y-16672650D02*
X11543277Y-16682174D01*
X11543277Y-16682174D02*
X11552801Y-16701222D01*
X11552801Y-16701222D02*
X11552801Y-16805984D01*
X11552801Y-16701222D02*
X11562324Y-16682174D01*
X11562324Y-16682174D02*
X11581372Y-16672650D01*
X11581372Y-16672650D02*
X11609943Y-16672650D01*
X11609943Y-16672650D02*
X11628991Y-16682174D01*
X11628991Y-16682174D02*
X11638515Y-16701222D01*
X11638515Y-16701222D02*
X11638515Y-16805984D01*
X12028991Y-16596460D02*
X11857563Y-16853603D01*
X12286134Y-16605984D02*
X12305182Y-16605984D01*
X12305182Y-16605984D02*
X12324229Y-16615508D01*
X12324229Y-16615508D02*
X12333753Y-16625031D01*
X12333753Y-16625031D02*
X12343277Y-16644079D01*
X12343277Y-16644079D02*
X12352801Y-16682174D01*
X12352801Y-16682174D02*
X12352801Y-16729793D01*
X12352801Y-16729793D02*
X12343277Y-16767888D01*
X12343277Y-16767888D02*
X12333753Y-16786936D01*
X12333753Y-16786936D02*
X12324229Y-16796460D01*
X12324229Y-16796460D02*
X12305182Y-16805984D01*
X12305182Y-16805984D02*
X12286134Y-16805984D01*
X12286134Y-16805984D02*
X12267086Y-16796460D01*
X12267086Y-16796460D02*
X12257563Y-16786936D01*
X12257563Y-16786936D02*
X12248039Y-16767888D01*
X12248039Y-16767888D02*
X12238515Y-16729793D01*
X12238515Y-16729793D02*
X12238515Y-16682174D01*
X12238515Y-16682174D02*
X12248039Y-16644079D01*
X12248039Y-16644079D02*
X12257563Y-16625031D01*
X12257563Y-16625031D02*
X12267086Y-16615508D01*
X12267086Y-16615508D02*
X12286134Y-16605984D01*
X12438515Y-16786936D02*
X12448039Y-16796460D01*
X12448039Y-16796460D02*
X12438515Y-16805984D01*
X12438515Y-16805984D02*
X12428991Y-16796460D01*
X12428991Y-16796460D02*
X12438515Y-16786936D01*
X12438515Y-16786936D02*
X12438515Y-16805984D01*
X12571848Y-16605984D02*
X12590896Y-16605984D01*
X12590896Y-16605984D02*
X12609944Y-16615508D01*
X12609944Y-16615508D02*
X12619467Y-16625031D01*
X12619467Y-16625031D02*
X12628991Y-16644079D01*
X12628991Y-16644079D02*
X12638515Y-16682174D01*
X12638515Y-16682174D02*
X12638515Y-16729793D01*
X12638515Y-16729793D02*
X12628991Y-16767888D01*
X12628991Y-16767888D02*
X12619467Y-16786936D01*
X12619467Y-16786936D02*
X12609944Y-16796460D01*
X12609944Y-16796460D02*
X12590896Y-16805984D01*
X12590896Y-16805984D02*
X12571848Y-16805984D01*
X12571848Y-16805984D02*
X12552801Y-16796460D01*
X12552801Y-16796460D02*
X12543277Y-16786936D01*
X12543277Y-16786936D02*
X12533753Y-16767888D01*
X12533753Y-16767888D02*
X12524229Y-16729793D01*
X12524229Y-16729793D02*
X12524229Y-16682174D01*
X12524229Y-16682174D02*
X12533753Y-16644079D01*
X12533753Y-16644079D02*
X12543277Y-16625031D01*
X12543277Y-16625031D02*
X12552801Y-16615508D01*
X12552801Y-16615508D02*
X12571848Y-16605984D01*
X12714706Y-16625031D02*
X12724229Y-16615508D01*
X12724229Y-16615508D02*
X12743277Y-16605984D01*
X12743277Y-16605984D02*
X12790896Y-16605984D01*
X12790896Y-16605984D02*
X12809944Y-16615508D01*
X12809944Y-16615508D02*
X12819467Y-16625031D01*
X12819467Y-16625031D02*
X12828991Y-16644079D01*
X12828991Y-16644079D02*
X12828991Y-16663127D01*
X12828991Y-16663127D02*
X12819467Y-16691698D01*
X12819467Y-16691698D02*
X12705182Y-16805984D01*
X12705182Y-16805984D02*
X12828991Y-16805984D01*
X12895658Y-16605984D02*
X13019467Y-16605984D01*
X13019467Y-16605984D02*
X12952801Y-16682174D01*
X12952801Y-16682174D02*
X12981372Y-16682174D01*
X12981372Y-16682174D02*
X13000420Y-16691698D01*
X13000420Y-16691698D02*
X13009944Y-16701222D01*
X13009944Y-16701222D02*
X13019467Y-16720269D01*
X13019467Y-16720269D02*
X13019467Y-16767888D01*
X13019467Y-16767888D02*
X13009944Y-16786936D01*
X13009944Y-16786936D02*
X13000420Y-16796460D01*
X13000420Y-16796460D02*
X12981372Y-16805984D01*
X12981372Y-16805984D02*
X12924229Y-16805984D01*
X12924229Y-16805984D02*
X12905182Y-16796460D01*
X12905182Y-16796460D02*
X12895658Y-16786936D01*
X13190896Y-16605984D02*
X13152801Y-16605984D01*
X13152801Y-16605984D02*
X13133753Y-16615508D01*
X13133753Y-16615508D02*
X13124229Y-16625031D01*
X13124229Y-16625031D02*
X13105182Y-16653603D01*
X13105182Y-16653603D02*
X13095658Y-16691698D01*
X13095658Y-16691698D02*
X13095658Y-16767888D01*
X13095658Y-16767888D02*
X13105182Y-16786936D01*
X13105182Y-16786936D02*
X13114706Y-16796460D01*
X13114706Y-16796460D02*
X13133753Y-16805984D01*
X13133753Y-16805984D02*
X13171848Y-16805984D01*
X13171848Y-16805984D02*
X13190896Y-16796460D01*
X13190896Y-16796460D02*
X13200420Y-16786936D01*
X13200420Y-16786936D02*
X13209944Y-16767888D01*
X13209944Y-16767888D02*
X13209944Y-16720269D01*
X13209944Y-16720269D02*
X13200420Y-16701222D01*
X13200420Y-16701222D02*
X13190896Y-16691698D01*
X13190896Y-16691698D02*
X13171848Y-16682174D01*
X13171848Y-16682174D02*
X13133753Y-16682174D01*
X13133753Y-16682174D02*
X13114706Y-16691698D01*
X13114706Y-16691698D02*
X13105182Y-16701222D01*
X13105182Y-16701222D02*
X13095658Y-16720269D01*
X13286134Y-16605984D02*
X13286134Y-16644079D01*
X13362325Y-16605984D02*
X13362325Y-16644079D01*
X13657563Y-16882174D02*
X13648039Y-16872650D01*
X13648039Y-16872650D02*
X13628991Y-16844079D01*
X13628991Y-16844079D02*
X13619468Y-16825031D01*
X13619468Y-16825031D02*
X13609944Y-16796460D01*
X13609944Y-16796460D02*
X13600420Y-16748841D01*
X13600420Y-16748841D02*
X13600420Y-16710746D01*
X13600420Y-16710746D02*
X13609944Y-16663127D01*
X13609944Y-16663127D02*
X13619468Y-16634555D01*
X13619468Y-16634555D02*
X13628991Y-16615508D01*
X13628991Y-16615508D02*
X13648039Y-16586936D01*
X13648039Y-16586936D02*
X13657563Y-16577412D01*
X13771848Y-16605984D02*
X13790896Y-16605984D01*
X13790896Y-16605984D02*
X13809944Y-16615508D01*
X13809944Y-16615508D02*
X13819468Y-16625031D01*
X13819468Y-16625031D02*
X13828991Y-16644079D01*
X13828991Y-16644079D02*
X13838515Y-16682174D01*
X13838515Y-16682174D02*
X13838515Y-16729793D01*
X13838515Y-16729793D02*
X13828991Y-16767888D01*
X13828991Y-16767888D02*
X13819468Y-16786936D01*
X13819468Y-16786936D02*
X13809944Y-16796460D01*
X13809944Y-16796460D02*
X13790896Y-16805984D01*
X13790896Y-16805984D02*
X13771848Y-16805984D01*
X13771848Y-16805984D02*
X13752801Y-16796460D01*
X13752801Y-16796460D02*
X13743277Y-16786936D01*
X13743277Y-16786936D02*
X13733753Y-16767888D01*
X13733753Y-16767888D02*
X13724229Y-16729793D01*
X13724229Y-16729793D02*
X13724229Y-16682174D01*
X13724229Y-16682174D02*
X13733753Y-16644079D01*
X13733753Y-16644079D02*
X13743277Y-16625031D01*
X13743277Y-16625031D02*
X13752801Y-16615508D01*
X13752801Y-16615508D02*
X13771848Y-16605984D01*
X14076610Y-16805984D02*
X14076610Y-16605984D01*
X14162325Y-16805984D02*
X14162325Y-16701222D01*
X14162325Y-16701222D02*
X14152801Y-16682174D01*
X14152801Y-16682174D02*
X14133753Y-16672650D01*
X14133753Y-16672650D02*
X14105182Y-16672650D01*
X14105182Y-16672650D02*
X14086134Y-16682174D01*
X14086134Y-16682174D02*
X14076610Y-16691698D01*
X14286134Y-16805984D02*
X14267087Y-16796460D01*
X14267087Y-16796460D02*
X14257563Y-16786936D01*
X14257563Y-16786936D02*
X14248039Y-16767888D01*
X14248039Y-16767888D02*
X14248039Y-16710746D01*
X14248039Y-16710746D02*
X14257563Y-16691698D01*
X14257563Y-16691698D02*
X14267087Y-16682174D01*
X14267087Y-16682174D02*
X14286134Y-16672650D01*
X14286134Y-16672650D02*
X14314706Y-16672650D01*
X14314706Y-16672650D02*
X14333753Y-16682174D01*
X14333753Y-16682174D02*
X14343277Y-16691698D01*
X14343277Y-16691698D02*
X14352801Y-16710746D01*
X14352801Y-16710746D02*
X14352801Y-16767888D01*
X14352801Y-16767888D02*
X14343277Y-16786936D01*
X14343277Y-16786936D02*
X14333753Y-16796460D01*
X14333753Y-16796460D02*
X14314706Y-16805984D01*
X14314706Y-16805984D02*
X14286134Y-16805984D01*
X14467087Y-16805984D02*
X14448039Y-16796460D01*
X14448039Y-16796460D02*
X14438515Y-16777412D01*
X14438515Y-16777412D02*
X14438515Y-16605984D01*
X14619468Y-16796460D02*
X14600420Y-16805984D01*
X14600420Y-16805984D02*
X14562325Y-16805984D01*
X14562325Y-16805984D02*
X14543277Y-16796460D01*
X14543277Y-16796460D02*
X14533753Y-16777412D01*
X14533753Y-16777412D02*
X14533753Y-16701222D01*
X14533753Y-16701222D02*
X14543277Y-16682174D01*
X14543277Y-16682174D02*
X14562325Y-16672650D01*
X14562325Y-16672650D02*
X14600420Y-16672650D01*
X14600420Y-16672650D02*
X14619468Y-16682174D01*
X14619468Y-16682174D02*
X14628991Y-16701222D01*
X14628991Y-16701222D02*
X14628991Y-16720269D01*
X14628991Y-16720269D02*
X14533753Y-16739317D01*
X14705182Y-16796460D02*
X14724230Y-16805984D01*
X14724230Y-16805984D02*
X14762325Y-16805984D01*
X14762325Y-16805984D02*
X14781372Y-16796460D01*
X14781372Y-16796460D02*
X14790896Y-16777412D01*
X14790896Y-16777412D02*
X14790896Y-16767888D01*
X14790896Y-16767888D02*
X14781372Y-16748841D01*
X14781372Y-16748841D02*
X14762325Y-16739317D01*
X14762325Y-16739317D02*
X14733753Y-16739317D01*
X14733753Y-16739317D02*
X14714706Y-16729793D01*
X14714706Y-16729793D02*
X14705182Y-16710746D01*
X14705182Y-16710746D02*
X14705182Y-16701222D01*
X14705182Y-16701222D02*
X14714706Y-16682174D01*
X14714706Y-16682174D02*
X14733753Y-16672650D01*
X14733753Y-16672650D02*
X14762325Y-16672650D01*
X14762325Y-16672650D02*
X14781372Y-16682174D01*
X15028992Y-16729793D02*
X15181373Y-16729793D01*
X15105182Y-16805984D02*
X15105182Y-16653603D01*
X15514706Y-16672650D02*
X15514706Y-16805984D01*
X15467087Y-16596460D02*
X15419468Y-16739317D01*
X15419468Y-16739317D02*
X15543277Y-16739317D01*
X15762325Y-16796460D02*
X15781373Y-16805984D01*
X15781373Y-16805984D02*
X15819468Y-16805984D01*
X15819468Y-16805984D02*
X15838515Y-16796460D01*
X15838515Y-16796460D02*
X15848039Y-16777412D01*
X15848039Y-16777412D02*
X15848039Y-16767888D01*
X15848039Y-16767888D02*
X15838515Y-16748841D01*
X15838515Y-16748841D02*
X15819468Y-16739317D01*
X15819468Y-16739317D02*
X15790896Y-16739317D01*
X15790896Y-16739317D02*
X15771849Y-16729793D01*
X15771849Y-16729793D02*
X15762325Y-16710746D01*
X15762325Y-16710746D02*
X15762325Y-16701222D01*
X15762325Y-16701222D02*
X15771849Y-16682174D01*
X15771849Y-16682174D02*
X15790896Y-16672650D01*
X15790896Y-16672650D02*
X15819468Y-16672650D01*
X15819468Y-16672650D02*
X15838515Y-16682174D01*
X15962325Y-16805984D02*
X15943277Y-16796460D01*
X15943277Y-16796460D02*
X15933754Y-16777412D01*
X15933754Y-16777412D02*
X15933754Y-16605984D01*
X16067087Y-16805984D02*
X16048039Y-16796460D01*
X16048039Y-16796460D02*
X16038515Y-16786936D01*
X16038515Y-16786936D02*
X16028992Y-16767888D01*
X16028992Y-16767888D02*
X16028992Y-16710746D01*
X16028992Y-16710746D02*
X16038515Y-16691698D01*
X16038515Y-16691698D02*
X16048039Y-16682174D01*
X16048039Y-16682174D02*
X16067087Y-16672650D01*
X16067087Y-16672650D02*
X16095658Y-16672650D01*
X16095658Y-16672650D02*
X16114706Y-16682174D01*
X16114706Y-16682174D02*
X16124230Y-16691698D01*
X16124230Y-16691698D02*
X16133754Y-16710746D01*
X16133754Y-16710746D02*
X16133754Y-16767888D01*
X16133754Y-16767888D02*
X16124230Y-16786936D01*
X16124230Y-16786936D02*
X16114706Y-16796460D01*
X16114706Y-16796460D02*
X16095658Y-16805984D01*
X16095658Y-16805984D02*
X16067087Y-16805984D01*
X16190896Y-16672650D02*
X16267087Y-16672650D01*
X16219468Y-16605984D02*
X16219468Y-16777412D01*
X16219468Y-16777412D02*
X16228992Y-16796460D01*
X16228992Y-16796460D02*
X16248039Y-16805984D01*
X16248039Y-16805984D02*
X16267087Y-16805984D01*
X16324230Y-16796460D02*
X16343277Y-16805984D01*
X16343277Y-16805984D02*
X16381373Y-16805984D01*
X16381373Y-16805984D02*
X16400420Y-16796460D01*
X16400420Y-16796460D02*
X16409944Y-16777412D01*
X16409944Y-16777412D02*
X16409944Y-16767888D01*
X16409944Y-16767888D02*
X16400420Y-16748841D01*
X16400420Y-16748841D02*
X16381373Y-16739317D01*
X16381373Y-16739317D02*
X16352801Y-16739317D01*
X16352801Y-16739317D02*
X16333754Y-16729793D01*
X16333754Y-16729793D02*
X16324230Y-16710746D01*
X16324230Y-16710746D02*
X16324230Y-16701222D01*
X16324230Y-16701222D02*
X16333754Y-16682174D01*
X16333754Y-16682174D02*
X16352801Y-16672650D01*
X16352801Y-16672650D02*
X16381373Y-16672650D01*
X16381373Y-16672650D02*
X16400420Y-16682174D01*
X16476611Y-16882174D02*
X16486135Y-16872650D01*
X16486135Y-16872650D02*
X16505182Y-16844079D01*
X16505182Y-16844079D02*
X16514706Y-16825031D01*
X16514706Y-16825031D02*
X16524230Y-16796460D01*
X16524230Y-16796460D02*
X16533754Y-16748841D01*
X16533754Y-16748841D02*
X16533754Y-16710746D01*
X16533754Y-16710746D02*
X16524230Y-16663127D01*
X16524230Y-16663127D02*
X16514706Y-16634555D01*
X16514706Y-16634555D02*
X16505182Y-16615508D01*
X16505182Y-16615508D02*
X16486135Y-16586936D01*
X16486135Y-16586936D02*
X16476611Y-16577412D01*
D14*
X10072249Y-17003249D02*
X10072249Y-16953751D01*
X10022751Y-16953751D01*
X10022751Y-17003249D01*
X10072249Y-17003249D01*
D11*
X10381372Y-16869984D02*
X10400420Y-16869984D01*
X10400420Y-16869984D02*
X10419467Y-16879508D01*
X10419467Y-16879508D02*
X10428991Y-16889031D01*
X10428991Y-16889031D02*
X10438515Y-16908079D01*
X10438515Y-16908079D02*
X10448039Y-16946174D01*
X10448039Y-16946174D02*
X10448039Y-16993793D01*
X10448039Y-16993793D02*
X10438515Y-17031889D01*
X10438515Y-17031889D02*
X10428991Y-17050936D01*
X10428991Y-17050936D02*
X10419467Y-17060460D01*
X10419467Y-17060460D02*
X10400420Y-17069984D01*
X10400420Y-17069984D02*
X10381372Y-17069984D01*
X10381372Y-17069984D02*
X10362324Y-17060460D01*
X10362324Y-17060460D02*
X10352801Y-17050936D01*
X10352801Y-17050936D02*
X10343277Y-17031889D01*
X10343277Y-17031889D02*
X10333753Y-16993793D01*
X10333753Y-16993793D02*
X10333753Y-16946174D01*
X10333753Y-16946174D02*
X10343277Y-16908079D01*
X10343277Y-16908079D02*
X10352801Y-16889031D01*
X10352801Y-16889031D02*
X10362324Y-16879508D01*
X10362324Y-16879508D02*
X10381372Y-16869984D01*
X10533753Y-17050936D02*
X10543277Y-17060460D01*
X10543277Y-17060460D02*
X10533753Y-17069984D01*
X10533753Y-17069984D02*
X10524229Y-17060460D01*
X10524229Y-17060460D02*
X10533753Y-17050936D01*
X10533753Y-17050936D02*
X10533753Y-17069984D01*
X10609944Y-16869984D02*
X10743277Y-16869984D01*
X10743277Y-16869984D02*
X10657563Y-17069984D01*
X10857563Y-16869984D02*
X10876610Y-16869984D01*
X10876610Y-16869984D02*
X10895658Y-16879508D01*
X10895658Y-16879508D02*
X10905182Y-16889031D01*
X10905182Y-16889031D02*
X10914705Y-16908079D01*
X10914705Y-16908079D02*
X10924229Y-16946174D01*
X10924229Y-16946174D02*
X10924229Y-16993793D01*
X10924229Y-16993793D02*
X10914705Y-17031889D01*
X10914705Y-17031889D02*
X10905182Y-17050936D01*
X10905182Y-17050936D02*
X10895658Y-17060460D01*
X10895658Y-17060460D02*
X10876610Y-17069984D01*
X10876610Y-17069984D02*
X10857563Y-17069984D01*
X10857563Y-17069984D02*
X10838515Y-17060460D01*
X10838515Y-17060460D02*
X10828991Y-17050936D01*
X10828991Y-17050936D02*
X10819467Y-17031889D01*
X10819467Y-17031889D02*
X10809944Y-16993793D01*
X10809944Y-16993793D02*
X10809944Y-16946174D01*
X10809944Y-16946174D02*
X10819467Y-16908079D01*
X10819467Y-16908079D02*
X10828991Y-16889031D01*
X10828991Y-16889031D02*
X10838515Y-16879508D01*
X10838515Y-16879508D02*
X10857563Y-16869984D01*
X11048039Y-16869984D02*
X11067086Y-16869984D01*
X11067086Y-16869984D02*
X11086134Y-16879508D01*
X11086134Y-16879508D02*
X11095658Y-16889031D01*
X11095658Y-16889031D02*
X11105182Y-16908079D01*
X11105182Y-16908079D02*
X11114705Y-16946174D01*
X11114705Y-16946174D02*
X11114705Y-16993793D01*
X11114705Y-16993793D02*
X11105182Y-17031889D01*
X11105182Y-17031889D02*
X11095658Y-17050936D01*
X11095658Y-17050936D02*
X11086134Y-17060460D01*
X11086134Y-17060460D02*
X11067086Y-17069984D01*
X11067086Y-17069984D02*
X11048039Y-17069984D01*
X11048039Y-17069984D02*
X11028991Y-17060460D01*
X11028991Y-17060460D02*
X11019467Y-17050936D01*
X11019467Y-17050936D02*
X11009944Y-17031889D01*
X11009944Y-17031889D02*
X11000420Y-16993793D01*
X11000420Y-16993793D02*
X11000420Y-16946174D01*
X11000420Y-16946174D02*
X11009944Y-16908079D01*
X11009944Y-16908079D02*
X11019467Y-16889031D01*
X11019467Y-16889031D02*
X11028991Y-16879508D01*
X11028991Y-16879508D02*
X11048039Y-16869984D01*
X11200420Y-17069984D02*
X11200420Y-16936650D01*
X11200420Y-16955698D02*
X11209943Y-16946174D01*
X11209943Y-16946174D02*
X11228991Y-16936650D01*
X11228991Y-16936650D02*
X11257563Y-16936650D01*
X11257563Y-16936650D02*
X11276610Y-16946174D01*
X11276610Y-16946174D02*
X11286134Y-16965222D01*
X11286134Y-16965222D02*
X11286134Y-17069984D01*
X11286134Y-16965222D02*
X11295658Y-16946174D01*
X11295658Y-16946174D02*
X11314705Y-16936650D01*
X11314705Y-16936650D02*
X11343277Y-16936650D01*
X11343277Y-16936650D02*
X11362324Y-16946174D01*
X11362324Y-16946174D02*
X11371848Y-16965222D01*
X11371848Y-16965222D02*
X11371848Y-17069984D01*
X11467086Y-17069984D02*
X11467086Y-16936650D01*
X11467086Y-16955698D02*
X11476610Y-16946174D01*
X11476610Y-16946174D02*
X11495658Y-16936650D01*
X11495658Y-16936650D02*
X11524229Y-16936650D01*
X11524229Y-16936650D02*
X11543277Y-16946174D01*
X11543277Y-16946174D02*
X11552801Y-16965222D01*
X11552801Y-16965222D02*
X11552801Y-17069984D01*
X11552801Y-16965222D02*
X11562324Y-16946174D01*
X11562324Y-16946174D02*
X11581372Y-16936650D01*
X11581372Y-16936650D02*
X11609943Y-16936650D01*
X11609943Y-16936650D02*
X11628991Y-16946174D01*
X11628991Y-16946174D02*
X11638515Y-16965222D01*
X11638515Y-16965222D02*
X11638515Y-17069984D01*
X12028991Y-16860460D02*
X11857563Y-17117603D01*
X12286134Y-16869984D02*
X12305182Y-16869984D01*
X12305182Y-16869984D02*
X12324229Y-16879508D01*
X12324229Y-16879508D02*
X12333753Y-16889031D01*
X12333753Y-16889031D02*
X12343277Y-16908079D01*
X12343277Y-16908079D02*
X12352801Y-16946174D01*
X12352801Y-16946174D02*
X12352801Y-16993793D01*
X12352801Y-16993793D02*
X12343277Y-17031889D01*
X12343277Y-17031889D02*
X12333753Y-17050936D01*
X12333753Y-17050936D02*
X12324229Y-17060460D01*
X12324229Y-17060460D02*
X12305182Y-17069984D01*
X12305182Y-17069984D02*
X12286134Y-17069984D01*
X12286134Y-17069984D02*
X12267086Y-17060460D01*
X12267086Y-17060460D02*
X12257563Y-17050936D01*
X12257563Y-17050936D02*
X12248039Y-17031889D01*
X12248039Y-17031889D02*
X12238515Y-16993793D01*
X12238515Y-16993793D02*
X12238515Y-16946174D01*
X12238515Y-16946174D02*
X12248039Y-16908079D01*
X12248039Y-16908079D02*
X12257563Y-16889031D01*
X12257563Y-16889031D02*
X12267086Y-16879508D01*
X12267086Y-16879508D02*
X12286134Y-16869984D01*
X12438515Y-17050936D02*
X12448039Y-17060460D01*
X12448039Y-17060460D02*
X12438515Y-17069984D01*
X12438515Y-17069984D02*
X12428991Y-17060460D01*
X12428991Y-17060460D02*
X12438515Y-17050936D01*
X12438515Y-17050936D02*
X12438515Y-17069984D01*
X12571848Y-16869984D02*
X12590896Y-16869984D01*
X12590896Y-16869984D02*
X12609944Y-16879508D01*
X12609944Y-16879508D02*
X12619467Y-16889031D01*
X12619467Y-16889031D02*
X12628991Y-16908079D01*
X12628991Y-16908079D02*
X12638515Y-16946174D01*
X12638515Y-16946174D02*
X12638515Y-16993793D01*
X12638515Y-16993793D02*
X12628991Y-17031889D01*
X12628991Y-17031889D02*
X12619467Y-17050936D01*
X12619467Y-17050936D02*
X12609944Y-17060460D01*
X12609944Y-17060460D02*
X12590896Y-17069984D01*
X12590896Y-17069984D02*
X12571848Y-17069984D01*
X12571848Y-17069984D02*
X12552801Y-17060460D01*
X12552801Y-17060460D02*
X12543277Y-17050936D01*
X12543277Y-17050936D02*
X12533753Y-17031889D01*
X12533753Y-17031889D02*
X12524229Y-16993793D01*
X12524229Y-16993793D02*
X12524229Y-16946174D01*
X12524229Y-16946174D02*
X12533753Y-16908079D01*
X12533753Y-16908079D02*
X12543277Y-16889031D01*
X12543277Y-16889031D02*
X12552801Y-16879508D01*
X12552801Y-16879508D02*
X12571848Y-16869984D01*
X12714706Y-16889031D02*
X12724229Y-16879508D01*
X12724229Y-16879508D02*
X12743277Y-16869984D01*
X12743277Y-16869984D02*
X12790896Y-16869984D01*
X12790896Y-16869984D02*
X12809944Y-16879508D01*
X12809944Y-16879508D02*
X12819467Y-16889031D01*
X12819467Y-16889031D02*
X12828991Y-16908079D01*
X12828991Y-16908079D02*
X12828991Y-16927127D01*
X12828991Y-16927127D02*
X12819467Y-16955698D01*
X12819467Y-16955698D02*
X12705182Y-17069984D01*
X12705182Y-17069984D02*
X12828991Y-17069984D01*
X12895658Y-16869984D02*
X13028991Y-16869984D01*
X13028991Y-16869984D02*
X12943277Y-17069984D01*
X13190896Y-16869984D02*
X13152801Y-16869984D01*
X13152801Y-16869984D02*
X13133753Y-16879508D01*
X13133753Y-16879508D02*
X13124229Y-16889031D01*
X13124229Y-16889031D02*
X13105182Y-16917603D01*
X13105182Y-16917603D02*
X13095658Y-16955698D01*
X13095658Y-16955698D02*
X13095658Y-17031889D01*
X13095658Y-17031889D02*
X13105182Y-17050936D01*
X13105182Y-17050936D02*
X13114706Y-17060460D01*
X13114706Y-17060460D02*
X13133753Y-17069984D01*
X13133753Y-17069984D02*
X13171848Y-17069984D01*
X13171848Y-17069984D02*
X13190896Y-17060460D01*
X13190896Y-17060460D02*
X13200420Y-17050936D01*
X13200420Y-17050936D02*
X13209944Y-17031889D01*
X13209944Y-17031889D02*
X13209944Y-16984270D01*
X13209944Y-16984270D02*
X13200420Y-16965222D01*
X13200420Y-16965222D02*
X13190896Y-16955698D01*
X13190896Y-16955698D02*
X13171848Y-16946174D01*
X13171848Y-16946174D02*
X13133753Y-16946174D01*
X13133753Y-16946174D02*
X13114706Y-16955698D01*
X13114706Y-16955698D02*
X13105182Y-16965222D01*
X13105182Y-16965222D02*
X13095658Y-16984270D01*
X13286134Y-16869984D02*
X13286134Y-16908079D01*
X13362325Y-16869984D02*
X13362325Y-16908079D01*
X13657563Y-17146174D02*
X13648039Y-17136650D01*
X13648039Y-17136650D02*
X13628991Y-17108079D01*
X13628991Y-17108079D02*
X13619468Y-17089031D01*
X13619468Y-17089031D02*
X13609944Y-17060460D01*
X13609944Y-17060460D02*
X13600420Y-17012841D01*
X13600420Y-17012841D02*
X13600420Y-16974746D01*
X13600420Y-16974746D02*
X13609944Y-16927127D01*
X13609944Y-16927127D02*
X13619468Y-16898555D01*
X13619468Y-16898555D02*
X13628991Y-16879508D01*
X13628991Y-16879508D02*
X13648039Y-16850936D01*
X13648039Y-16850936D02*
X13657563Y-16841412D01*
X13838515Y-17069984D02*
X13724229Y-17069984D01*
X13781372Y-17069984D02*
X13781372Y-16869984D01*
X13781372Y-16869984D02*
X13762325Y-16898555D01*
X13762325Y-16898555D02*
X13743277Y-16917603D01*
X13743277Y-16917603D02*
X13724229Y-16927127D01*
X13914706Y-16889031D02*
X13924229Y-16879508D01*
X13924229Y-16879508D02*
X13943277Y-16869984D01*
X13943277Y-16869984D02*
X13990896Y-16869984D01*
X13990896Y-16869984D02*
X14009944Y-16879508D01*
X14009944Y-16879508D02*
X14019468Y-16889031D01*
X14019468Y-16889031D02*
X14028991Y-16908079D01*
X14028991Y-16908079D02*
X14028991Y-16927127D01*
X14028991Y-16927127D02*
X14019468Y-16955698D01*
X14019468Y-16955698D02*
X13905182Y-17069984D01*
X13905182Y-17069984D02*
X14028991Y-17069984D01*
X14267087Y-17069984D02*
X14267087Y-16869984D01*
X14352801Y-17069984D02*
X14352801Y-16965222D01*
X14352801Y-16965222D02*
X14343277Y-16946174D01*
X14343277Y-16946174D02*
X14324230Y-16936650D01*
X14324230Y-16936650D02*
X14295658Y-16936650D01*
X14295658Y-16936650D02*
X14276610Y-16946174D01*
X14276610Y-16946174D02*
X14267087Y-16955698D01*
X14476610Y-17069984D02*
X14457563Y-17060460D01*
X14457563Y-17060460D02*
X14448039Y-17050936D01*
X14448039Y-17050936D02*
X14438515Y-17031889D01*
X14438515Y-17031889D02*
X14438515Y-16974746D01*
X14438515Y-16974746D02*
X14448039Y-16955698D01*
X14448039Y-16955698D02*
X14457563Y-16946174D01*
X14457563Y-16946174D02*
X14476610Y-16936650D01*
X14476610Y-16936650D02*
X14505182Y-16936650D01*
X14505182Y-16936650D02*
X14524230Y-16946174D01*
X14524230Y-16946174D02*
X14533753Y-16955698D01*
X14533753Y-16955698D02*
X14543277Y-16974746D01*
X14543277Y-16974746D02*
X14543277Y-17031889D01*
X14543277Y-17031889D02*
X14533753Y-17050936D01*
X14533753Y-17050936D02*
X14524230Y-17060460D01*
X14524230Y-17060460D02*
X14505182Y-17069984D01*
X14505182Y-17069984D02*
X14476610Y-17069984D01*
X14657563Y-17069984D02*
X14638515Y-17060460D01*
X14638515Y-17060460D02*
X14628991Y-17041412D01*
X14628991Y-17041412D02*
X14628991Y-16869984D01*
X14809944Y-17060460D02*
X14790896Y-17069984D01*
X14790896Y-17069984D02*
X14752801Y-17069984D01*
X14752801Y-17069984D02*
X14733753Y-17060460D01*
X14733753Y-17060460D02*
X14724230Y-17041412D01*
X14724230Y-17041412D02*
X14724230Y-16965222D01*
X14724230Y-16965222D02*
X14733753Y-16946174D01*
X14733753Y-16946174D02*
X14752801Y-16936650D01*
X14752801Y-16936650D02*
X14790896Y-16936650D01*
X14790896Y-16936650D02*
X14809944Y-16946174D01*
X14809944Y-16946174D02*
X14819468Y-16965222D01*
X14819468Y-16965222D02*
X14819468Y-16984270D01*
X14819468Y-16984270D02*
X14724230Y-17003317D01*
X14895658Y-17060460D02*
X14914706Y-17069984D01*
X14914706Y-17069984D02*
X14952801Y-17069984D01*
X14952801Y-17069984D02*
X14971849Y-17060460D01*
X14971849Y-17060460D02*
X14981372Y-17041412D01*
X14981372Y-17041412D02*
X14981372Y-17031889D01*
X14981372Y-17031889D02*
X14971849Y-17012841D01*
X14971849Y-17012841D02*
X14952801Y-17003317D01*
X14952801Y-17003317D02*
X14924230Y-17003317D01*
X14924230Y-17003317D02*
X14905182Y-16993793D01*
X14905182Y-16993793D02*
X14895658Y-16974746D01*
X14895658Y-16974746D02*
X14895658Y-16965222D01*
X14895658Y-16965222D02*
X14905182Y-16946174D01*
X14905182Y-16946174D02*
X14924230Y-16936650D01*
X14924230Y-16936650D02*
X14952801Y-16936650D01*
X14952801Y-16936650D02*
X14971849Y-16946174D01*
X15048039Y-17146174D02*
X15057563Y-17136650D01*
X15057563Y-17136650D02*
X15076611Y-17108079D01*
X15076611Y-17108079D02*
X15086134Y-17089031D01*
X15086134Y-17089031D02*
X15095658Y-17060460D01*
X15095658Y-17060460D02*
X15105182Y-17012841D01*
X15105182Y-17012841D02*
X15105182Y-16974746D01*
X15105182Y-16974746D02*
X15095658Y-16927127D01*
X15095658Y-16927127D02*
X15086134Y-16898555D01*
X15086134Y-16898555D02*
X15076611Y-16879508D01*
X15076611Y-16879508D02*
X15057563Y-16850936D01*
X15057563Y-16850936D02*
X15048039Y-16841412D01*
D15*
X10042500Y-17282500D02*
X10082500Y-17242500D01*
X10042500Y-17202500D01*
X10002500Y-17242500D01*
X10042500Y-17282500D01*
D11*
X10381372Y-17133984D02*
X10400420Y-17133984D01*
X10400420Y-17133984D02*
X10419467Y-17143508D01*
X10419467Y-17143508D02*
X10428991Y-17153031D01*
X10428991Y-17153031D02*
X10438515Y-17172079D01*
X10438515Y-17172079D02*
X10448039Y-17210174D01*
X10448039Y-17210174D02*
X10448039Y-17257793D01*
X10448039Y-17257793D02*
X10438515Y-17295889D01*
X10438515Y-17295889D02*
X10428991Y-17314936D01*
X10428991Y-17314936D02*
X10419467Y-17324460D01*
X10419467Y-17324460D02*
X10400420Y-17333984D01*
X10400420Y-17333984D02*
X10381372Y-17333984D01*
X10381372Y-17333984D02*
X10362324Y-17324460D01*
X10362324Y-17324460D02*
X10352801Y-17314936D01*
X10352801Y-17314936D02*
X10343277Y-17295889D01*
X10343277Y-17295889D02*
X10333753Y-17257793D01*
X10333753Y-17257793D02*
X10333753Y-17210174D01*
X10333753Y-17210174D02*
X10343277Y-17172079D01*
X10343277Y-17172079D02*
X10352801Y-17153031D01*
X10352801Y-17153031D02*
X10362324Y-17143508D01*
X10362324Y-17143508D02*
X10381372Y-17133984D01*
X10533753Y-17314936D02*
X10543277Y-17324460D01*
X10543277Y-17324460D02*
X10533753Y-17333984D01*
X10533753Y-17333984D02*
X10524229Y-17324460D01*
X10524229Y-17324460D02*
X10533753Y-17314936D01*
X10533753Y-17314936D02*
X10533753Y-17333984D01*
X10657563Y-17219698D02*
X10638515Y-17210174D01*
X10638515Y-17210174D02*
X10628991Y-17200650D01*
X10628991Y-17200650D02*
X10619467Y-17181603D01*
X10619467Y-17181603D02*
X10619467Y-17172079D01*
X10619467Y-17172079D02*
X10628991Y-17153031D01*
X10628991Y-17153031D02*
X10638515Y-17143508D01*
X10638515Y-17143508D02*
X10657563Y-17133984D01*
X10657563Y-17133984D02*
X10695658Y-17133984D01*
X10695658Y-17133984D02*
X10714705Y-17143508D01*
X10714705Y-17143508D02*
X10724229Y-17153031D01*
X10724229Y-17153031D02*
X10733753Y-17172079D01*
X10733753Y-17172079D02*
X10733753Y-17181603D01*
X10733753Y-17181603D02*
X10724229Y-17200650D01*
X10724229Y-17200650D02*
X10714705Y-17210174D01*
X10714705Y-17210174D02*
X10695658Y-17219698D01*
X10695658Y-17219698D02*
X10657563Y-17219698D01*
X10657563Y-17219698D02*
X10638515Y-17229222D01*
X10638515Y-17229222D02*
X10628991Y-17238746D01*
X10628991Y-17238746D02*
X10619467Y-17257793D01*
X10619467Y-17257793D02*
X10619467Y-17295889D01*
X10619467Y-17295889D02*
X10628991Y-17314936D01*
X10628991Y-17314936D02*
X10638515Y-17324460D01*
X10638515Y-17324460D02*
X10657563Y-17333984D01*
X10657563Y-17333984D02*
X10695658Y-17333984D01*
X10695658Y-17333984D02*
X10714705Y-17324460D01*
X10714705Y-17324460D02*
X10724229Y-17314936D01*
X10724229Y-17314936D02*
X10733753Y-17295889D01*
X10733753Y-17295889D02*
X10733753Y-17257793D01*
X10733753Y-17257793D02*
X10724229Y-17238746D01*
X10724229Y-17238746D02*
X10714705Y-17229222D01*
X10714705Y-17229222D02*
X10695658Y-17219698D01*
X10857563Y-17133984D02*
X10876610Y-17133984D01*
X10876610Y-17133984D02*
X10895658Y-17143508D01*
X10895658Y-17143508D02*
X10905182Y-17153031D01*
X10905182Y-17153031D02*
X10914705Y-17172079D01*
X10914705Y-17172079D02*
X10924229Y-17210174D01*
X10924229Y-17210174D02*
X10924229Y-17257793D01*
X10924229Y-17257793D02*
X10914705Y-17295889D01*
X10914705Y-17295889D02*
X10905182Y-17314936D01*
X10905182Y-17314936D02*
X10895658Y-17324460D01*
X10895658Y-17324460D02*
X10876610Y-17333984D01*
X10876610Y-17333984D02*
X10857563Y-17333984D01*
X10857563Y-17333984D02*
X10838515Y-17324460D01*
X10838515Y-17324460D02*
X10828991Y-17314936D01*
X10828991Y-17314936D02*
X10819467Y-17295889D01*
X10819467Y-17295889D02*
X10809944Y-17257793D01*
X10809944Y-17257793D02*
X10809944Y-17210174D01*
X10809944Y-17210174D02*
X10819467Y-17172079D01*
X10819467Y-17172079D02*
X10828991Y-17153031D01*
X10828991Y-17153031D02*
X10838515Y-17143508D01*
X10838515Y-17143508D02*
X10857563Y-17133984D01*
X11048039Y-17133984D02*
X11067086Y-17133984D01*
X11067086Y-17133984D02*
X11086134Y-17143508D01*
X11086134Y-17143508D02*
X11095658Y-17153031D01*
X11095658Y-17153031D02*
X11105182Y-17172079D01*
X11105182Y-17172079D02*
X11114705Y-17210174D01*
X11114705Y-17210174D02*
X11114705Y-17257793D01*
X11114705Y-17257793D02*
X11105182Y-17295889D01*
X11105182Y-17295889D02*
X11095658Y-17314936D01*
X11095658Y-17314936D02*
X11086134Y-17324460D01*
X11086134Y-17324460D02*
X11067086Y-17333984D01*
X11067086Y-17333984D02*
X11048039Y-17333984D01*
X11048039Y-17333984D02*
X11028991Y-17324460D01*
X11028991Y-17324460D02*
X11019467Y-17314936D01*
X11019467Y-17314936D02*
X11009944Y-17295889D01*
X11009944Y-17295889D02*
X11000420Y-17257793D01*
X11000420Y-17257793D02*
X11000420Y-17210174D01*
X11000420Y-17210174D02*
X11009944Y-17172079D01*
X11009944Y-17172079D02*
X11019467Y-17153031D01*
X11019467Y-17153031D02*
X11028991Y-17143508D01*
X11028991Y-17143508D02*
X11048039Y-17133984D01*
X11200420Y-17333984D02*
X11200420Y-17200650D01*
X11200420Y-17219698D02*
X11209943Y-17210174D01*
X11209943Y-17210174D02*
X11228991Y-17200650D01*
X11228991Y-17200650D02*
X11257563Y-17200650D01*
X11257563Y-17200650D02*
X11276610Y-17210174D01*
X11276610Y-17210174D02*
X11286134Y-17229222D01*
X11286134Y-17229222D02*
X11286134Y-17333984D01*
X11286134Y-17229222D02*
X11295658Y-17210174D01*
X11295658Y-17210174D02*
X11314705Y-17200650D01*
X11314705Y-17200650D02*
X11343277Y-17200650D01*
X11343277Y-17200650D02*
X11362324Y-17210174D01*
X11362324Y-17210174D02*
X11371848Y-17229222D01*
X11371848Y-17229222D02*
X11371848Y-17333984D01*
X11467086Y-17333984D02*
X11467086Y-17200650D01*
X11467086Y-17219698D02*
X11476610Y-17210174D01*
X11476610Y-17210174D02*
X11495658Y-17200650D01*
X11495658Y-17200650D02*
X11524229Y-17200650D01*
X11524229Y-17200650D02*
X11543277Y-17210174D01*
X11543277Y-17210174D02*
X11552801Y-17229222D01*
X11552801Y-17229222D02*
X11552801Y-17333984D01*
X11552801Y-17229222D02*
X11562324Y-17210174D01*
X11562324Y-17210174D02*
X11581372Y-17200650D01*
X11581372Y-17200650D02*
X11609943Y-17200650D01*
X11609943Y-17200650D02*
X11628991Y-17210174D01*
X11628991Y-17210174D02*
X11638515Y-17229222D01*
X11638515Y-17229222D02*
X11638515Y-17333984D01*
X12028991Y-17124460D02*
X11857563Y-17381603D01*
X12286134Y-17133984D02*
X12305182Y-17133984D01*
X12305182Y-17133984D02*
X12324229Y-17143508D01*
X12324229Y-17143508D02*
X12333753Y-17153031D01*
X12333753Y-17153031D02*
X12343277Y-17172079D01*
X12343277Y-17172079D02*
X12352801Y-17210174D01*
X12352801Y-17210174D02*
X12352801Y-17257793D01*
X12352801Y-17257793D02*
X12343277Y-17295889D01*
X12343277Y-17295889D02*
X12333753Y-17314936D01*
X12333753Y-17314936D02*
X12324229Y-17324460D01*
X12324229Y-17324460D02*
X12305182Y-17333984D01*
X12305182Y-17333984D02*
X12286134Y-17333984D01*
X12286134Y-17333984D02*
X12267086Y-17324460D01*
X12267086Y-17324460D02*
X12257563Y-17314936D01*
X12257563Y-17314936D02*
X12248039Y-17295889D01*
X12248039Y-17295889D02*
X12238515Y-17257793D01*
X12238515Y-17257793D02*
X12238515Y-17210174D01*
X12238515Y-17210174D02*
X12248039Y-17172079D01*
X12248039Y-17172079D02*
X12257563Y-17153031D01*
X12257563Y-17153031D02*
X12267086Y-17143508D01*
X12267086Y-17143508D02*
X12286134Y-17133984D01*
X12438515Y-17314936D02*
X12448039Y-17324460D01*
X12448039Y-17324460D02*
X12438515Y-17333984D01*
X12438515Y-17333984D02*
X12428991Y-17324460D01*
X12428991Y-17324460D02*
X12438515Y-17314936D01*
X12438515Y-17314936D02*
X12438515Y-17333984D01*
X12571848Y-17133984D02*
X12590896Y-17133984D01*
X12590896Y-17133984D02*
X12609944Y-17143508D01*
X12609944Y-17143508D02*
X12619467Y-17153031D01*
X12619467Y-17153031D02*
X12628991Y-17172079D01*
X12628991Y-17172079D02*
X12638515Y-17210174D01*
X12638515Y-17210174D02*
X12638515Y-17257793D01*
X12638515Y-17257793D02*
X12628991Y-17295889D01*
X12628991Y-17295889D02*
X12619467Y-17314936D01*
X12619467Y-17314936D02*
X12609944Y-17324460D01*
X12609944Y-17324460D02*
X12590896Y-17333984D01*
X12590896Y-17333984D02*
X12571848Y-17333984D01*
X12571848Y-17333984D02*
X12552801Y-17324460D01*
X12552801Y-17324460D02*
X12543277Y-17314936D01*
X12543277Y-17314936D02*
X12533753Y-17295889D01*
X12533753Y-17295889D02*
X12524229Y-17257793D01*
X12524229Y-17257793D02*
X12524229Y-17210174D01*
X12524229Y-17210174D02*
X12533753Y-17172079D01*
X12533753Y-17172079D02*
X12543277Y-17153031D01*
X12543277Y-17153031D02*
X12552801Y-17143508D01*
X12552801Y-17143508D02*
X12571848Y-17133984D01*
X12705182Y-17133984D02*
X12828991Y-17133984D01*
X12828991Y-17133984D02*
X12762325Y-17210174D01*
X12762325Y-17210174D02*
X12790896Y-17210174D01*
X12790896Y-17210174D02*
X12809944Y-17219698D01*
X12809944Y-17219698D02*
X12819467Y-17229222D01*
X12819467Y-17229222D02*
X12828991Y-17248270D01*
X12828991Y-17248270D02*
X12828991Y-17295889D01*
X12828991Y-17295889D02*
X12819467Y-17314936D01*
X12819467Y-17314936D02*
X12809944Y-17324460D01*
X12809944Y-17324460D02*
X12790896Y-17333984D01*
X12790896Y-17333984D02*
X12733753Y-17333984D01*
X12733753Y-17333984D02*
X12714706Y-17324460D01*
X12714706Y-17324460D02*
X12705182Y-17314936D01*
X13019467Y-17333984D02*
X12905182Y-17333984D01*
X12962325Y-17333984D02*
X12962325Y-17133984D01*
X12962325Y-17133984D02*
X12943277Y-17162555D01*
X12943277Y-17162555D02*
X12924229Y-17181603D01*
X12924229Y-17181603D02*
X12905182Y-17191127D01*
X13200420Y-17133984D02*
X13105182Y-17133984D01*
X13105182Y-17133984D02*
X13095658Y-17229222D01*
X13095658Y-17229222D02*
X13105182Y-17219698D01*
X13105182Y-17219698D02*
X13124229Y-17210174D01*
X13124229Y-17210174D02*
X13171848Y-17210174D01*
X13171848Y-17210174D02*
X13190896Y-17219698D01*
X13190896Y-17219698D02*
X13200420Y-17229222D01*
X13200420Y-17229222D02*
X13209944Y-17248270D01*
X13209944Y-17248270D02*
X13209944Y-17295889D01*
X13209944Y-17295889D02*
X13200420Y-17314936D01*
X13200420Y-17314936D02*
X13190896Y-17324460D01*
X13190896Y-17324460D02*
X13171848Y-17333984D01*
X13171848Y-17333984D02*
X13124229Y-17333984D01*
X13124229Y-17333984D02*
X13105182Y-17324460D01*
X13105182Y-17324460D02*
X13095658Y-17314936D01*
X13286134Y-17133984D02*
X13286134Y-17172079D01*
X13362325Y-17133984D02*
X13362325Y-17172079D01*
X13657563Y-17410174D02*
X13648039Y-17400650D01*
X13648039Y-17400650D02*
X13628991Y-17372079D01*
X13628991Y-17372079D02*
X13619468Y-17353031D01*
X13619468Y-17353031D02*
X13609944Y-17324460D01*
X13609944Y-17324460D02*
X13600420Y-17276841D01*
X13600420Y-17276841D02*
X13600420Y-17238746D01*
X13600420Y-17238746D02*
X13609944Y-17191127D01*
X13609944Y-17191127D02*
X13619468Y-17162555D01*
X13619468Y-17162555D02*
X13628991Y-17143508D01*
X13628991Y-17143508D02*
X13648039Y-17114936D01*
X13648039Y-17114936D02*
X13657563Y-17105412D01*
X13819468Y-17200650D02*
X13819468Y-17333984D01*
X13771848Y-17124460D02*
X13724229Y-17267317D01*
X13724229Y-17267317D02*
X13848039Y-17267317D01*
X14009944Y-17200650D02*
X14009944Y-17333984D01*
X13962325Y-17124460D02*
X13914706Y-17267317D01*
X13914706Y-17267317D02*
X14038515Y-17267317D01*
X14267087Y-17333984D02*
X14267087Y-17133984D01*
X14352801Y-17333984D02*
X14352801Y-17229222D01*
X14352801Y-17229222D02*
X14343277Y-17210174D01*
X14343277Y-17210174D02*
X14324230Y-17200650D01*
X14324230Y-17200650D02*
X14295658Y-17200650D01*
X14295658Y-17200650D02*
X14276610Y-17210174D01*
X14276610Y-17210174D02*
X14267087Y-17219698D01*
X14476610Y-17333984D02*
X14457563Y-17324460D01*
X14457563Y-17324460D02*
X14448039Y-17314936D01*
X14448039Y-17314936D02*
X14438515Y-17295889D01*
X14438515Y-17295889D02*
X14438515Y-17238746D01*
X14438515Y-17238746D02*
X14448039Y-17219698D01*
X14448039Y-17219698D02*
X14457563Y-17210174D01*
X14457563Y-17210174D02*
X14476610Y-17200650D01*
X14476610Y-17200650D02*
X14505182Y-17200650D01*
X14505182Y-17200650D02*
X14524230Y-17210174D01*
X14524230Y-17210174D02*
X14533753Y-17219698D01*
X14533753Y-17219698D02*
X14543277Y-17238746D01*
X14543277Y-17238746D02*
X14543277Y-17295889D01*
X14543277Y-17295889D02*
X14533753Y-17314936D01*
X14533753Y-17314936D02*
X14524230Y-17324460D01*
X14524230Y-17324460D02*
X14505182Y-17333984D01*
X14505182Y-17333984D02*
X14476610Y-17333984D01*
X14657563Y-17333984D02*
X14638515Y-17324460D01*
X14638515Y-17324460D02*
X14628991Y-17305412D01*
X14628991Y-17305412D02*
X14628991Y-17133984D01*
X14809944Y-17324460D02*
X14790896Y-17333984D01*
X14790896Y-17333984D02*
X14752801Y-17333984D01*
X14752801Y-17333984D02*
X14733753Y-17324460D01*
X14733753Y-17324460D02*
X14724230Y-17305412D01*
X14724230Y-17305412D02*
X14724230Y-17229222D01*
X14724230Y-17229222D02*
X14733753Y-17210174D01*
X14733753Y-17210174D02*
X14752801Y-17200650D01*
X14752801Y-17200650D02*
X14790896Y-17200650D01*
X14790896Y-17200650D02*
X14809944Y-17210174D01*
X14809944Y-17210174D02*
X14819468Y-17229222D01*
X14819468Y-17229222D02*
X14819468Y-17248270D01*
X14819468Y-17248270D02*
X14724230Y-17267317D01*
X14895658Y-17324460D02*
X14914706Y-17333984D01*
X14914706Y-17333984D02*
X14952801Y-17333984D01*
X14952801Y-17333984D02*
X14971849Y-17324460D01*
X14971849Y-17324460D02*
X14981372Y-17305412D01*
X14981372Y-17305412D02*
X14981372Y-17295889D01*
X14981372Y-17295889D02*
X14971849Y-17276841D01*
X14971849Y-17276841D02*
X14952801Y-17267317D01*
X14952801Y-17267317D02*
X14924230Y-17267317D01*
X14924230Y-17267317D02*
X14905182Y-17257793D01*
X14905182Y-17257793D02*
X14895658Y-17238746D01*
X14895658Y-17238746D02*
X14895658Y-17229222D01*
X14895658Y-17229222D02*
X14905182Y-17210174D01*
X14905182Y-17210174D02*
X14924230Y-17200650D01*
X14924230Y-17200650D02*
X14952801Y-17200650D01*
X14952801Y-17200650D02*
X14971849Y-17210174D01*
X15048039Y-17410174D02*
X15057563Y-17400650D01*
X15057563Y-17400650D02*
X15076611Y-17372079D01*
X15076611Y-17372079D02*
X15086134Y-17353031D01*
X15086134Y-17353031D02*
X15095658Y-17324460D01*
X15095658Y-17324460D02*
X15105182Y-17276841D01*
X15105182Y-17276841D02*
X15105182Y-17238746D01*
X15105182Y-17238746D02*
X15095658Y-17191127D01*
X15095658Y-17191127D02*
X15086134Y-17162555D01*
X15086134Y-17162555D02*
X15076611Y-17143508D01*
X15076611Y-17143508D02*
X15057563Y-17114936D01*
X15057563Y-17114936D02*
X15048039Y-17105412D01*
D10*
X9982500Y-17456500D02*
X10082500Y-17556500D01*
X10082500Y-17456500D02*
X9982500Y-17556500D01*
X10082500Y-17506500D02*
G75*
G03*
X10082500Y-17506500I-50000J0D01*
G01*
D11*
X10448039Y-17597984D02*
X10333753Y-17597984D01*
X10390896Y-17597984D02*
X10390896Y-17397984D01*
X10390896Y-17397984D02*
X10371848Y-17426555D01*
X10371848Y-17426555D02*
X10352801Y-17445603D01*
X10352801Y-17445603D02*
X10333753Y-17455127D01*
X10533753Y-17578936D02*
X10543277Y-17588460D01*
X10543277Y-17588460D02*
X10533753Y-17597984D01*
X10533753Y-17597984D02*
X10524229Y-17588460D01*
X10524229Y-17588460D02*
X10533753Y-17578936D01*
X10533753Y-17578936D02*
X10533753Y-17597984D01*
X10667086Y-17397984D02*
X10686134Y-17397984D01*
X10686134Y-17397984D02*
X10705182Y-17407508D01*
X10705182Y-17407508D02*
X10714705Y-17417031D01*
X10714705Y-17417031D02*
X10724229Y-17436079D01*
X10724229Y-17436079D02*
X10733753Y-17474174D01*
X10733753Y-17474174D02*
X10733753Y-17521793D01*
X10733753Y-17521793D02*
X10724229Y-17559889D01*
X10724229Y-17559889D02*
X10714705Y-17578936D01*
X10714705Y-17578936D02*
X10705182Y-17588460D01*
X10705182Y-17588460D02*
X10686134Y-17597984D01*
X10686134Y-17597984D02*
X10667086Y-17597984D01*
X10667086Y-17597984D02*
X10648039Y-17588460D01*
X10648039Y-17588460D02*
X10638515Y-17578936D01*
X10638515Y-17578936D02*
X10628991Y-17559889D01*
X10628991Y-17559889D02*
X10619467Y-17521793D01*
X10619467Y-17521793D02*
X10619467Y-17474174D01*
X10619467Y-17474174D02*
X10628991Y-17436079D01*
X10628991Y-17436079D02*
X10638515Y-17417031D01*
X10638515Y-17417031D02*
X10648039Y-17407508D01*
X10648039Y-17407508D02*
X10667086Y-17397984D01*
X10857563Y-17397984D02*
X10876610Y-17397984D01*
X10876610Y-17397984D02*
X10895658Y-17407508D01*
X10895658Y-17407508D02*
X10905182Y-17417031D01*
X10905182Y-17417031D02*
X10914705Y-17436079D01*
X10914705Y-17436079D02*
X10924229Y-17474174D01*
X10924229Y-17474174D02*
X10924229Y-17521793D01*
X10924229Y-17521793D02*
X10914705Y-17559889D01*
X10914705Y-17559889D02*
X10905182Y-17578936D01*
X10905182Y-17578936D02*
X10895658Y-17588460D01*
X10895658Y-17588460D02*
X10876610Y-17597984D01*
X10876610Y-17597984D02*
X10857563Y-17597984D01*
X10857563Y-17597984D02*
X10838515Y-17588460D01*
X10838515Y-17588460D02*
X10828991Y-17578936D01*
X10828991Y-17578936D02*
X10819467Y-17559889D01*
X10819467Y-17559889D02*
X10809944Y-17521793D01*
X10809944Y-17521793D02*
X10809944Y-17474174D01*
X10809944Y-17474174D02*
X10819467Y-17436079D01*
X10819467Y-17436079D02*
X10828991Y-17417031D01*
X10828991Y-17417031D02*
X10838515Y-17407508D01*
X10838515Y-17407508D02*
X10857563Y-17397984D01*
X11048039Y-17397984D02*
X11067086Y-17397984D01*
X11067086Y-17397984D02*
X11086134Y-17407508D01*
X11086134Y-17407508D02*
X11095658Y-17417031D01*
X11095658Y-17417031D02*
X11105182Y-17436079D01*
X11105182Y-17436079D02*
X11114705Y-17474174D01*
X11114705Y-17474174D02*
X11114705Y-17521793D01*
X11114705Y-17521793D02*
X11105182Y-17559889D01*
X11105182Y-17559889D02*
X11095658Y-17578936D01*
X11095658Y-17578936D02*
X11086134Y-17588460D01*
X11086134Y-17588460D02*
X11067086Y-17597984D01*
X11067086Y-17597984D02*
X11048039Y-17597984D01*
X11048039Y-17597984D02*
X11028991Y-17588460D01*
X11028991Y-17588460D02*
X11019467Y-17578936D01*
X11019467Y-17578936D02*
X11009944Y-17559889D01*
X11009944Y-17559889D02*
X11000420Y-17521793D01*
X11000420Y-17521793D02*
X11000420Y-17474174D01*
X11000420Y-17474174D02*
X11009944Y-17436079D01*
X11009944Y-17436079D02*
X11019467Y-17417031D01*
X11019467Y-17417031D02*
X11028991Y-17407508D01*
X11028991Y-17407508D02*
X11048039Y-17397984D01*
X11200420Y-17597984D02*
X11200420Y-17464650D01*
X11200420Y-17483698D02*
X11209943Y-17474174D01*
X11209943Y-17474174D02*
X11228991Y-17464650D01*
X11228991Y-17464650D02*
X11257563Y-17464650D01*
X11257563Y-17464650D02*
X11276610Y-17474174D01*
X11276610Y-17474174D02*
X11286134Y-17493222D01*
X11286134Y-17493222D02*
X11286134Y-17597984D01*
X11286134Y-17493222D02*
X11295658Y-17474174D01*
X11295658Y-17474174D02*
X11314705Y-17464650D01*
X11314705Y-17464650D02*
X11343277Y-17464650D01*
X11343277Y-17464650D02*
X11362324Y-17474174D01*
X11362324Y-17474174D02*
X11371848Y-17493222D01*
X11371848Y-17493222D02*
X11371848Y-17597984D01*
X11467086Y-17597984D02*
X11467086Y-17464650D01*
X11467086Y-17483698D02*
X11476610Y-17474174D01*
X11476610Y-17474174D02*
X11495658Y-17464650D01*
X11495658Y-17464650D02*
X11524229Y-17464650D01*
X11524229Y-17464650D02*
X11543277Y-17474174D01*
X11543277Y-17474174D02*
X11552801Y-17493222D01*
X11552801Y-17493222D02*
X11552801Y-17597984D01*
X11552801Y-17493222D02*
X11562324Y-17474174D01*
X11562324Y-17474174D02*
X11581372Y-17464650D01*
X11581372Y-17464650D02*
X11609943Y-17464650D01*
X11609943Y-17464650D02*
X11628991Y-17474174D01*
X11628991Y-17474174D02*
X11638515Y-17493222D01*
X11638515Y-17493222D02*
X11638515Y-17597984D01*
X12028991Y-17388460D02*
X11857563Y-17645603D01*
X12286134Y-17397984D02*
X12305182Y-17397984D01*
X12305182Y-17397984D02*
X12324229Y-17407508D01*
X12324229Y-17407508D02*
X12333753Y-17417031D01*
X12333753Y-17417031D02*
X12343277Y-17436079D01*
X12343277Y-17436079D02*
X12352801Y-17474174D01*
X12352801Y-17474174D02*
X12352801Y-17521793D01*
X12352801Y-17521793D02*
X12343277Y-17559889D01*
X12343277Y-17559889D02*
X12333753Y-17578936D01*
X12333753Y-17578936D02*
X12324229Y-17588460D01*
X12324229Y-17588460D02*
X12305182Y-17597984D01*
X12305182Y-17597984D02*
X12286134Y-17597984D01*
X12286134Y-17597984D02*
X12267086Y-17588460D01*
X12267086Y-17588460D02*
X12257563Y-17578936D01*
X12257563Y-17578936D02*
X12248039Y-17559889D01*
X12248039Y-17559889D02*
X12238515Y-17521793D01*
X12238515Y-17521793D02*
X12238515Y-17474174D01*
X12238515Y-17474174D02*
X12248039Y-17436079D01*
X12248039Y-17436079D02*
X12257563Y-17417031D01*
X12257563Y-17417031D02*
X12267086Y-17407508D01*
X12267086Y-17407508D02*
X12286134Y-17397984D01*
X12438515Y-17578936D02*
X12448039Y-17588460D01*
X12448039Y-17588460D02*
X12438515Y-17597984D01*
X12438515Y-17597984D02*
X12428991Y-17588460D01*
X12428991Y-17588460D02*
X12438515Y-17578936D01*
X12438515Y-17578936D02*
X12438515Y-17597984D01*
X12571848Y-17397984D02*
X12590896Y-17397984D01*
X12590896Y-17397984D02*
X12609944Y-17407508D01*
X12609944Y-17407508D02*
X12619467Y-17417031D01*
X12619467Y-17417031D02*
X12628991Y-17436079D01*
X12628991Y-17436079D02*
X12638515Y-17474174D01*
X12638515Y-17474174D02*
X12638515Y-17521793D01*
X12638515Y-17521793D02*
X12628991Y-17559889D01*
X12628991Y-17559889D02*
X12619467Y-17578936D01*
X12619467Y-17578936D02*
X12609944Y-17588460D01*
X12609944Y-17588460D02*
X12590896Y-17597984D01*
X12590896Y-17597984D02*
X12571848Y-17597984D01*
X12571848Y-17597984D02*
X12552801Y-17588460D01*
X12552801Y-17588460D02*
X12543277Y-17578936D01*
X12543277Y-17578936D02*
X12533753Y-17559889D01*
X12533753Y-17559889D02*
X12524229Y-17521793D01*
X12524229Y-17521793D02*
X12524229Y-17474174D01*
X12524229Y-17474174D02*
X12533753Y-17436079D01*
X12533753Y-17436079D02*
X12543277Y-17417031D01*
X12543277Y-17417031D02*
X12552801Y-17407508D01*
X12552801Y-17407508D02*
X12571848Y-17397984D01*
X12705182Y-17397984D02*
X12828991Y-17397984D01*
X12828991Y-17397984D02*
X12762325Y-17474174D01*
X12762325Y-17474174D02*
X12790896Y-17474174D01*
X12790896Y-17474174D02*
X12809944Y-17483698D01*
X12809944Y-17483698D02*
X12819467Y-17493222D01*
X12819467Y-17493222D02*
X12828991Y-17512270D01*
X12828991Y-17512270D02*
X12828991Y-17559889D01*
X12828991Y-17559889D02*
X12819467Y-17578936D01*
X12819467Y-17578936D02*
X12809944Y-17588460D01*
X12809944Y-17588460D02*
X12790896Y-17597984D01*
X12790896Y-17597984D02*
X12733753Y-17597984D01*
X12733753Y-17597984D02*
X12714706Y-17588460D01*
X12714706Y-17588460D02*
X12705182Y-17578936D01*
X12924229Y-17597984D02*
X12962325Y-17597984D01*
X12962325Y-17597984D02*
X12981372Y-17588460D01*
X12981372Y-17588460D02*
X12990896Y-17578936D01*
X12990896Y-17578936D02*
X13009944Y-17550365D01*
X13009944Y-17550365D02*
X13019467Y-17512270D01*
X13019467Y-17512270D02*
X13019467Y-17436079D01*
X13019467Y-17436079D02*
X13009944Y-17417031D01*
X13009944Y-17417031D02*
X13000420Y-17407508D01*
X13000420Y-17407508D02*
X12981372Y-17397984D01*
X12981372Y-17397984D02*
X12943277Y-17397984D01*
X12943277Y-17397984D02*
X12924229Y-17407508D01*
X12924229Y-17407508D02*
X12914706Y-17417031D01*
X12914706Y-17417031D02*
X12905182Y-17436079D01*
X12905182Y-17436079D02*
X12905182Y-17483698D01*
X12905182Y-17483698D02*
X12914706Y-17502746D01*
X12914706Y-17502746D02*
X12924229Y-17512270D01*
X12924229Y-17512270D02*
X12943277Y-17521793D01*
X12943277Y-17521793D02*
X12981372Y-17521793D01*
X12981372Y-17521793D02*
X13000420Y-17512270D01*
X13000420Y-17512270D02*
X13009944Y-17502746D01*
X13009944Y-17502746D02*
X13019467Y-17483698D01*
X13190896Y-17464650D02*
X13190896Y-17597984D01*
X13143277Y-17388460D02*
X13095658Y-17531317D01*
X13095658Y-17531317D02*
X13219467Y-17531317D01*
X13286134Y-17397984D02*
X13286134Y-17436079D01*
X13362325Y-17397984D02*
X13362325Y-17436079D01*
X13657563Y-17674174D02*
X13648039Y-17664650D01*
X13648039Y-17664650D02*
X13628991Y-17636079D01*
X13628991Y-17636079D02*
X13619468Y-17617031D01*
X13619468Y-17617031D02*
X13609944Y-17588460D01*
X13609944Y-17588460D02*
X13600420Y-17540841D01*
X13600420Y-17540841D02*
X13600420Y-17502746D01*
X13600420Y-17502746D02*
X13609944Y-17455127D01*
X13609944Y-17455127D02*
X13619468Y-17426555D01*
X13619468Y-17426555D02*
X13628991Y-17407508D01*
X13628991Y-17407508D02*
X13648039Y-17378936D01*
X13648039Y-17378936D02*
X13657563Y-17369412D01*
X13714706Y-17397984D02*
X13838515Y-17397984D01*
X13838515Y-17397984D02*
X13771848Y-17474174D01*
X13771848Y-17474174D02*
X13800420Y-17474174D01*
X13800420Y-17474174D02*
X13819468Y-17483698D01*
X13819468Y-17483698D02*
X13828991Y-17493222D01*
X13828991Y-17493222D02*
X13838515Y-17512270D01*
X13838515Y-17512270D02*
X13838515Y-17559889D01*
X13838515Y-17559889D02*
X13828991Y-17578936D01*
X13828991Y-17578936D02*
X13819468Y-17588460D01*
X13819468Y-17588460D02*
X13800420Y-17597984D01*
X13800420Y-17597984D02*
X13743277Y-17597984D01*
X13743277Y-17597984D02*
X13724229Y-17588460D01*
X13724229Y-17588460D02*
X13714706Y-17578936D01*
X13952801Y-17483698D02*
X13933753Y-17474174D01*
X13933753Y-17474174D02*
X13924229Y-17464650D01*
X13924229Y-17464650D02*
X13914706Y-17445603D01*
X13914706Y-17445603D02*
X13914706Y-17436079D01*
X13914706Y-17436079D02*
X13924229Y-17417031D01*
X13924229Y-17417031D02*
X13933753Y-17407508D01*
X13933753Y-17407508D02*
X13952801Y-17397984D01*
X13952801Y-17397984D02*
X13990896Y-17397984D01*
X13990896Y-17397984D02*
X14009944Y-17407508D01*
X14009944Y-17407508D02*
X14019468Y-17417031D01*
X14019468Y-17417031D02*
X14028991Y-17436079D01*
X14028991Y-17436079D02*
X14028991Y-17445603D01*
X14028991Y-17445603D02*
X14019468Y-17464650D01*
X14019468Y-17464650D02*
X14009944Y-17474174D01*
X14009944Y-17474174D02*
X13990896Y-17483698D01*
X13990896Y-17483698D02*
X13952801Y-17483698D01*
X13952801Y-17483698D02*
X13933753Y-17493222D01*
X13933753Y-17493222D02*
X13924229Y-17502746D01*
X13924229Y-17502746D02*
X13914706Y-17521793D01*
X13914706Y-17521793D02*
X13914706Y-17559889D01*
X13914706Y-17559889D02*
X13924229Y-17578936D01*
X13924229Y-17578936D02*
X13933753Y-17588460D01*
X13933753Y-17588460D02*
X13952801Y-17597984D01*
X13952801Y-17597984D02*
X13990896Y-17597984D01*
X13990896Y-17597984D02*
X14009944Y-17588460D01*
X14009944Y-17588460D02*
X14019468Y-17578936D01*
X14019468Y-17578936D02*
X14028991Y-17559889D01*
X14028991Y-17559889D02*
X14028991Y-17521793D01*
X14028991Y-17521793D02*
X14019468Y-17502746D01*
X14019468Y-17502746D02*
X14009944Y-17493222D01*
X14009944Y-17493222D02*
X13990896Y-17483698D01*
X14267087Y-17597984D02*
X14267087Y-17397984D01*
X14352801Y-17597984D02*
X14352801Y-17493222D01*
X14352801Y-17493222D02*
X14343277Y-17474174D01*
X14343277Y-17474174D02*
X14324230Y-17464650D01*
X14324230Y-17464650D02*
X14295658Y-17464650D01*
X14295658Y-17464650D02*
X14276610Y-17474174D01*
X14276610Y-17474174D02*
X14267087Y-17483698D01*
X14476610Y-17597984D02*
X14457563Y-17588460D01*
X14457563Y-17588460D02*
X14448039Y-17578936D01*
X14448039Y-17578936D02*
X14438515Y-17559889D01*
X14438515Y-17559889D02*
X14438515Y-17502746D01*
X14438515Y-17502746D02*
X14448039Y-17483698D01*
X14448039Y-17483698D02*
X14457563Y-17474174D01*
X14457563Y-17474174D02*
X14476610Y-17464650D01*
X14476610Y-17464650D02*
X14505182Y-17464650D01*
X14505182Y-17464650D02*
X14524230Y-17474174D01*
X14524230Y-17474174D02*
X14533753Y-17483698D01*
X14533753Y-17483698D02*
X14543277Y-17502746D01*
X14543277Y-17502746D02*
X14543277Y-17559889D01*
X14543277Y-17559889D02*
X14533753Y-17578936D01*
X14533753Y-17578936D02*
X14524230Y-17588460D01*
X14524230Y-17588460D02*
X14505182Y-17597984D01*
X14505182Y-17597984D02*
X14476610Y-17597984D01*
X14657563Y-17597984D02*
X14638515Y-17588460D01*
X14638515Y-17588460D02*
X14628991Y-17569412D01*
X14628991Y-17569412D02*
X14628991Y-17397984D01*
X14809944Y-17588460D02*
X14790896Y-17597984D01*
X14790896Y-17597984D02*
X14752801Y-17597984D01*
X14752801Y-17597984D02*
X14733753Y-17588460D01*
X14733753Y-17588460D02*
X14724230Y-17569412D01*
X14724230Y-17569412D02*
X14724230Y-17493222D01*
X14724230Y-17493222D02*
X14733753Y-17474174D01*
X14733753Y-17474174D02*
X14752801Y-17464650D01*
X14752801Y-17464650D02*
X14790896Y-17464650D01*
X14790896Y-17464650D02*
X14809944Y-17474174D01*
X14809944Y-17474174D02*
X14819468Y-17493222D01*
X14819468Y-17493222D02*
X14819468Y-17512270D01*
X14819468Y-17512270D02*
X14724230Y-17531317D01*
X14895658Y-17588460D02*
X14914706Y-17597984D01*
X14914706Y-17597984D02*
X14952801Y-17597984D01*
X14952801Y-17597984D02*
X14971849Y-17588460D01*
X14971849Y-17588460D02*
X14981372Y-17569412D01*
X14981372Y-17569412D02*
X14981372Y-17559889D01*
X14981372Y-17559889D02*
X14971849Y-17540841D01*
X14971849Y-17540841D02*
X14952801Y-17531317D01*
X14952801Y-17531317D02*
X14924230Y-17531317D01*
X14924230Y-17531317D02*
X14905182Y-17521793D01*
X14905182Y-17521793D02*
X14895658Y-17502746D01*
X14895658Y-17502746D02*
X14895658Y-17493222D01*
X14895658Y-17493222D02*
X14905182Y-17474174D01*
X14905182Y-17474174D02*
X14924230Y-17464650D01*
X14924230Y-17464650D02*
X14952801Y-17464650D01*
X14952801Y-17464650D02*
X14971849Y-17474174D01*
X15048039Y-17674174D02*
X15057563Y-17664650D01*
X15057563Y-17664650D02*
X15076611Y-17636079D01*
X15076611Y-17636079D02*
X15086134Y-17617031D01*
X15086134Y-17617031D02*
X15095658Y-17588460D01*
X15095658Y-17588460D02*
X15105182Y-17540841D01*
X15105182Y-17540841D02*
X15105182Y-17502746D01*
X15105182Y-17502746D02*
X15095658Y-17455127D01*
X15095658Y-17455127D02*
X15086134Y-17426555D01*
X15086134Y-17426555D02*
X15076611Y-17407508D01*
X15076611Y-17407508D02*
X15057563Y-17378936D01*
X15057563Y-17378936D02*
X15048039Y-17369412D01*
D16*
X9972500Y-17715500D02*
X10082500Y-17825500D01*
X10082500Y-17715500D02*
X9972500Y-17825500D01*
X10027500Y-17715500D02*
X10027500Y-17825500D01*
X9972500Y-17770500D02*
X10082500Y-17770500D01*
D11*
X10448039Y-17861984D02*
X10333753Y-17861984D01*
X10390896Y-17861984D02*
X10390896Y-17661984D01*
X10390896Y-17661984D02*
X10371848Y-17690555D01*
X10371848Y-17690555D02*
X10352801Y-17709603D01*
X10352801Y-17709603D02*
X10333753Y-17719127D01*
X10533753Y-17842936D02*
X10543277Y-17852460D01*
X10543277Y-17852460D02*
X10533753Y-17861984D01*
X10533753Y-17861984D02*
X10524229Y-17852460D01*
X10524229Y-17852460D02*
X10533753Y-17842936D01*
X10533753Y-17842936D02*
X10533753Y-17861984D01*
X10733753Y-17861984D02*
X10619467Y-17861984D01*
X10676610Y-17861984D02*
X10676610Y-17661984D01*
X10676610Y-17661984D02*
X10657563Y-17690555D01*
X10657563Y-17690555D02*
X10638515Y-17709603D01*
X10638515Y-17709603D02*
X10619467Y-17719127D01*
X10857563Y-17661984D02*
X10876610Y-17661984D01*
X10876610Y-17661984D02*
X10895658Y-17671508D01*
X10895658Y-17671508D02*
X10905182Y-17681031D01*
X10905182Y-17681031D02*
X10914705Y-17700079D01*
X10914705Y-17700079D02*
X10924229Y-17738174D01*
X10924229Y-17738174D02*
X10924229Y-17785793D01*
X10924229Y-17785793D02*
X10914705Y-17823889D01*
X10914705Y-17823889D02*
X10905182Y-17842936D01*
X10905182Y-17842936D02*
X10895658Y-17852460D01*
X10895658Y-17852460D02*
X10876610Y-17861984D01*
X10876610Y-17861984D02*
X10857563Y-17861984D01*
X10857563Y-17861984D02*
X10838515Y-17852460D01*
X10838515Y-17852460D02*
X10828991Y-17842936D01*
X10828991Y-17842936D02*
X10819467Y-17823889D01*
X10819467Y-17823889D02*
X10809944Y-17785793D01*
X10809944Y-17785793D02*
X10809944Y-17738174D01*
X10809944Y-17738174D02*
X10819467Y-17700079D01*
X10819467Y-17700079D02*
X10828991Y-17681031D01*
X10828991Y-17681031D02*
X10838515Y-17671508D01*
X10838515Y-17671508D02*
X10857563Y-17661984D01*
X11048039Y-17661984D02*
X11067086Y-17661984D01*
X11067086Y-17661984D02*
X11086134Y-17671508D01*
X11086134Y-17671508D02*
X11095658Y-17681031D01*
X11095658Y-17681031D02*
X11105182Y-17700079D01*
X11105182Y-17700079D02*
X11114705Y-17738174D01*
X11114705Y-17738174D02*
X11114705Y-17785793D01*
X11114705Y-17785793D02*
X11105182Y-17823889D01*
X11105182Y-17823889D02*
X11095658Y-17842936D01*
X11095658Y-17842936D02*
X11086134Y-17852460D01*
X11086134Y-17852460D02*
X11067086Y-17861984D01*
X11067086Y-17861984D02*
X11048039Y-17861984D01*
X11048039Y-17861984D02*
X11028991Y-17852460D01*
X11028991Y-17852460D02*
X11019467Y-17842936D01*
X11019467Y-17842936D02*
X11009944Y-17823889D01*
X11009944Y-17823889D02*
X11000420Y-17785793D01*
X11000420Y-17785793D02*
X11000420Y-17738174D01*
X11000420Y-17738174D02*
X11009944Y-17700079D01*
X11009944Y-17700079D02*
X11019467Y-17681031D01*
X11019467Y-17681031D02*
X11028991Y-17671508D01*
X11028991Y-17671508D02*
X11048039Y-17661984D01*
X11200420Y-17861984D02*
X11200420Y-17728650D01*
X11200420Y-17747698D02*
X11209943Y-17738174D01*
X11209943Y-17738174D02*
X11228991Y-17728650D01*
X11228991Y-17728650D02*
X11257563Y-17728650D01*
X11257563Y-17728650D02*
X11276610Y-17738174D01*
X11276610Y-17738174D02*
X11286134Y-17757222D01*
X11286134Y-17757222D02*
X11286134Y-17861984D01*
X11286134Y-17757222D02*
X11295658Y-17738174D01*
X11295658Y-17738174D02*
X11314705Y-17728650D01*
X11314705Y-17728650D02*
X11343277Y-17728650D01*
X11343277Y-17728650D02*
X11362324Y-17738174D01*
X11362324Y-17738174D02*
X11371848Y-17757222D01*
X11371848Y-17757222D02*
X11371848Y-17861984D01*
X11467086Y-17861984D02*
X11467086Y-17728650D01*
X11467086Y-17747698D02*
X11476610Y-17738174D01*
X11476610Y-17738174D02*
X11495658Y-17728650D01*
X11495658Y-17728650D02*
X11524229Y-17728650D01*
X11524229Y-17728650D02*
X11543277Y-17738174D01*
X11543277Y-17738174D02*
X11552801Y-17757222D01*
X11552801Y-17757222D02*
X11552801Y-17861984D01*
X11552801Y-17757222D02*
X11562324Y-17738174D01*
X11562324Y-17738174D02*
X11581372Y-17728650D01*
X11581372Y-17728650D02*
X11609943Y-17728650D01*
X11609943Y-17728650D02*
X11628991Y-17738174D01*
X11628991Y-17738174D02*
X11638515Y-17757222D01*
X11638515Y-17757222D02*
X11638515Y-17861984D01*
X12028991Y-17652460D02*
X11857563Y-17909603D01*
X12286134Y-17661984D02*
X12305182Y-17661984D01*
X12305182Y-17661984D02*
X12324229Y-17671508D01*
X12324229Y-17671508D02*
X12333753Y-17681031D01*
X12333753Y-17681031D02*
X12343277Y-17700079D01*
X12343277Y-17700079D02*
X12352801Y-17738174D01*
X12352801Y-17738174D02*
X12352801Y-17785793D01*
X12352801Y-17785793D02*
X12343277Y-17823889D01*
X12343277Y-17823889D02*
X12333753Y-17842936D01*
X12333753Y-17842936D02*
X12324229Y-17852460D01*
X12324229Y-17852460D02*
X12305182Y-17861984D01*
X12305182Y-17861984D02*
X12286134Y-17861984D01*
X12286134Y-17861984D02*
X12267086Y-17852460D01*
X12267086Y-17852460D02*
X12257563Y-17842936D01*
X12257563Y-17842936D02*
X12248039Y-17823889D01*
X12248039Y-17823889D02*
X12238515Y-17785793D01*
X12238515Y-17785793D02*
X12238515Y-17738174D01*
X12238515Y-17738174D02*
X12248039Y-17700079D01*
X12248039Y-17700079D02*
X12257563Y-17681031D01*
X12257563Y-17681031D02*
X12267086Y-17671508D01*
X12267086Y-17671508D02*
X12286134Y-17661984D01*
X12438515Y-17842936D02*
X12448039Y-17852460D01*
X12448039Y-17852460D02*
X12438515Y-17861984D01*
X12438515Y-17861984D02*
X12428991Y-17852460D01*
X12428991Y-17852460D02*
X12438515Y-17842936D01*
X12438515Y-17842936D02*
X12438515Y-17861984D01*
X12571848Y-17661984D02*
X12590896Y-17661984D01*
X12590896Y-17661984D02*
X12609944Y-17671508D01*
X12609944Y-17671508D02*
X12619467Y-17681031D01*
X12619467Y-17681031D02*
X12628991Y-17700079D01*
X12628991Y-17700079D02*
X12638515Y-17738174D01*
X12638515Y-17738174D02*
X12638515Y-17785793D01*
X12638515Y-17785793D02*
X12628991Y-17823889D01*
X12628991Y-17823889D02*
X12619467Y-17842936D01*
X12619467Y-17842936D02*
X12609944Y-17852460D01*
X12609944Y-17852460D02*
X12590896Y-17861984D01*
X12590896Y-17861984D02*
X12571848Y-17861984D01*
X12571848Y-17861984D02*
X12552801Y-17852460D01*
X12552801Y-17852460D02*
X12543277Y-17842936D01*
X12543277Y-17842936D02*
X12533753Y-17823889D01*
X12533753Y-17823889D02*
X12524229Y-17785793D01*
X12524229Y-17785793D02*
X12524229Y-17738174D01*
X12524229Y-17738174D02*
X12533753Y-17700079D01*
X12533753Y-17700079D02*
X12543277Y-17681031D01*
X12543277Y-17681031D02*
X12552801Y-17671508D01*
X12552801Y-17671508D02*
X12571848Y-17661984D01*
X12809944Y-17728650D02*
X12809944Y-17861984D01*
X12762325Y-17652460D02*
X12714706Y-17795317D01*
X12714706Y-17795317D02*
X12838515Y-17795317D01*
X12895658Y-17661984D02*
X13019467Y-17661984D01*
X13019467Y-17661984D02*
X12952801Y-17738174D01*
X12952801Y-17738174D02*
X12981372Y-17738174D01*
X12981372Y-17738174D02*
X13000420Y-17747698D01*
X13000420Y-17747698D02*
X13009944Y-17757222D01*
X13009944Y-17757222D02*
X13019467Y-17776270D01*
X13019467Y-17776270D02*
X13019467Y-17823889D01*
X13019467Y-17823889D02*
X13009944Y-17842936D01*
X13009944Y-17842936D02*
X13000420Y-17852460D01*
X13000420Y-17852460D02*
X12981372Y-17861984D01*
X12981372Y-17861984D02*
X12924229Y-17861984D01*
X12924229Y-17861984D02*
X12905182Y-17852460D01*
X12905182Y-17852460D02*
X12895658Y-17842936D01*
X13086134Y-17661984D02*
X13209944Y-17661984D01*
X13209944Y-17661984D02*
X13143277Y-17738174D01*
X13143277Y-17738174D02*
X13171848Y-17738174D01*
X13171848Y-17738174D02*
X13190896Y-17747698D01*
X13190896Y-17747698D02*
X13200420Y-17757222D01*
X13200420Y-17757222D02*
X13209944Y-17776270D01*
X13209944Y-17776270D02*
X13209944Y-17823889D01*
X13209944Y-17823889D02*
X13200420Y-17842936D01*
X13200420Y-17842936D02*
X13190896Y-17852460D01*
X13190896Y-17852460D02*
X13171848Y-17861984D01*
X13171848Y-17861984D02*
X13114706Y-17861984D01*
X13114706Y-17861984D02*
X13095658Y-17852460D01*
X13095658Y-17852460D02*
X13086134Y-17842936D01*
X13286134Y-17661984D02*
X13286134Y-17700079D01*
X13362325Y-17661984D02*
X13362325Y-17700079D01*
X13657563Y-17938174D02*
X13648039Y-17928650D01*
X13648039Y-17928650D02*
X13628991Y-17900079D01*
X13628991Y-17900079D02*
X13619468Y-17881031D01*
X13619468Y-17881031D02*
X13609944Y-17852460D01*
X13609944Y-17852460D02*
X13600420Y-17804841D01*
X13600420Y-17804841D02*
X13600420Y-17766746D01*
X13600420Y-17766746D02*
X13609944Y-17719127D01*
X13609944Y-17719127D02*
X13619468Y-17690555D01*
X13619468Y-17690555D02*
X13628991Y-17671508D01*
X13628991Y-17671508D02*
X13648039Y-17642936D01*
X13648039Y-17642936D02*
X13657563Y-17633412D01*
X13762325Y-17747698D02*
X13743277Y-17738174D01*
X13743277Y-17738174D02*
X13733753Y-17728650D01*
X13733753Y-17728650D02*
X13724229Y-17709603D01*
X13724229Y-17709603D02*
X13724229Y-17700079D01*
X13724229Y-17700079D02*
X13733753Y-17681031D01*
X13733753Y-17681031D02*
X13743277Y-17671508D01*
X13743277Y-17671508D02*
X13762325Y-17661984D01*
X13762325Y-17661984D02*
X13800420Y-17661984D01*
X13800420Y-17661984D02*
X13819468Y-17671508D01*
X13819468Y-17671508D02*
X13828991Y-17681031D01*
X13828991Y-17681031D02*
X13838515Y-17700079D01*
X13838515Y-17700079D02*
X13838515Y-17709603D01*
X13838515Y-17709603D02*
X13828991Y-17728650D01*
X13828991Y-17728650D02*
X13819468Y-17738174D01*
X13819468Y-17738174D02*
X13800420Y-17747698D01*
X13800420Y-17747698D02*
X13762325Y-17747698D01*
X13762325Y-17747698D02*
X13743277Y-17757222D01*
X13743277Y-17757222D02*
X13733753Y-17766746D01*
X13733753Y-17766746D02*
X13724229Y-17785793D01*
X13724229Y-17785793D02*
X13724229Y-17823889D01*
X13724229Y-17823889D02*
X13733753Y-17842936D01*
X13733753Y-17842936D02*
X13743277Y-17852460D01*
X13743277Y-17852460D02*
X13762325Y-17861984D01*
X13762325Y-17861984D02*
X13800420Y-17861984D01*
X13800420Y-17861984D02*
X13819468Y-17852460D01*
X13819468Y-17852460D02*
X13828991Y-17842936D01*
X13828991Y-17842936D02*
X13838515Y-17823889D01*
X13838515Y-17823889D02*
X13838515Y-17785793D01*
X13838515Y-17785793D02*
X13828991Y-17766746D01*
X13828991Y-17766746D02*
X13819468Y-17757222D01*
X13819468Y-17757222D02*
X13800420Y-17747698D01*
X14076610Y-17861984D02*
X14076610Y-17661984D01*
X14162325Y-17861984D02*
X14162325Y-17757222D01*
X14162325Y-17757222D02*
X14152801Y-17738174D01*
X14152801Y-17738174D02*
X14133753Y-17728650D01*
X14133753Y-17728650D02*
X14105182Y-17728650D01*
X14105182Y-17728650D02*
X14086134Y-17738174D01*
X14086134Y-17738174D02*
X14076610Y-17747698D01*
X14286134Y-17861984D02*
X14267087Y-17852460D01*
X14267087Y-17852460D02*
X14257563Y-17842936D01*
X14257563Y-17842936D02*
X14248039Y-17823889D01*
X14248039Y-17823889D02*
X14248039Y-17766746D01*
X14248039Y-17766746D02*
X14257563Y-17747698D01*
X14257563Y-17747698D02*
X14267087Y-17738174D01*
X14267087Y-17738174D02*
X14286134Y-17728650D01*
X14286134Y-17728650D02*
X14314706Y-17728650D01*
X14314706Y-17728650D02*
X14333753Y-17738174D01*
X14333753Y-17738174D02*
X14343277Y-17747698D01*
X14343277Y-17747698D02*
X14352801Y-17766746D01*
X14352801Y-17766746D02*
X14352801Y-17823889D01*
X14352801Y-17823889D02*
X14343277Y-17842936D01*
X14343277Y-17842936D02*
X14333753Y-17852460D01*
X14333753Y-17852460D02*
X14314706Y-17861984D01*
X14314706Y-17861984D02*
X14286134Y-17861984D01*
X14467087Y-17861984D02*
X14448039Y-17852460D01*
X14448039Y-17852460D02*
X14438515Y-17833412D01*
X14438515Y-17833412D02*
X14438515Y-17661984D01*
X14619468Y-17852460D02*
X14600420Y-17861984D01*
X14600420Y-17861984D02*
X14562325Y-17861984D01*
X14562325Y-17861984D02*
X14543277Y-17852460D01*
X14543277Y-17852460D02*
X14533753Y-17833412D01*
X14533753Y-17833412D02*
X14533753Y-17757222D01*
X14533753Y-17757222D02*
X14543277Y-17738174D01*
X14543277Y-17738174D02*
X14562325Y-17728650D01*
X14562325Y-17728650D02*
X14600420Y-17728650D01*
X14600420Y-17728650D02*
X14619468Y-17738174D01*
X14619468Y-17738174D02*
X14628991Y-17757222D01*
X14628991Y-17757222D02*
X14628991Y-17776270D01*
X14628991Y-17776270D02*
X14533753Y-17795317D01*
X14705182Y-17852460D02*
X14724230Y-17861984D01*
X14724230Y-17861984D02*
X14762325Y-17861984D01*
X14762325Y-17861984D02*
X14781372Y-17852460D01*
X14781372Y-17852460D02*
X14790896Y-17833412D01*
X14790896Y-17833412D02*
X14790896Y-17823889D01*
X14790896Y-17823889D02*
X14781372Y-17804841D01*
X14781372Y-17804841D02*
X14762325Y-17795317D01*
X14762325Y-17795317D02*
X14733753Y-17795317D01*
X14733753Y-17795317D02*
X14714706Y-17785793D01*
X14714706Y-17785793D02*
X14705182Y-17766746D01*
X14705182Y-17766746D02*
X14705182Y-17757222D01*
X14705182Y-17757222D02*
X14714706Y-17738174D01*
X14714706Y-17738174D02*
X14733753Y-17728650D01*
X14733753Y-17728650D02*
X14762325Y-17728650D01*
X14762325Y-17728650D02*
X14781372Y-17738174D01*
X14857563Y-17938174D02*
X14867087Y-17928650D01*
X14867087Y-17928650D02*
X14886134Y-17900079D01*
X14886134Y-17900079D02*
X14895658Y-17881031D01*
X14895658Y-17881031D02*
X14905182Y-17852460D01*
X14905182Y-17852460D02*
X14914706Y-17804841D01*
X14914706Y-17804841D02*
X14914706Y-17766746D01*
X14914706Y-17766746D02*
X14905182Y-17719127D01*
X14905182Y-17719127D02*
X14895658Y-17690555D01*
X14895658Y-17690555D02*
X14886134Y-17671508D01*
X14886134Y-17671508D02*
X14867087Y-17642936D01*
X14867087Y-17642936D02*
X14857563Y-17633412D01*
D17*
X9932500Y-17959500D02*
X10082500Y-18109500D01*
X10082500Y-17959500D02*
X9932500Y-18109500D01*
X10060534Y-18087534D02*
X10060534Y-17981467D01*
X9954467Y-17981467D01*
X9954467Y-18087534D01*
X10060534Y-18087534D01*
D11*
X10448039Y-18125984D02*
X10333753Y-18125984D01*
X10390896Y-18125984D02*
X10390896Y-17925984D01*
X10390896Y-17925984D02*
X10371848Y-17954555D01*
X10371848Y-17954555D02*
X10352801Y-17973603D01*
X10352801Y-17973603D02*
X10333753Y-17983127D01*
X10533753Y-18106936D02*
X10543277Y-18116460D01*
X10543277Y-18116460D02*
X10533753Y-18125984D01*
X10533753Y-18125984D02*
X10524229Y-18116460D01*
X10524229Y-18116460D02*
X10533753Y-18106936D01*
X10533753Y-18106936D02*
X10533753Y-18125984D01*
X10724229Y-17925984D02*
X10628991Y-17925984D01*
X10628991Y-17925984D02*
X10619467Y-18021222D01*
X10619467Y-18021222D02*
X10628991Y-18011698D01*
X10628991Y-18011698D02*
X10648039Y-18002174D01*
X10648039Y-18002174D02*
X10695658Y-18002174D01*
X10695658Y-18002174D02*
X10714705Y-18011698D01*
X10714705Y-18011698D02*
X10724229Y-18021222D01*
X10724229Y-18021222D02*
X10733753Y-18040270D01*
X10733753Y-18040270D02*
X10733753Y-18087889D01*
X10733753Y-18087889D02*
X10724229Y-18106936D01*
X10724229Y-18106936D02*
X10714705Y-18116460D01*
X10714705Y-18116460D02*
X10695658Y-18125984D01*
X10695658Y-18125984D02*
X10648039Y-18125984D01*
X10648039Y-18125984D02*
X10628991Y-18116460D01*
X10628991Y-18116460D02*
X10619467Y-18106936D01*
X10857563Y-17925984D02*
X10876610Y-17925984D01*
X10876610Y-17925984D02*
X10895658Y-17935508D01*
X10895658Y-17935508D02*
X10905182Y-17945031D01*
X10905182Y-17945031D02*
X10914705Y-17964079D01*
X10914705Y-17964079D02*
X10924229Y-18002174D01*
X10924229Y-18002174D02*
X10924229Y-18049793D01*
X10924229Y-18049793D02*
X10914705Y-18087889D01*
X10914705Y-18087889D02*
X10905182Y-18106936D01*
X10905182Y-18106936D02*
X10895658Y-18116460D01*
X10895658Y-18116460D02*
X10876610Y-18125984D01*
X10876610Y-18125984D02*
X10857563Y-18125984D01*
X10857563Y-18125984D02*
X10838515Y-18116460D01*
X10838515Y-18116460D02*
X10828991Y-18106936D01*
X10828991Y-18106936D02*
X10819467Y-18087889D01*
X10819467Y-18087889D02*
X10809944Y-18049793D01*
X10809944Y-18049793D02*
X10809944Y-18002174D01*
X10809944Y-18002174D02*
X10819467Y-17964079D01*
X10819467Y-17964079D02*
X10828991Y-17945031D01*
X10828991Y-17945031D02*
X10838515Y-17935508D01*
X10838515Y-17935508D02*
X10857563Y-17925984D01*
X11048039Y-17925984D02*
X11067086Y-17925984D01*
X11067086Y-17925984D02*
X11086134Y-17935508D01*
X11086134Y-17935508D02*
X11095658Y-17945031D01*
X11095658Y-17945031D02*
X11105182Y-17964079D01*
X11105182Y-17964079D02*
X11114705Y-18002174D01*
X11114705Y-18002174D02*
X11114705Y-18049793D01*
X11114705Y-18049793D02*
X11105182Y-18087889D01*
X11105182Y-18087889D02*
X11095658Y-18106936D01*
X11095658Y-18106936D02*
X11086134Y-18116460D01*
X11086134Y-18116460D02*
X11067086Y-18125984D01*
X11067086Y-18125984D02*
X11048039Y-18125984D01*
X11048039Y-18125984D02*
X11028991Y-18116460D01*
X11028991Y-18116460D02*
X11019467Y-18106936D01*
X11019467Y-18106936D02*
X11009944Y-18087889D01*
X11009944Y-18087889D02*
X11000420Y-18049793D01*
X11000420Y-18049793D02*
X11000420Y-18002174D01*
X11000420Y-18002174D02*
X11009944Y-17964079D01*
X11009944Y-17964079D02*
X11019467Y-17945031D01*
X11019467Y-17945031D02*
X11028991Y-17935508D01*
X11028991Y-17935508D02*
X11048039Y-17925984D01*
X11200420Y-18125984D02*
X11200420Y-17992650D01*
X11200420Y-18011698D02*
X11209943Y-18002174D01*
X11209943Y-18002174D02*
X11228991Y-17992650D01*
X11228991Y-17992650D02*
X11257563Y-17992650D01*
X11257563Y-17992650D02*
X11276610Y-18002174D01*
X11276610Y-18002174D02*
X11286134Y-18021222D01*
X11286134Y-18021222D02*
X11286134Y-18125984D01*
X11286134Y-18021222D02*
X11295658Y-18002174D01*
X11295658Y-18002174D02*
X11314705Y-17992650D01*
X11314705Y-17992650D02*
X11343277Y-17992650D01*
X11343277Y-17992650D02*
X11362324Y-18002174D01*
X11362324Y-18002174D02*
X11371848Y-18021222D01*
X11371848Y-18021222D02*
X11371848Y-18125984D01*
X11467086Y-18125984D02*
X11467086Y-17992650D01*
X11467086Y-18011698D02*
X11476610Y-18002174D01*
X11476610Y-18002174D02*
X11495658Y-17992650D01*
X11495658Y-17992650D02*
X11524229Y-17992650D01*
X11524229Y-17992650D02*
X11543277Y-18002174D01*
X11543277Y-18002174D02*
X11552801Y-18021222D01*
X11552801Y-18021222D02*
X11552801Y-18125984D01*
X11552801Y-18021222D02*
X11562324Y-18002174D01*
X11562324Y-18002174D02*
X11581372Y-17992650D01*
X11581372Y-17992650D02*
X11609943Y-17992650D01*
X11609943Y-17992650D02*
X11628991Y-18002174D01*
X11628991Y-18002174D02*
X11638515Y-18021222D01*
X11638515Y-18021222D02*
X11638515Y-18125984D01*
X12028991Y-17916460D02*
X11857563Y-18173603D01*
X12286134Y-17925984D02*
X12305182Y-17925984D01*
X12305182Y-17925984D02*
X12324229Y-17935508D01*
X12324229Y-17935508D02*
X12333753Y-17945031D01*
X12333753Y-17945031D02*
X12343277Y-17964079D01*
X12343277Y-17964079D02*
X12352801Y-18002174D01*
X12352801Y-18002174D02*
X12352801Y-18049793D01*
X12352801Y-18049793D02*
X12343277Y-18087889D01*
X12343277Y-18087889D02*
X12333753Y-18106936D01*
X12333753Y-18106936D02*
X12324229Y-18116460D01*
X12324229Y-18116460D02*
X12305182Y-18125984D01*
X12305182Y-18125984D02*
X12286134Y-18125984D01*
X12286134Y-18125984D02*
X12267086Y-18116460D01*
X12267086Y-18116460D02*
X12257563Y-18106936D01*
X12257563Y-18106936D02*
X12248039Y-18087889D01*
X12248039Y-18087889D02*
X12238515Y-18049793D01*
X12238515Y-18049793D02*
X12238515Y-18002174D01*
X12238515Y-18002174D02*
X12248039Y-17964079D01*
X12248039Y-17964079D02*
X12257563Y-17945031D01*
X12257563Y-17945031D02*
X12267086Y-17935508D01*
X12267086Y-17935508D02*
X12286134Y-17925984D01*
X12438515Y-18106936D02*
X12448039Y-18116460D01*
X12448039Y-18116460D02*
X12438515Y-18125984D01*
X12438515Y-18125984D02*
X12428991Y-18116460D01*
X12428991Y-18116460D02*
X12438515Y-18106936D01*
X12438515Y-18106936D02*
X12438515Y-18125984D01*
X12571848Y-17925984D02*
X12590896Y-17925984D01*
X12590896Y-17925984D02*
X12609944Y-17935508D01*
X12609944Y-17935508D02*
X12619467Y-17945031D01*
X12619467Y-17945031D02*
X12628991Y-17964079D01*
X12628991Y-17964079D02*
X12638515Y-18002174D01*
X12638515Y-18002174D02*
X12638515Y-18049793D01*
X12638515Y-18049793D02*
X12628991Y-18087889D01*
X12628991Y-18087889D02*
X12619467Y-18106936D01*
X12619467Y-18106936D02*
X12609944Y-18116460D01*
X12609944Y-18116460D02*
X12590896Y-18125984D01*
X12590896Y-18125984D02*
X12571848Y-18125984D01*
X12571848Y-18125984D02*
X12552801Y-18116460D01*
X12552801Y-18116460D02*
X12543277Y-18106936D01*
X12543277Y-18106936D02*
X12533753Y-18087889D01*
X12533753Y-18087889D02*
X12524229Y-18049793D01*
X12524229Y-18049793D02*
X12524229Y-18002174D01*
X12524229Y-18002174D02*
X12533753Y-17964079D01*
X12533753Y-17964079D02*
X12543277Y-17945031D01*
X12543277Y-17945031D02*
X12552801Y-17935508D01*
X12552801Y-17935508D02*
X12571848Y-17925984D01*
X12819467Y-17925984D02*
X12724229Y-17925984D01*
X12724229Y-17925984D02*
X12714706Y-18021222D01*
X12714706Y-18021222D02*
X12724229Y-18011698D01*
X12724229Y-18011698D02*
X12743277Y-18002174D01*
X12743277Y-18002174D02*
X12790896Y-18002174D01*
X12790896Y-18002174D02*
X12809944Y-18011698D01*
X12809944Y-18011698D02*
X12819467Y-18021222D01*
X12819467Y-18021222D02*
X12828991Y-18040270D01*
X12828991Y-18040270D02*
X12828991Y-18087889D01*
X12828991Y-18087889D02*
X12819467Y-18106936D01*
X12819467Y-18106936D02*
X12809944Y-18116460D01*
X12809944Y-18116460D02*
X12790896Y-18125984D01*
X12790896Y-18125984D02*
X12743277Y-18125984D01*
X12743277Y-18125984D02*
X12724229Y-18116460D01*
X12724229Y-18116460D02*
X12714706Y-18106936D01*
X12924229Y-18125984D02*
X12962325Y-18125984D01*
X12962325Y-18125984D02*
X12981372Y-18116460D01*
X12981372Y-18116460D02*
X12990896Y-18106936D01*
X12990896Y-18106936D02*
X13009944Y-18078365D01*
X13009944Y-18078365D02*
X13019467Y-18040270D01*
X13019467Y-18040270D02*
X13019467Y-17964079D01*
X13019467Y-17964079D02*
X13009944Y-17945031D01*
X13009944Y-17945031D02*
X13000420Y-17935508D01*
X13000420Y-17935508D02*
X12981372Y-17925984D01*
X12981372Y-17925984D02*
X12943277Y-17925984D01*
X12943277Y-17925984D02*
X12924229Y-17935508D01*
X12924229Y-17935508D02*
X12914706Y-17945031D01*
X12914706Y-17945031D02*
X12905182Y-17964079D01*
X12905182Y-17964079D02*
X12905182Y-18011698D01*
X12905182Y-18011698D02*
X12914706Y-18030746D01*
X12914706Y-18030746D02*
X12924229Y-18040270D01*
X12924229Y-18040270D02*
X12943277Y-18049793D01*
X12943277Y-18049793D02*
X12981372Y-18049793D01*
X12981372Y-18049793D02*
X13000420Y-18040270D01*
X13000420Y-18040270D02*
X13009944Y-18030746D01*
X13009944Y-18030746D02*
X13019467Y-18011698D01*
X13209944Y-18125984D02*
X13095658Y-18125984D01*
X13152801Y-18125984D02*
X13152801Y-17925984D01*
X13152801Y-17925984D02*
X13133753Y-17954555D01*
X13133753Y-17954555D02*
X13114706Y-17973603D01*
X13114706Y-17973603D02*
X13095658Y-17983127D01*
X13286134Y-17925984D02*
X13286134Y-17964079D01*
X13362325Y-17925984D02*
X13362325Y-17964079D01*
X13657563Y-18202174D02*
X13648039Y-18192650D01*
X13648039Y-18192650D02*
X13628991Y-18164079D01*
X13628991Y-18164079D02*
X13619468Y-18145031D01*
X13619468Y-18145031D02*
X13609944Y-18116460D01*
X13609944Y-18116460D02*
X13600420Y-18068841D01*
X13600420Y-18068841D02*
X13600420Y-18030746D01*
X13600420Y-18030746D02*
X13609944Y-17983127D01*
X13609944Y-17983127D02*
X13619468Y-17954555D01*
X13619468Y-17954555D02*
X13628991Y-17935508D01*
X13628991Y-17935508D02*
X13648039Y-17906936D01*
X13648039Y-17906936D02*
X13657563Y-17897412D01*
X13819468Y-17992650D02*
X13819468Y-18125984D01*
X13771848Y-17916460D02*
X13724229Y-18059317D01*
X13724229Y-18059317D02*
X13848039Y-18059317D01*
X14009944Y-17925984D02*
X13971848Y-17925984D01*
X13971848Y-17925984D02*
X13952801Y-17935508D01*
X13952801Y-17935508D02*
X13943277Y-17945031D01*
X13943277Y-17945031D02*
X13924229Y-17973603D01*
X13924229Y-17973603D02*
X13914706Y-18011698D01*
X13914706Y-18011698D02*
X13914706Y-18087889D01*
X13914706Y-18087889D02*
X13924229Y-18106936D01*
X13924229Y-18106936D02*
X13933753Y-18116460D01*
X13933753Y-18116460D02*
X13952801Y-18125984D01*
X13952801Y-18125984D02*
X13990896Y-18125984D01*
X13990896Y-18125984D02*
X14009944Y-18116460D01*
X14009944Y-18116460D02*
X14019468Y-18106936D01*
X14019468Y-18106936D02*
X14028991Y-18087889D01*
X14028991Y-18087889D02*
X14028991Y-18040270D01*
X14028991Y-18040270D02*
X14019468Y-18021222D01*
X14019468Y-18021222D02*
X14009944Y-18011698D01*
X14009944Y-18011698D02*
X13990896Y-18002174D01*
X13990896Y-18002174D02*
X13952801Y-18002174D01*
X13952801Y-18002174D02*
X13933753Y-18011698D01*
X13933753Y-18011698D02*
X13924229Y-18021222D01*
X13924229Y-18021222D02*
X13914706Y-18040270D01*
X14267087Y-18125984D02*
X14267087Y-17925984D01*
X14352801Y-18125984D02*
X14352801Y-18021222D01*
X14352801Y-18021222D02*
X14343277Y-18002174D01*
X14343277Y-18002174D02*
X14324230Y-17992650D01*
X14324230Y-17992650D02*
X14295658Y-17992650D01*
X14295658Y-17992650D02*
X14276610Y-18002174D01*
X14276610Y-18002174D02*
X14267087Y-18011698D01*
X14476610Y-18125984D02*
X14457563Y-18116460D01*
X14457563Y-18116460D02*
X14448039Y-18106936D01*
X14448039Y-18106936D02*
X14438515Y-18087889D01*
X14438515Y-18087889D02*
X14438515Y-18030746D01*
X14438515Y-18030746D02*
X14448039Y-18011698D01*
X14448039Y-18011698D02*
X14457563Y-18002174D01*
X14457563Y-18002174D02*
X14476610Y-17992650D01*
X14476610Y-17992650D02*
X14505182Y-17992650D01*
X14505182Y-17992650D02*
X14524230Y-18002174D01*
X14524230Y-18002174D02*
X14533753Y-18011698D01*
X14533753Y-18011698D02*
X14543277Y-18030746D01*
X14543277Y-18030746D02*
X14543277Y-18087889D01*
X14543277Y-18087889D02*
X14533753Y-18106936D01*
X14533753Y-18106936D02*
X14524230Y-18116460D01*
X14524230Y-18116460D02*
X14505182Y-18125984D01*
X14505182Y-18125984D02*
X14476610Y-18125984D01*
X14657563Y-18125984D02*
X14638515Y-18116460D01*
X14638515Y-18116460D02*
X14628991Y-18097412D01*
X14628991Y-18097412D02*
X14628991Y-17925984D01*
X14809944Y-18116460D02*
X14790896Y-18125984D01*
X14790896Y-18125984D02*
X14752801Y-18125984D01*
X14752801Y-18125984D02*
X14733753Y-18116460D01*
X14733753Y-18116460D02*
X14724230Y-18097412D01*
X14724230Y-18097412D02*
X14724230Y-18021222D01*
X14724230Y-18021222D02*
X14733753Y-18002174D01*
X14733753Y-18002174D02*
X14752801Y-17992650D01*
X14752801Y-17992650D02*
X14790896Y-17992650D01*
X14790896Y-17992650D02*
X14809944Y-18002174D01*
X14809944Y-18002174D02*
X14819468Y-18021222D01*
X14819468Y-18021222D02*
X14819468Y-18040270D01*
X14819468Y-18040270D02*
X14724230Y-18059317D01*
X14895658Y-18116460D02*
X14914706Y-18125984D01*
X14914706Y-18125984D02*
X14952801Y-18125984D01*
X14952801Y-18125984D02*
X14971849Y-18116460D01*
X14971849Y-18116460D02*
X14981372Y-18097412D01*
X14981372Y-18097412D02*
X14981372Y-18087889D01*
X14981372Y-18087889D02*
X14971849Y-18068841D01*
X14971849Y-18068841D02*
X14952801Y-18059317D01*
X14952801Y-18059317D02*
X14924230Y-18059317D01*
X14924230Y-18059317D02*
X14905182Y-18049793D01*
X14905182Y-18049793D02*
X14895658Y-18030746D01*
X14895658Y-18030746D02*
X14895658Y-18021222D01*
X14895658Y-18021222D02*
X14905182Y-18002174D01*
X14905182Y-18002174D02*
X14924230Y-17992650D01*
X14924230Y-17992650D02*
X14952801Y-17992650D01*
X14952801Y-17992650D02*
X14971849Y-18002174D01*
X15048039Y-18202174D02*
X15057563Y-18192650D01*
X15057563Y-18192650D02*
X15076611Y-18164079D01*
X15076611Y-18164079D02*
X15086134Y-18145031D01*
X15086134Y-18145031D02*
X15095658Y-18116460D01*
X15095658Y-18116460D02*
X15105182Y-18068841D01*
X15105182Y-18068841D02*
X15105182Y-18030746D01*
X15105182Y-18030746D02*
X15095658Y-17983127D01*
X15095658Y-17983127D02*
X15086134Y-17954555D01*
X15086134Y-17954555D02*
X15076611Y-17935508D01*
X15076611Y-17935508D02*
X15057563Y-17906936D01*
X15057563Y-17906936D02*
X15048039Y-17897412D01*
M02*
